<svg width="39" height="37" viewBox="0 0 39 37" fill="none" xmlns="http://www.w3.org/2000/svg">
<path d="M9.83029 23.1401C10.3686 23.1401 10.8198 22.958 11.1839 22.5939C11.548 22.2298 11.7301 21.7786 11.7301 21.2403C11.7301 20.7021 11.548 20.2509 11.1839 19.8867C10.8198 19.5226 10.3686 19.3406 9.83029 19.3406C9.29202 19.3406 8.84082 19.5226 8.4767 19.8867C8.11257 20.2509 7.93051 20.7021 7.93051 21.2403C7.93051 21.7786 8.11257 22.2298 8.4767 22.5939C8.84082 22.958 9.29202 23.1401 9.83029 23.1401ZM9.83029 17.4408C10.3686 17.4408 10.8198 17.2587 11.1839 16.8946C11.548 16.5305 11.7301 16.0793 11.7301 15.541C11.7301 15.0027 11.548 14.5515 11.1839 14.1874C10.8198 13.8233 10.3686 13.6412 9.83029 13.6412C9.29202 13.6412 8.84082 13.8233 8.4767 14.1874C8.11257 14.5515 7.93051 15.0027 7.93051 15.541C7.93051 16.0793 8.11257 16.5305 8.4767 16.8946C8.84082 17.2587 9.29202 17.4408 9.83029 17.4408ZM9.83029 11.7415C10.3686 11.7415 10.8198 11.5594 11.1839 11.1953C11.548 10.8312 11.7301 10.38 11.7301 9.84168C11.7301 9.30342 11.548 8.85222 11.1839 8.4881C10.8198 8.12397 10.3686 7.94191 9.83029 7.94191C9.29202 7.94191 8.84082 8.12397 8.4767 8.4881C8.11257 8.85222 7.93051 9.30342 7.93051 9.84168C7.93051 10.38 8.11257 10.8312 8.4767 11.1953C8.84082 11.5594 9.29202 11.7415 9.83029 11.7415ZM16.9069 22.6652H23.5562C23.9599 22.6652 24.2983 22.5278 24.5713 22.2531C24.8444 21.9784 24.981 21.6381 24.981 21.232C24.981 20.8259 24.8444 20.4883 24.5713 20.2192C24.2983 19.9501 23.9599 19.8155 23.5562 19.8155H16.9069C16.5032 19.8155 16.1648 19.9528 15.8918 20.2275C15.6187 20.5022 15.4821 20.8426 15.4821 21.2486C15.4821 21.6547 15.6187 21.9923 15.8918 22.2615C16.1648 22.5306 16.5032 22.6652 16.9069 22.6652ZM16.9069 16.9658H29.303C29.7067 16.9658 30.0451 16.8285 30.3182 16.5538C30.5913 16.2791 30.7278 15.9387 30.7278 15.5327C30.7278 15.1266 30.5913 14.789 30.3182 14.5199C30.0451 14.2507 29.7067 14.1162 29.303 14.1162H16.9069C16.5032 14.1162 16.1648 14.2535 15.8918 14.5282C15.6187 14.8029 15.4821 15.1433 15.4821 15.5493C15.4821 15.9554 15.6187 16.293 15.8918 16.5621C16.1648 16.8313 16.5032 16.9658 16.9069 16.9658ZM16.9069 11.2665H29.303C29.7067 11.2665 30.0451 11.1292 30.3182 10.8545C30.5913 10.5798 30.7278 10.2394 30.7278 9.83337C30.7278 9.4273 30.5913 9.08969 30.3182 8.82056C30.0451 8.55142 29.7067 8.41685 29.303 8.41685H16.9069C16.5032 8.41685 16.1648 8.55419 15.8918 8.82887C15.6187 9.10357 15.4821 9.44395 15.4821 9.85C15.4821 10.2561 15.6187 10.5937 15.8918 10.8628C16.1648 11.1319 16.5032 11.2665 16.9069 11.2665ZM7.5991 30.9756L2.76294 35.8118C2.25149 36.3232 1.66314 36.4412 0.997904 36.1656C0.332634 35.8901 0 35.398 0 34.6895V3.24719C0 2.37022 0.320824 1.60979 0.962473 0.965894C1.60415 0.321966 2.36193 0 3.23579 0H35.3275C36.2045 0 36.9649 0.321966 37.6088 0.965894C38.2528 1.60979 38.5747 2.37022 38.5747 3.24719V27.7398C38.5747 28.6137 38.2528 29.3715 37.6088 30.0132C36.9649 30.6548 36.2045 30.9756 35.3275 30.9756H7.5991ZM3.23579 27.7398H35.3275V3.24719H3.23579V27.7398Z" fill="#F98577"/>
</svg>
