<svg width="68" height="60" viewBox="0 0 68 60" fill="none" xmlns="http://www.w3.org/2000/svg">
<path d="M33.903 59.3588L30.4389 56.366C24.4684 51.1352 19.5399 46.619 15.6534 42.8173C11.7669 39.0156 8.66896 35.6184 6.3596 32.6255C4.05024 29.6327 2.43087 26.923 1.50149 24.4963C0.572111 22.0697 0.107422 19.6161 0.107422 17.1356C0.107422 12.2823 1.81128 8.2245 5.219 4.96204C8.62672 1.69959 12.8371 0.0683594 17.8501 0.0683594C21.0607 0.0683594 24.0319 0.796346 26.7637 2.25232C29.4955 3.70829 31.8752 5.81136 33.903 8.56153C36.2687 5.64959 38.7752 3.50607 41.4225 2.13099C44.0698 0.755902 46.9143 0.0683594 49.9559 0.0683594C54.9689 0.0683594 59.1792 1.69959 62.5869 4.96204C65.9947 8.2245 67.6985 12.2823 67.6985 17.1356C67.6985 19.6161 67.2338 22.0697 66.3045 24.4963C65.3751 26.923 63.7557 29.6327 61.4463 32.6255C59.137 35.6184 56.0391 39.0156 52.1526 42.8173C48.2661 46.619 43.3376 51.1352 37.367 56.366L33.903 59.3588Z" fill="#F98577"/>
</svg>
