<svg width="30" height="30" viewBox="0 0 30 30" fill="none" xmlns="http://www.w3.org/2000/svg">
<path d="M16.722 29.2992C14.0077 29.2992 11.7539 28.3675 9.9605 26.504C8.16713 24.6406 7.27044 22.4152 7.27044 19.8278V18.5816C5.21048 18.3205 3.48375 17.4219 2.09025 15.8858C0.69675 14.3497 0 12.5422 0 10.4633V2.27387H4.36226V0.849609H6.5434V5.83451H4.36226V4.41025H2.18113V10.4518C2.18113 12.1449 2.78094 13.5789 3.98057 14.7539C5.18019 15.9289 6.64033 16.5164 8.361 16.5164C10.0817 16.5164 11.5418 15.9289 12.7414 14.7539C13.9411 13.5789 14.5409 12.1449 14.5409 10.4518V4.41025H12.3597V5.83451H10.1786V0.849609H12.3597V2.27387H16.722V10.4633C16.722 12.5422 16.0253 14.3497 14.6318 15.8858C13.2383 17.4219 11.5115 18.3205 9.45157 18.5816V19.8278C9.45157 21.8455 10.1362 23.5725 11.5055 25.0086C12.8747 26.4447 14.6136 27.1628 16.722 27.1628C18.685 27.1628 20.3875 26.4488 21.8295 25.021C23.2715 23.5931 23.9924 21.8593 23.9924 19.8195V17.0861C23.1442 16.8488 22.4475 16.3859 21.9022 15.6975C21.3569 15.0091 21.0843 14.2139 21.0843 13.3119C21.0843 12.2239 21.4735 11.2991 22.2518 10.5375C23.0302 9.77594 23.9753 9.39516 25.0873 9.39516C26.1992 9.39516 27.143 9.77594 27.9185 10.5375C28.694 11.2991 29.0818 12.2239 29.0818 13.3119C29.0818 14.2139 28.8091 15.0091 28.2638 15.6975C27.7185 16.3859 27.0218 16.8488 26.1736 17.0861V19.8278C26.1736 22.4627 25.2466 24.7 23.3926 26.5397C21.5387 28.3793 19.3151 29.2992 16.722 29.2992ZM25.0767 15.0922C25.5898 15.0922 26.0221 14.9222 26.3735 14.5821C26.7249 14.2421 26.9006 13.8208 26.9006 13.3181C26.9006 12.8154 26.727 12.392 26.3799 12.0478C26.0327 11.7036 25.6026 11.5315 25.0894 11.5315C24.5762 11.5315 24.1439 11.7016 23.7925 12.0416C23.4411 12.3816 23.2654 12.803 23.2654 13.3056C23.2654 13.8083 23.439 14.2317 23.7862 14.5759C24.1333 14.9201 24.5635 15.0922 25.0767 15.0922Z" fill="#FEFEFE"/>
</svg>
