<svg width="26" height="20" viewBox="0 0 26 20" fill="none" xmlns="http://www.w3.org/2000/svg">
<path d="M1.97371 20C1.4351 20 0.971502 19.8107 0.582915 19.432C0.194305 19.0534 0 18.6017 0 18.0769V1.92311C0 1.3983 0.194305 0.946592 0.582915 0.567969C0.971502 0.189323 1.4351 0 1.97371 0H24.0263C24.5649 0 25.0285 0.189323 25.4171 0.567969C25.8057 0.946592 26 1.3983 26 1.92311V18.0769C26 18.6017 25.8057 19.0534 25.4171 19.432C25.0285 19.8107 24.5649 20 24.0263 20H1.97371ZM13 10.2025L24.4474 2.82048L24.2369 1.51281L13 8.61283L1.76315 1.51281L1.55261 2.82048L13 10.2025Z" fill="#7AB8AD"/>
</svg>
