<svg width="20" height="26" viewBox="0 0 20 26" fill="none" xmlns="http://www.w3.org/2000/svg">
<path d="M10.0062 12.5594C10.5999 12.5594 11.1062 12.3412 11.5248 11.9047C11.9435 11.4682 12.1529 10.9434 12.1529 10.3305C12.1529 9.71752 11.9415 9.19492 11.5186 8.76269C11.0958 8.33044 10.5875 8.11432 9.99381 8.11432C9.40005 8.11432 8.89384 8.33257 8.47517 8.76909C8.05647 9.2056 7.84713 9.73033 7.84713 10.3433C7.84713 10.9563 8.05854 11.4789 8.48136 11.9111C8.90419 12.3433 9.41246 12.5594 10.0062 12.5594ZM10 26C6.66583 23.0173 4.16561 20.2415 2.49935 17.6727C0.833118 15.1038 0 12.7453 0 10.5973C0 7.44099 0.988964 4.88572 2.96689 2.93143C4.9448 0.977144 7.28917 0 10 0C12.7108 0 15.0552 0.977144 17.0331 2.93143C19.011 4.88572 20 7.44099 20 10.5973C20 12.7453 19.1669 15.1038 17.5006 17.6727C15.8344 20.2415 13.3342 23.0173 10 26Z" fill="#7AB8AD"/>
</svg>
