<svg width="23" height="23" viewBox="0 0 23 23" fill="none" xmlns="http://www.w3.org/2000/svg">
<path d="M21.4909 23C19.0921 23 16.6186 22.3946 14.0706 21.1839C11.5225 19.9732 9.14363 18.263 6.93384 16.0532C4.73271 13.8434 3.0268 11.4666 1.81609 8.92291C0.605364 6.37921 0 3.90794 0 1.50908C0 1.0893 0.144404 0.732845 0.433213 0.439707C0.722022 0.146569 1.0763 0 1.49605 0H5.35969C5.71008 0 6.00669 0.114921 6.24952 0.344764C6.49235 0.574584 6.66321 0.871624 6.76209 1.23588L7.57125 4.87317C7.61635 5.2062 7.60421 5.50888 7.53482 5.7812C7.46544 6.05353 7.33621 6.27989 7.14714 6.46028L3.94691 9.57726C4.55053 10.6128 5.18798 11.572 5.85927 12.4549C6.53053 13.3378 7.25643 14.1669 8.03697 14.9422C8.87996 15.8077 9.77673 16.5978 10.7273 17.3125C11.6778 18.0271 12.6951 18.6767 13.7792 19.2612L16.8493 16.1027C17.0748 15.8546 17.3255 15.6877 17.6013 15.6018C17.8771 15.5159 18.1702 15.4955 18.4807 15.5406L21.7641 16.2639C22.1284 16.3455 22.4254 16.528 22.6552 16.8116C22.8851 17.0952 23 17.4192 23 17.7834V21.5039C23 21.9237 22.8534 22.278 22.5603 22.5668C22.2672 22.8556 21.9107 23 21.4909 23Z" fill="#7AB8AD"/>
</svg>
