<svg width="70" height="90" viewBox="0 0 70 90" fill="none" xmlns="http://www.w3.org/2000/svg">
<path d="M17.4282 70.7968H52.5718V65.4657H17.4282V70.7968ZM17.4282 51.1435H52.5718V45.8125H17.4282V51.1435ZM6.73087 89.2754C4.90083 89.2754 3.32151 88.6065 1.9929 87.2688C0.664301 85.931 0 84.3409 0 82.4983V6.77707C0 4.93447 0.664301 3.34431 1.9929 2.00659C3.32151 0.668866 4.90083 0 6.73087 0H47.277L70 22.879V82.4983C70 84.3409 69.3357 85.931 68.0071 87.2688C66.6785 88.6065 65.0992 89.2754 63.2691 89.2754H6.73087ZM44.6296 25.2825V5.33117H6.73087C6.37185 5.33117 6.04273 5.48176 5.74352 5.78295C5.44438 6.08421 5.29482 6.41559 5.29482 6.77707V82.4983C5.29482 82.8598 5.44438 83.1911 5.74352 83.4924C6.04273 83.7936 6.37185 83.9442 6.73087 83.9442H63.2691C63.6282 83.9442 63.9573 83.7936 64.2565 83.4924C64.5556 83.1911 64.7052 82.8598 64.7052 82.4983V25.2825H44.6296Z" fill="#58BBB4"/>
</svg>
