<svg width="22" height="14" viewBox="0 0 22 14" fill="none" xmlns="http://www.w3.org/2000/svg">
<path d="M11.0055 10.8942C12.1382 10.8942 13.1029 10.5136 13.8996 9.75249C14.6963 8.99132 15.0947 8.07209 15.0947 6.9948C15.0947 5.9175 14.6945 5 13.8942 4.24232C13.0938 3.48463 12.1273 3.10579 10.9945 3.10579C9.86178 3.10579 8.89706 3.48636 8.10037 4.24752C7.30369 5.00869 6.90535 5.92791 6.90535 7.0052C6.90535 8.0825 7.30551 9 8.10584 9.75768C8.90619 10.5154 9.87273 10.8942 11.0055 10.8942ZM10.992 9.77116C10.1804 9.77116 9.49323 9.50101 8.93041 8.96071C8.36761 8.42039 8.08621 7.76429 8.08621 6.99242C8.08621 6.22056 8.37026 5.56699 8.93837 5.03172C9.5065 4.49647 10.1964 4.22884 11.008 4.22884C11.8196 4.22884 12.5068 4.49899 13.0696 5.03929C13.6324 5.57961 13.9138 6.23571 13.9138 7.00758C13.9138 7.77944 13.6297 8.43301 13.0616 8.96828C12.4935 9.50353 11.8036 9.77116 10.992 9.77116ZM11.0014 14C8.59019 14 6.40117 13.358 4.43438 12.074C2.46758 10.7901 0.989455 9.09871 0 7C0.989455 4.90129 2.4671 3.20995 4.43294 1.92596C6.39876 0.641986 8.58729 0 10.9986 0C13.4098 0 15.5988 0.641986 17.5656 1.92596C19.5324 3.20995 21.0105 4.90129 22 7C21.0105 9.09871 19.5329 10.7901 17.5671 12.074C15.6012 13.358 13.4127 14 11.0014 14Z" fill="#58BBB4"/>
</svg>
