<svg width="17" height="28" viewBox="0 0 17 28" fill="none" xmlns="http://www.w3.org/2000/svg">
<path d="M14.2991 27.5979L0.357474 14.7676C0.225075 14.6458 0.132396 14.5239 0.0794363 14.4021C0.0264768 14.2802 -2.88564e-06 14.1462 -2.85581e-06 14C-2.82598e-06 13.8538 0.0264769 13.7198 0.0794365 13.5979C0.132396 13.4761 0.225075 13.3542 0.357474 13.2324L14.2991 0.402091C14.5903 0.134032 14.9611 2.24218e-06 15.4112 2.30964e-06C15.8614 2.37711e-06 16.2321 0.134032 16.5234 0.402091C16.8411 0.69452 17 1.04178 17 1.44387C17 1.84596 16.8411 2.19321 16.5234 2.48564L4.01168 14L16.5234 25.5144C16.8411 25.8068 16.9934 26.154 16.9801 26.5561C16.9669 26.9582 16.8146 27.2933 16.5234 27.5614C16.2056 27.8538 15.8283 28 15.3914 28C14.9544 28 14.5903 27.866 14.2991 27.5979V27.5979Z" fill="#7AB8AD"/>
</svg>
