<svg width="17" height="28" viewBox="0 0 17 28" fill="none" xmlns="http://www.w3.org/2000/svg">
<path d="M2.70094 0.402089L16.6425 13.2324C16.7749 13.3542 16.8676 13.4761 16.9206 13.5979C16.9735 13.7198 17 13.8538 17 14C17 14.1462 16.9735 14.2802 16.9206 14.4021C16.8676 14.5239 16.7749 14.6458 16.6425 14.7676L2.70093 27.5979C2.40965 27.866 2.03894 28 1.58878 28C1.13862 28 0.767907 27.866 0.47663 27.5979C0.158873 27.3055 -5.83068e-06 26.9582 -5.71351e-06 26.5561C-5.59634e-06 26.154 0.158873 25.8068 0.476631 25.5144L12.9883 14L0.476637 2.48564C0.15888 2.19321 0.00662112 1.84595 0.0198611 1.44386C0.0331011 1.04177 0.18536 0.706701 0.476638 0.438641C0.794395 0.146213 1.17173 -2.27954e-06 1.60865 -2.17586e-06C2.04556 -2.07219e-06 2.40966 0.13403 2.70094 0.402089V0.402089Z" fill="#7AB8AD"/>
</svg>
