<svg width="50" height="50" viewBox="0 0 50 50" fill="none" xmlns="http://www.w3.org/2000/svg">
<rect x="1.5" y="1.5" width="47" height="47" rx="23.5" stroke="#58BBB4" stroke-width="3"/>
<mask id="mask0_7_67" style="mask-type:alpha" maskUnits="userSpaceOnUse" x="8" y="7" width="35" height="35">
<rect x="8" y="7" width="35" height="35" fill="#D9D9D9"/>
</mask>
<g mask="url(#mask0_7_67)">
<path d="M18.2083 37.625V34.7083H24.0417V30.1875C22.8507 29.9201 21.7873 29.4158 20.8516 28.6745C19.9158 27.9332 19.2292 27.0035 18.7917 25.8854C16.9688 25.6667 15.4436 24.8707 14.2161 23.4974C12.9887 22.1241 12.375 20.5139 12.375 18.6667V17.2083C12.375 16.4063 12.6606 15.7196 13.2318 15.1484C13.803 14.5773 14.4896 14.2917 15.2917 14.2917H18.2083V11.375H32.7917V14.2917H35.7083C36.5104 14.2917 37.197 14.5773 37.7682 15.1484C38.3394 15.7196 38.625 16.4063 38.625 17.2083V18.6667C38.625 20.5139 38.0113 22.1241 36.7839 23.4974C35.5564 24.8707 34.0313 25.6667 32.2083 25.8854C31.7708 27.0035 31.0842 27.9332 30.1484 28.6745C29.2127 29.4158 28.1493 29.9201 26.9583 30.1875V34.7083H32.7917V37.625H18.2083ZM18.2083 22.75V17.2083H15.2917V18.6667C15.2917 19.5903 15.559 20.4227 16.0938 21.1641C16.6285 21.9054 17.3333 22.434 18.2083 22.75ZM25.5 27.4167C26.7153 27.4167 27.7483 26.9913 28.599 26.1406C29.4497 25.2899 29.875 24.2569 29.875 23.0417V14.2917H21.125V23.0417C21.125 24.2569 21.5503 25.2899 22.401 26.1406C23.2517 26.9913 24.2847 27.4167 25.5 27.4167ZM32.7917 22.75C33.6667 22.434 34.3715 21.9054 34.9063 21.1641C35.441 20.4227 35.7083 19.5903 35.7083 18.6667V17.2083H32.7917V22.75Z" fill="#58BBB4"/>
</g>
</svg>
