<svg width="469" height="161" viewBox="0 0 469 161" fill="none" xmlns="http://www.w3.org/2000/svg">
<g clip-path="url(#clip0_203_1858)">
<path d="M245.504 66.3044H235.796L231.777 54.2714H212.378L208.429 66.3044H200.689L217.424 15.7395H228.598L245.504 66.3044ZM229.339 46.9741L221.999 24.4245L214.659 46.9741H229.339Z" fill="#47BFA4"/>
<path d="M247.541 51.5094L255.879 50.0786C257.105 56.479 260.905 59.6793 267.281 59.6793C270.745 59.6793 273.268 58.8781 274.821 57.2898C275.592 56.5081 276.198 55.5776 276.598 54.5544C277 53.5313 277.191 52.437 277.16 51.3377C277.16 46.0628 274.261 43.4253 268.465 43.4253H264.075V36.8292H268.051C270.208 36.9412 272.325 36.2308 273.981 34.8404C274.713 34.1626 275.288 33.3325 275.668 32.4082C276.046 31.484 276.219 30.4878 276.176 29.4893C276.214 28.478 276.009 27.4726 275.578 26.5583C275.145 25.6441 274.5 24.8481 273.696 24.2381C271.824 22.877 269.548 22.1958 267.24 22.3065C261.242 22.3065 257.764 25.0728 256.806 30.6052L248.766 29.389C250.477 19.7739 256.771 14.9712 267.652 14.9807C273.125 14.9807 277.474 16.2589 280.694 18.8153C282.195 19.9132 283.413 21.354 284.248 23.0187C285.084 24.6831 285.513 26.5236 285.498 28.3874C285.498 33.9104 282.462 37.5971 276.391 39.4476C283.44 40.9356 286.971 44.8991 286.98 51.3377C286.999 53.4497 286.562 55.5409 285.695 57.4656C284.828 59.3904 283.556 61.1028 281.963 62.4838C278.618 65.5457 273.81 67.0766 267.539 67.0766C261.495 67.0766 256.744 65.6459 253.284 62.7842C251.617 61.3924 250.25 59.6757 249.262 57.7377C248.274 55.7997 247.689 53.6809 247.541 51.5094Z" fill="#47BFA4"/>
<path d="M295.89 66.3044V15.7395H327.417V23.0795H305.026V36.2575H313.734C317.248 36.1543 320.758 36.5395 324.168 37.402C326.786 38.2198 329.023 39.957 330.468 42.2955C332.142 44.9328 332.996 48.0114 332.919 51.1378C332.996 53.1617 332.658 55.18 331.921 57.0659C331.185 58.9519 330.07 60.6651 328.644 62.098C325.793 64.8927 321.659 66.2901 316.242 66.2901L295.89 66.3044ZM305.026 58.4492H315.174C320.876 58.4492 323.726 55.9025 323.726 50.8231C323.791 48.8998 323.117 47.0247 321.845 45.5862C320.591 44.1555 318.068 43.4972 314.276 43.4972H305.026V58.4492Z" fill="#47BFA4"/>
<path d="M352.489 51.5098L334.602 15.7395H344.409L356.794 41.3224L366.985 15.7395H375.538L359.858 53.7705C357.854 58.664 355.787 61.9739 353.659 63.7004C351.548 65.4173 348.485 66.2901 344.479 66.2901H341.087V58.4492H344.479C346.148 58.5845 347.813 58.1563 349.211 57.233C350.363 56.1558 351.237 54.8159 351.763 53.3271L352.489 51.5098Z" fill="#47BFA4"/>
<path d="M420.15 66.3044H410.003L399.383 40.5498L389.648 53.513V66.2901H380.569V15.7395H389.648V42.3098C390.803 40.5069 391.645 39.262 392.157 38.561L408.862 15.7395H418.056L406.098 32.3656L420.15 66.3044Z" fill="#47BFA4"/>
<path d="M467.202 66.3044H457.539L453.518 54.2714H434.119L430.172 66.3044H422.418L439.138 15.7395H450.312L467.202 66.3044ZM451.039 46.9741L443.699 24.4245L436.357 46.9741H451.039Z" fill="#47BFA4"/>
<path d="M74.3177 87.9237H74.0184C68.83 87.9237 64.5967 83.3166 64.383 77.4216C64.2689 74.6587 65.1379 71.9453 66.8346 69.7667C67.6404 68.7262 68.6622 67.8736 69.8287 67.2683C70.9952 66.6632 72.2788 66.3195 73.5907 66.2612H73.8472C79.0783 66.2612 83.3258 70.8685 83.4968 76.7635C83.6166 79.5341 82.7304 82.2543 81.0025 84.4182C80.2026 85.4437 79.1907 86.2829 78.0367 86.8783C76.8828 87.4736 75.6139 87.8106 74.3177 87.8665V87.9237ZM73.7046 70.01C72.9276 70.0505 72.1685 70.2595 71.4796 70.6225C70.7907 70.9856 70.1882 71.4943 69.7137 72.1133C68.5941 73.5887 68.0243 75.4111 68.103 77.2642C68.2171 81.013 70.9538 84.1751 74.0184 84.1751H74.2036C77.3964 84.0749 79.9051 80.7983 79.8052 76.8778C79.7054 72.9574 76.9545 70.01 73.8472 70.01H73.7046Z" fill="#F78674"/>
<path d="M112.133 46.2589H111.805C105.548 46.2589 100.402 40.693 100.174 33.5819C100.05 30.2401 101.105 26.9617 103.153 24.3245C104.111 23.0651 105.335 22.0345 106.738 21.3071C108.14 20.5798 109.686 20.1736 111.263 20.1179H111.619C117.848 20.1179 122.937 25.6838 123.193 32.795C123.45 39.9061 118.49 46.0442 112.147 46.2732L112.133 46.2589ZM111.605 23.8524H111.349C110.31 23.9121 109.298 24.1992 108.382 24.6936C107.466 25.188 106.669 25.8776 106.047 26.714C104.55 28.6381 103.805 31.0449 103.951 33.4816C104.108 38.4895 107.629 42.553 111.805 42.553H112.004C116.28 42.4099 119.616 38.1032 119.459 32.9523C119.302 27.8014 115.782 23.8953 111.605 23.8953V23.8524Z" fill="#F78674"/>
<path d="M79.2924 55.8877C78.8713 55.8881 78.4619 55.7477 78.1288 55.4887C77.7958 55.2296 77.5583 54.8666 77.4538 54.4568L75.8146 47.1597C74.9678 48.6322 73.7681 49.8694 72.3245 50.7589C70.881 51.6484 69.239 52.1621 67.5475 52.2535H67.234C65.5094 52.2139 63.8224 51.7397 62.328 50.8747C60.8337 50.0096 59.5798 48.7813 58.6818 47.3028L57.1567 54.4568C57.0507 54.9366 56.7613 55.3554 56.3508 55.6229C55.9403 55.8904 55.4415 55.9856 54.9618 55.8877C54.4893 55.7716 54.0789 55.4789 53.814 55.0695C53.5491 54.66 53.4498 54.1647 53.5363 53.6842L57.0142 37.101C58.2544 31.8356 62.2025 28.1871 66.8207 28.0154H67.1485C72.1373 28.0154 76.5273 32.2363 77.6105 38.031L81.1313 53.5983C81.2295 54.0835 81.1356 54.5878 80.8694 55.0046C80.6035 55.4214 80.1859 55.7175 79.7058 55.8304H79.5633H79.2782L79.2924 55.8877ZM60.3496 40.5207C60.5064 44.8847 63.5851 48.4617 67.2055 48.4617H67.4194C71.1823 48.333 74.1754 44.4555 74.0329 39.8769C74.0329 39.2186 73.919 38.5748 73.919 38.5748C73.192 34.6401 70.3271 31.707 67.1057 31.707H66.9918C64.0554 31.8213 61.5041 34.3682 60.6774 38.031C60.454 38.8418 60.3437 39.6796 60.3496 40.5207Z" fill="#F78674"/>
<path d="M128.425 97.2955C128.559 97.7888 128.74 98.2678 128.966 98.7264C129.556 99.8165 130.418 100.734 131.467 101.389C132.517 102.043 133.718 102.413 134.953 102.461C135.737 102.459 136.515 102.313 137.247 102.032C138.604 101.56 139.736 100.598 140.424 99.3333C141.112 98.0688 141.305 96.5925 140.968 95.1924C139.856 89.6693 133.841 64.7017 131.974 59.422C129.878 53.3839 127.27 51.3378 115.197 50.3363C115.197 50.3363 113.287 50.2075 112.147 50.2075C111.007 50.2075 109.211 50.3077 109.211 50.3077C97.5229 51.2949 93.7029 53.3696 91.4508 59.9227C91.0232 61.1532 90.2677 63.7286 89.0562 68.0212C89.0562 68.0212 88.315 70.5538 88.0728 71.4121L87.1035 68.4362C86.4621 66.4043 85.9206 64.7588 85.6782 63.8431C83.7397 58.3346 81.402 56.4601 70.427 55.5444C70.427 55.5444 68.6737 55.4301 67.5762 55.4301C66.4786 55.4301 65.0249 55.5301 65.0249 55.5301C58.3398 56.0882 54.691 57.0468 52.3106 58.9927C51.9994 57.8199 51.4261 56.7336 50.6347 55.8161C49.8432 54.8988 48.854 54.1741 47.7421 53.6972C46.6303 53.2204 45.4248 53.0039 44.2173 53.0639C43.0097 53.124 41.8315 53.459 40.772 54.044C39.7128 54.6289 38.7997 55.448 38.1024 56.4395C37.4052 57.4312 36.9419 58.5688 36.7474 59.7669C36.5532 60.9649 36.633 62.1913 36.9808 63.3538C37.3288 64.5161 37.9357 65.5837 38.7555 66.4759C36.5463 68.6793 34.8216 73.0862 34.4795 77.5647C34.1088 82.3006 35.3204 86.1496 37.9147 88.5534C38.9764 89.5172 40.2516 90.2137 41.6347 90.5851C41.8591 90.6903 42.1005 90.7533 42.3474 90.771C42.6325 90.771 45.8537 90.8855 49.6596 90.9715H50.6714L44.7136 116.569C44.6508 116.845 44.6528 117.133 44.7197 117.408C44.7864 117.684 44.9161 117.94 45.0983 118.157C45.2733 118.367 45.4912 118.537 45.737 118.655C45.9828 118.774 46.2511 118.838 46.5238 118.844H51.9259L50.8996 147.946L54.6198 148.304L55.7315 117.012C55.7279 116.507 55.5273 116.024 55.173 115.666C54.8187 115.307 54.3387 115.102 53.8357 115.095H48.8755L54.1637 91.0572H55.6746C57.3202 91.0829 58.9662 91.0257 60.6061 90.8855C61.695 90.8016 62.7148 90.317 63.4697 89.5248C64.2245 88.7326 64.6616 87.6887 64.6971 86.5932C64.701 85.3473 64.2464 84.144 63.4203 83.2143C62.594 82.2847 61.4547 81.6942 60.2214 81.5566C60.0504 81.5566 59.466 81.428 58.6678 81.2561C56.6864 80.8556 55.703 80.6694 54.8335 80.5265C54.9685 79.8603 55.0638 79.1866 55.1186 78.509C55.547 78.6819 55.9847 78.8299 56.43 78.9525C56.8427 79.0379 57.2629 79.081 57.6842 79.0813C58.6905 79.1888 59.7002 78.9127 60.5132 78.3078C61.3261 77.7031 61.8827 76.8134 62.0729 75.8157C62.2632 74.8181 62.0729 73.7852 61.5396 72.9217C61.0066 72.0583 60.1699 71.4277 59.1951 71.1547C56.7293 70.1245 53.793 68.8652 51.5125 67.8781C51.7976 67.0052 52.0542 66.2183 52.2964 65.5458C53.5079 62.0546 54.634 60.1803 65.1245 59.2932C65.1245 59.2932 66.3647 59.2932 67.3908 59.2932C68.4171 59.2932 69.9708 59.2932 69.9708 59.2932C80.3759 60.1803 80.8463 61.5253 82.0578 65.1022C82.4141 66.1181 83.0698 68.1357 83.8537 70.5681L84.7944 73.4297C85.2363 74.8604 85.6924 76.2913 86.2199 77.7221L85.4216 80.2689L84.8087 82.2292C82.9273 86.6503 80.7607 88.4675 77.5252 88.6677C74.8455 88.8251 73.9333 88.7965 72.1658 88.8824C62.7157 89.4834 60.1929 91.2862 58.4397 96.3083C57.7269 98.4259 57.2708 105.766 56.7436 116.941C56.7436 118.128 56.658 119.201 56.5868 120.088C56.4977 121.349 56.8389 122.603 57.5538 123.643C58.2688 124.683 59.3151 125.448 60.5207 125.812C60.9565 125.94 61.4066 126.012 61.8606 126.026L60.4351 148.805L64.1411 149.163L65.5664 124.481C66.082 124.008 66.5155 123.452 66.8493 122.836C66.968 122.621 67.0437 122.386 67.072 122.142C67.1001 121.899 67.0801 121.652 67.0133 121.416C66.9464 121.18 66.834 120.96 66.6824 120.768C66.5307 120.576 66.3429 120.415 66.1295 120.296C65.916 120.177 65.6813 120.101 65.4388 120.072C65.196 120.044 64.9502 120.064 64.7154 120.131C64.4804 120.198 64.2609 120.311 64.0696 120.463C63.878 120.616 63.7183 120.804 63.5994 121.018C63.0579 121.991 62.3594 122.449 61.4614 122.206C61.0583 122.073 60.7137 121.803 60.4874 121.443C60.261 121.082 60.167 120.654 60.2214 120.231V119.158C60.2214 118.515 60.3068 117.799 60.3355 117.055C60.8628 105.451 61.3758 98.8552 61.8463 97.4816C62.9153 94.391 63.8133 93.0891 71.4817 92.531C72.3939 92.531 75.5582 92.4165 77.4823 92.302C84.7088 91.8586 87.0323 86.1782 88.0157 83.8458L88.1724 83.4453C89.5979 79.1528 91.3083 73.215 92.4486 69.0371C93.5888 64.8591 94.4156 62.2693 94.8005 61.1246C96.2258 57.147 97.4943 55.0294 109.268 53.9706C109.268 53.9706 110.693 53.8561 111.819 53.8561C112.945 53.8561 114.67 53.9706 114.67 53.9706C126.329 54.972 126.914 56.6175 128.325 60.581C129.893 65.1881 135.808 89.2829 137.162 95.8934C137.296 96.4223 137.223 96.9827 136.958 97.4592C136.693 97.9357 136.256 98.2919 135.736 98.4545C135.426 98.5678 135.098 98.6258 134.767 98.6262C134.213 98.6173 133.673 98.4549 133.205 98.1569C132.737 97.859 132.36 97.4371 132.116 96.9379C132.016 96.6803 131.674 95.6931 131.261 94.4626L130.477 92.1876C129.522 89.326 128.425 86.078 127.826 84.4613C127.688 84.0354 127.397 83.6765 127.009 83.4544C126.622 83.2322 126.166 83.1626 125.731 83.2594C125.296 83.3435 124.904 83.579 124.625 83.9245C124.346 84.2701 124.197 84.7033 124.205 85.148L125.773 147.703L129.494 147.346L128.425 97.2955ZM44.4854 56.1453C45.4638 56.1025 46.4326 56.3546 47.2668 56.8695C48.1011 57.3843 48.7627 58.1379 49.1665 59.0336C49.5702 59.9292 49.6974 60.9256 49.532 61.8945C49.3664 62.8634 48.9157 63.7605 48.2379 64.4698C47.56 65.1793 46.6859 65.6688 45.7285 65.875C44.771 66.0814 43.774 65.9953 42.8657 65.6277C41.9575 65.2599 41.1797 64.6279 40.6326 63.8126C40.0854 62.9973 39.7942 62.0361 39.796 61.0531C39.7829 60.4218 39.8937 59.7939 40.1222 59.2056C40.3507 58.6171 40.6924 58.0797 41.128 57.624C41.5633 57.1683 42.0841 56.8031 42.6601 56.5495C43.2362 56.2957 43.8565 56.1584 44.4854 56.1453ZM41.9627 87.1511C41.3159 86.9079 40.7209 86.5438 40.2094 86.078C39.266 85.1955 38.5976 84.0573 38.2852 82.8015H47.7211L41.9627 87.1511ZM57.9551 84.6186L58.8246 84.7903L59.6227 84.962C60.7773 85.148 61.1763 85.8634 61.1621 86.3927C61.1621 86.6597 61.0574 86.9161 60.8707 87.1062C60.684 87.2961 60.4303 87.4049 60.1643 87.4087C58.1124 87.5908 56.0525 87.6673 53.9925 87.6377C51.883 87.6377 49.4457 87.6377 47.1794 87.5089L52.4674 83.5311C53.793 83.803 56.4869 84.3325 57.9551 84.6186ZM57.7983 74.3166C58.5109 74.6171 58.6678 75.0607 58.5965 75.2754C58.5253 75.4899 57.7983 75.719 57.1712 75.6045C56.5439 75.4899 50.3436 72.7428 49.745 72.4852C49.3786 72.2616 48.9459 72.1735 48.5217 72.2361C48.0973 72.2989 47.7083 72.5084 47.4217 72.8287C47.2687 73.0002 47.1539 73.2025 47.0851 73.4221C47.0163 73.6417 46.995 73.8736 47.0226 74.1021C47.0442 74.3344 47.1152 74.5592 47.2307 74.7616C47.3462 74.9641 47.5037 75.1392 47.6926 75.2754C48.0773 75.5616 50.6572 76.7061 51.6265 77.0782C51.6974 77.8447 51.6444 78.6179 51.4698 79.3675H37.8433C37.8127 78.8624 37.8127 78.3559 37.8433 77.8509C38.1997 73.1578 40.181 69.4519 41.5066 68.5505C42.6783 69.053 43.963 69.2308 45.2266 69.0657H45.298C47.3646 69.9098 53.793 72.6426 57.7983 74.3166Z" fill="#F78674"/>
<path d="M76.7979 133.81C76.7588 133.342 76.5474 132.905 76.2049 132.585C75.8621 132.264 75.413 132.084 74.9448 132.079H74.3462C73.8766 132.07 73.4219 132.244 73.0766 132.564C72.7315 132.884 72.5227 133.325 72.4933 133.796C72.2082 137.201 70.6546 145.056 69.6426 149.749L73.3628 150.107C73.7333 148.433 74.1894 146.144 74.6455 143.697L76.071 150.364L79.8766 150.736C79.8766 150.736 76.969 136.328 76.7979 133.81Z" fill="#F78674"/>
<path d="M98.3491 150.465L100.502 73.6443C100.514 73.1814 100.353 72.7304 100.052 72.3797C99.7502 72.0291 99.3293 71.8041 98.871 71.7485C98.4129 71.693 97.9507 71.8111 97.5746 72.0797C97.1987 72.3484 96.9361 72.7482 96.8383 73.201C96.3537 74.7605 85.9344 101.96 83.8391 107.111C83.78 107.345 83.7465 107.585 83.7393 107.827L85.35 151.252L87.7446 151.481L89.0844 151.352L87.431 108.084C88.671 104.994 91.9065 96.6377 94.5577 89.6552L95.4984 87.1942C95.812 86.3644 96.1113 85.5918 96.3964 84.8621L94.5435 150.822L98.3491 150.465Z" fill="#F78674"/>
<path d="M109.752 149.363C109.952 147.002 110.266 143.554 110.622 139.605C110.936 136.114 111.278 132.236 111.62 128.416C111.777 126.699 111.933 124.996 112.09 123.337L112.304 125.741C113.102 134.54 113.957 143.955 114.371 148.92L118.119 148.562C117.207 138.804 114.713 111.118 114.342 106.21C114.313 105.735 114.106 105.29 113.762 104.963C113.418 104.636 112.963 104.453 112.489 104.45H111.762C111.297 104.442 110.845 104.614 110.503 104.931C110.16 105.248 109.953 105.686 109.924 106.153C109.824 107.34 109.61 109.673 109.339 112.706C108.954 116.869 108.47 122.364 107.914 128.03C107.287 134.64 106.688 141.379 106.26 146.087L105.933 149.678L109.752 149.363Z" fill="#F78674"/>
<path d="M220.646 111.604H216.07C215.641 110.211 215.393 108.768 215.328 107.312C214.836 108.441 214.086 109.438 213.142 110.225C212.198 111.012 211.082 111.567 209.885 111.845C208.691 112.123 207.445 112.117 206.252 111.826C205.06 111.536 203.949 110.97 203.014 110.173C202.383 109.567 201.886 108.835 201.554 108.024C201.223 107.213 201.064 106.342 201.09 105.466C201.09 100.573 205.366 98.1211 213.917 98.1115H215.342V96.5234C215.342 94.3056 213.917 93.2039 210.839 93.2039C207.759 93.2039 206.249 94.3056 205.863 96.5234L201.76 95.8653C201.888 94.9964 202.198 94.1646 202.67 93.425C203.142 92.6851 203.764 92.0539 204.495 91.5727C206.58 90.2867 209.01 89.6818 211.451 89.8415C212.803 89.8122 214.153 89.9517 215.47 90.2563C216.434 90.4768 217.328 90.9286 218.08 91.5727C218.723 92.1532 219.213 92.8861 219.505 93.7046C219.847 94.9767 219.986 96.2951 219.918 97.6108V107.312C219.957 108.77 220.201 110.215 220.646 111.604ZM215.328 100.73C209.132 100.73 206.031 102.218 206.02 105.194C206.015 105.616 206.094 106.035 206.254 106.426C206.413 106.817 206.649 107.172 206.948 107.469C207.336 107.809 207.788 108.069 208.278 108.231C208.766 108.393 209.284 108.455 209.797 108.414C210.577 108.464 211.356 108.333 212.077 108.03C212.796 107.727 213.436 107.261 213.946 106.668C214.868 105.555 215.373 104.152 215.371 102.705L215.328 100.73Z" fill="white"/>
<path d="M229.853 111.604V93.9908H223.951V90.2422H240.473V93.9908H234.656V111.604H229.853Z" fill="white"/>
<path d="M252.744 112.048C251.355 112.124 249.969 111.853 248.71 111.259C247.45 110.665 246.358 109.765 245.532 108.642C243.882 106.383 243.011 103.645 243.051 100.844C242.966 97.9784 243.947 95.183 245.803 93.0035C246.702 91.9704 247.821 91.1517 249.075 90.6072C250.331 90.0625 251.69 89.8058 253.058 89.8557C254.381 89.8213 255.694 90.0775 256.909 90.6064C258.122 91.1352 259.207 91.9241 260.084 92.9178C261.982 95.1296 262.966 97.9855 262.836 100.902C262.977 103.88 261.953 106.796 259.985 109.029C259.061 110.021 257.938 110.803 256.689 111.324C255.44 111.844 254.096 112.091 252.744 112.048ZM252.916 108.07C256.136 108.07 257.761 105.652 257.761 100.816C257.857 99.0184 257.453 97.2299 256.592 95.6506C256.23 95.0405 255.705 94.5417 255.08 94.2089C254.455 93.8758 253.75 93.7213 253.044 93.7619C252.31 93.7163 251.577 93.8737 250.926 94.2168C250.276 94.5598 249.731 95.0756 249.351 95.7078C248.484 97.2954 248.07 99.0928 248.154 100.902C248.032 102.768 248.473 104.628 249.423 106.239C249.802 106.817 250.321 107.289 250.931 107.61C251.542 107.93 252.225 108.089 252.916 108.07Z" fill="white"/>
<path d="M268.509 111.604V90.2422H285.513V111.604H280.709V93.7334H273.311V111.604H268.509Z" fill="white"/>
<path d="M297.386 109.444V111.604H292.583V90.2422H297.386V99.5281C297.386 100.959 297.386 102.39 297.272 103.992C298.209 102.541 299.222 101.142 300.309 99.8L305.767 93.0036V90.2422H310.57V111.604H305.767V102.833C305.767 101.073 305.767 99.5424 305.909 98.2117C305.041 99.5666 304.088 100.866 303.059 102.104L297.386 109.444Z" fill="white"/>
<path d="M328.786 111.604V103.205C327.215 104.444 325.267 105.101 323.27 105.065C321.56 105.167 319.878 104.597 318.581 103.477C318.001 102.89 317.55 102.186 317.26 101.411C316.97 100.637 316.847 99.8099 316.898 98.9843V90.2422H321.702V98.2976C321.702 100.172 322.756 101.159 324.879 101.159C326.233 101.191 327.573 100.891 328.786 100.286V90.2708H333.533V111.604H328.786Z" fill="white"/>
<path d="M354.171 104.794L358.52 105.38C357.976 107.297 356.819 108.982 355.227 110.174C353.451 111.47 351.292 112.13 349.099 112.048C347.765 112.105 346.437 111.868 345.206 111.354C343.973 110.84 342.871 110.061 341.971 109.072C340.065 106.828 339.095 103.932 339.263 100.988C339.158 98.0717 340.128 95.219 341.986 92.9753C342.896 91.923 344.033 91.0908 345.309 90.5407C346.585 89.9908 347.967 89.7372 349.354 89.7989C350.699 89.7381 352.038 89.9968 353.265 90.5538C354.49 91.1106 355.568 91.9501 356.41 93.0038C358.141 95.3152 359.023 98.156 358.904 101.045V101.589H344.28C344.24 102.767 344.379 103.944 344.694 105.08C345.013 105.975 345.595 106.753 346.361 107.312C347.239 107.973 348.315 108.311 349.412 108.271C350.481 108.319 351.533 108.001 352.398 107.369C353.263 106.737 353.888 105.829 354.171 104.794ZM353.887 98.4124C353.914 97.0203 353.404 95.6719 352.461 94.6493C352.034 94.1962 351.521 93.8334 350.951 93.5827C350.382 93.3318 349.769 93.1978 349.147 93.1884C348.525 93.179 347.909 93.2946 347.332 93.5283C346.756 93.762 346.231 94.1091 345.792 94.5491C344.842 95.6169 344.292 96.9827 344.238 98.4124H353.887Z" fill="white"/>
<path d="M376.862 103.763L380.981 104.178C380.673 106.475 379.579 108.594 377.889 110.173C376.33 111.46 374.362 112.141 372.344 112.09C371.037 112.157 369.736 111.898 368.554 111.336C367.374 110.774 366.348 109.927 365.573 108.871C363.95 106.567 363.119 103.794 363.207 100.973C363.096 98.0903 364.016 95.2632 365.801 93.0029C366.633 91.9814 367.687 91.1661 368.884 90.6201C370.081 90.0742 371.387 89.8124 372.701 89.8551C377.346 89.8551 380.098 92.3162 380.981 97.2238L376.862 97.7819C376.492 95.1348 375.195 93.8186 372.957 93.8186C372.22 93.7826 371.49 93.9675 370.857 94.3497C370.225 94.7319 369.72 95.294 369.408 95.9648C368.626 97.576 368.246 99.353 368.296 101.144C368.192 102.886 368.594 104.62 369.45 106.138C369.783 106.689 370.253 107.143 370.818 107.452C371.382 107.761 372.016 107.915 372.657 107.898C374.768 107.84 376.164 106.481 376.862 103.763Z" fill="white"/>
<path d="M397.888 97.6538L405.314 111.604H400.139L394.567 101.288L390.775 105.309V111.604H385.971V90.2422H390.775V96.595C390.775 97.9543 390.775 99.1705 390.618 100.244C391.245 99.4114 391.916 98.6138 392.628 97.8541L399.755 90.2422H404.473L397.888 97.6538Z" fill="white"/>
<path d="M416.988 112.047C415.6 112.126 414.214 111.855 412.958 111.261C411.7 110.666 410.612 109.766 409.788 108.642C408.129 106.387 407.253 103.648 407.294 100.844C407.208 97.978 408.19 95.1828 410.046 93.0033C410.945 91.9709 412.064 91.1527 413.319 90.6082C414.575 90.0637 415.934 89.8066 417.301 89.8555C418.624 89.82 419.938 90.0758 421.152 90.6048C422.365 91.1337 423.45 91.9231 424.328 92.9174C426.225 95.1292 427.209 97.9852 427.078 100.901C427.218 103.88 426.196 106.795 424.229 109.028C423.304 110.02 422.181 110.803 420.932 111.323C419.684 111.844 418.339 112.091 416.988 112.047ZM417.159 108.07C420.379 108.07 422.005 105.652 422.005 100.815C422.097 99.0202 421.698 97.2336 420.85 95.6502C420.482 95.0411 419.956 94.5436 419.329 94.2111C418.702 93.8785 417.995 93.7231 417.287 93.7616C416.553 93.716 415.82 93.8734 415.169 94.2164C414.519 94.5596 413.975 95.0753 413.594 95.7075C412.726 97.2949 412.311 99.0923 412.398 100.901C412.281 102.767 412.722 104.626 413.666 106.238C414.045 106.817 414.564 107.289 415.175 107.609C415.786 107.93 416.469 108.088 417.159 108.07Z" fill="white"/>
<path d="M432.751 111.604V90.2422H445.949V93.9908H437.582V111.604H432.751Z" fill="white"/>
<path d="M458.45 112.048C457.06 112.127 455.673 111.857 454.413 111.263C453.155 110.668 452.063 109.767 451.238 108.642C449.589 106.383 448.717 103.645 448.758 100.844C448.672 97.9784 449.652 95.183 451.508 93.0035C452.409 91.9702 453.527 91.1517 454.783 90.6072C456.037 90.0625 457.397 89.8058 458.763 89.8557C460.086 89.8213 461.4 90.0775 462.614 90.6064C463.829 91.1352 464.912 91.9241 465.791 92.9178C467.68 95.134 468.664 97.9868 468.541 100.902C468.682 103.88 467.658 106.796 465.691 109.029C464.77 110.023 463.647 110.807 462.396 111.328C461.148 111.848 459.801 112.094 458.45 112.048ZM458.621 108.07C461.843 108.07 463.452 105.652 463.452 100.816C463.546 99.0204 463.146 97.2339 462.299 95.6506C461.933 95.0381 461.409 94.5381 460.78 94.2051C460.153 93.8719 459.445 93.7186 458.735 93.7619C458.003 93.719 457.275 93.8776 456.626 94.2206C455.977 94.5636 455.435 95.0777 455.058 95.7078C454.19 97.2954 453.775 99.0928 453.86 100.902C453.737 102.768 454.181 104.628 455.129 106.239C455.507 106.817 456.028 107.289 456.639 107.609C457.25 107.93 457.933 108.089 458.621 108.07Z" fill="white"/>
<path d="M201.316 149.95L206.306 132.336H214.102L218.535 149.95H220.474V158.535H217.353L216.782 153.627H203.07L202.5 158.535H199.379V149.95H201.316ZM205.18 149.95H213.733L210.554 136.085H208.815L205.18 149.95Z" fill="white"/>
<path d="M238.034 146.888L242.382 147.474C241.829 149.384 240.674 151.061 239.088 152.253C237.316 153.558 235.156 154.224 232.959 154.142C231.627 154.194 230.297 153.954 229.066 153.437C227.836 152.921 226.733 152.141 225.833 151.151C223.943 148.905 222.979 146.018 223.139 143.082C223.031 140.165 224.001 137.312 225.86 135.069C226.771 134.015 227.906 133.182 229.182 132.632C230.459 132.082 231.843 131.829 233.231 131.893C234.566 131.826 235.9 132.075 237.122 132.619C238.345 133.163 239.423 133.988 240.272 135.026C241.996 137.335 242.872 140.17 242.751 143.053V143.611H228.055C228.025 144.789 228.164 145.965 228.47 147.102C228.776 148.009 229.347 148.801 230.108 149.377C230.757 149.848 231.506 150.159 232.297 150.287C233.087 150.415 233.896 150.356 234.658 150.114C235.422 149.872 236.118 149.454 236.691 148.894C237.266 148.334 237.7 147.647 237.963 146.888H238.034ZM237.734 140.506C237.763 139.11 237.251 137.756 236.309 136.729C235.882 136.275 235.368 135.912 234.799 135.661C234.228 135.41 233.615 135.277 232.991 135.269C232.37 135.261 231.751 135.378 231.177 135.615C230.6 135.851 230.077 136.2 229.638 136.643C228.683 137.708 228.127 139.074 228.07 140.506H237.734Z" fill="white"/>
<path d="M253.285 160.91H248.396V132.294H253V136.014C253.558 134.757 254.472 133.693 255.627 132.952C256.782 132.212 258.129 131.829 259.5 131.85C260.637 131.82 261.762 132.089 262.762 132.631C263.762 133.174 264.603 133.97 265.202 134.941C266.692 137.29 267.429 140.042 267.31 142.824C267.377 145.597 266.683 148.335 265.301 150.737C264.712 151.8 263.841 152.677 262.783 153.271C261.726 153.865 260.525 154.152 259.314 154.099C258.094 154.168 256.882 153.88 255.822 153.271C254.76 152.661 253.901 151.756 253.342 150.665L253.285 160.91ZM253.285 144.942C253.256 146.365 253.764 147.746 254.71 148.805C255.081 149.267 255.548 149.643 256.076 149.907C256.606 150.171 257.184 150.317 257.775 150.336C258.471 150.369 259.161 150.194 259.759 149.836C260.358 149.477 260.837 148.95 261.138 148.319C261.908 146.72 262.273 144.956 262.208 143.182C262.282 141.355 261.911 139.538 261.125 137.888C260.852 137.271 260.403 136.747 259.835 136.383C259.267 136.02 258.604 135.831 257.932 135.842C257.296 135.845 256.667 135.998 256.101 136.289C255.534 136.579 255.043 137 254.669 137.516C253.733 138.778 253.259 140.324 253.328 141.894L253.285 144.942Z" fill="white"/>
<path d="M272.912 153.698V132.336H280.167L285.611 149.95L291.313 132.336H298.098V153.698H293.651V136.085H293.351L287.65 153.698H282.732L277.03 136.085H276.731V153.698H272.912Z" fill="white"/>
<path d="M323.428 153.698H318.852C318.423 152.305 318.175 150.862 318.11 149.406C317.62 150.537 316.873 151.537 315.927 152.326C314.983 153.114 313.868 153.67 312.671 153.948C311.473 154.227 310.227 154.219 309.034 153.927C307.84 153.636 306.731 153.067 305.796 152.267C305.165 151.661 304.668 150.929 304.338 150.118C304.007 149.307 303.848 148.436 303.871 147.56C303.871 142.657 308.148 140.206 316.699 140.206H318.124V138.617C318.124 136.399 316.628 135.298 313.621 135.298C310.613 135.298 309.045 136.399 308.647 138.617L304.556 138.002C304.673 137.117 304.98 136.267 305.452 135.509C305.924 134.752 306.551 134.104 307.292 133.609C309.38 132.335 311.81 131.736 314.248 131.893C315.599 131.863 316.949 132.002 318.266 132.307C319.249 132.562 320.155 133.053 320.905 133.738C321.55 134.323 322.04 135.061 322.33 135.884C322.673 137.152 322.811 138.465 322.743 139.776V149.42C322.77 150.871 323.001 152.311 323.428 153.698ZM318.11 142.824C311.916 142.824 308.813 144.312 308.804 147.288C308.796 147.712 308.878 148.132 309.04 148.523C309.2 148.914 309.44 149.268 309.744 149.563C310.13 149.906 310.582 150.167 311.073 150.329C311.563 150.492 312.08 150.552 312.595 150.507C313.365 150.559 314.138 150.432 314.852 150.137C315.565 149.842 316.203 149.386 316.713 148.805C317.634 147.691 318.139 146.289 318.139 144.841L318.11 142.824Z" fill="white"/>
<path d="M332.634 153.698V136.085H326.734V132.336H343.254V136.085H337.439V153.698H332.634Z" fill="white"/>
<path d="M352.062 151.538V153.698H347.258V132.336H352.062V141.651C352.062 143.082 352.062 144.513 351.963 146.115C352.857 144.648 353.843 143.238 354.913 141.894L360.357 135.084V132.336H365.162V153.698H360.357V144.928C360.357 143.168 360.357 141.637 360.514 140.306C359.663 141.656 358.735 142.955 357.735 144.198L352.062 151.538Z" fill="white"/>
<path d="M375.068 153.698V136.085H369.166V132.336H385.686V136.085H379.87V153.698H375.068Z" fill="white"/>
<path d="M408.094 153.698H403.518C403.091 152.305 402.842 150.862 402.777 149.406C402.287 150.537 401.539 151.537 400.595 152.326C399.651 153.114 398.535 153.67 397.337 153.948C396.14 154.227 394.895 154.219 393.7 153.927C392.507 153.636 391.397 153.067 390.462 152.267C389.831 151.661 389.336 150.929 389.004 150.118C388.673 149.307 388.514 148.436 388.537 147.56C388.537 142.657 392.814 140.206 401.366 140.206H402.792V138.617C402.792 136.399 401.294 135.298 398.287 135.298C395.281 135.298 393.711 136.399 393.313 138.617L389.222 138.002C389.343 137.115 389.651 136.265 390.125 135.507C390.599 134.75 391.23 134.103 391.974 133.609C394.063 132.335 396.49 131.736 398.928 131.893C400.282 131.862 401.631 132.001 402.949 132.307C403.931 132.562 404.835 133.053 405.585 133.738C406.232 134.323 406.722 135.061 407.011 135.884C407.353 137.152 407.492 138.465 407.423 139.776V149.42C407.447 150.87 407.672 152.31 408.094 153.698ZM402.777 142.824C396.582 142.824 393.479 144.312 393.47 147.288C393.464 147.712 393.544 148.132 393.706 148.523C393.868 148.914 394.108 149.268 394.41 149.563C394.798 149.906 395.248 150.167 395.739 150.329C396.229 150.492 396.748 150.552 397.261 150.507C398.033 150.561 398.806 150.435 399.519 150.14C400.235 149.845 400.871 149.388 401.381 148.805C402.302 147.691 402.805 146.289 402.806 144.841L402.777 142.824Z" fill="white"/>
<path d="M164.543 15.1232V4.0201L162.69 3.50501C152.915 1.12371 142.887 -0.0534556 132.829 -0.000486381C115.724 -0.000486381 100.53 3.41916 87.7732 10.1583C76.4559 3.41916 61.8176 -0.000486381 44.1858 -0.000486381C33.6373 0.00300851 23.1213 1.17381 12.8282 3.4907L10.9325 3.96286V15.1232H0V160.723H175.404V15.1232H164.543ZM15.8784 7.96914C25.2166 6.0817 34.7173 5.12319 44.243 5.10752C61.5183 5.10752 75.6863 8.52716 86.3622 15.2806L87.6164 16.0676L88.9136 15.3521C101.172 8.55578 115.995 5.10752 132.829 5.10752C141.804 5.09983 150.754 6.05919 159.526 7.96914V144.626L87.702 151.523L15.8784 144.626V7.96914ZM5.01724 20.174H10.8612V149.162L78.6082 155.672H5.01724V20.174ZM170.358 155.672H96.7815L164.543 149.162V20.174H170.372L170.358 155.672Z" fill="white"/>
</g>
<defs>
<clipPath id="clip0_203_1858">
<rect width="468.542" height="161" fill="white"/>
</clipPath>
</defs>
</svg>
