<svg width="64" height="52" viewBox="0 0 64 52" fill="none" xmlns="http://www.w3.org/2000/svg">
<path d="M5.77967e-05 48.7446C5.77967e-05 47.8812 0.281671 47.0531 0.782588 46.4426C1.2835 45.8322 1.96274 45.4892 2.67114 45.4892H61.3289C62.0359 45.4948 62.7129 45.8396 63.2128 46.4489C63.7127 47.0582 63.9954 47.8829 64 48.7446C64 49.1721 63.9309 49.5952 63.7967 49.9902C63.6625 50.3851 63.4659 50.7442 63.2179 51.0465C62.9699 51.3488 62.6755 51.5886 62.3514 51.7522C62.0273 51.9157 61.6797 51.9999 61.3289 51.9999H2.67114C2.31973 52.0028 1.97121 51.9205 1.6461 51.7579C1.32099 51.5953 1.02554 51.3556 0.777047 51.0527C0.528555 50.7499 0.332084 50.3898 0.198674 49.9936C0.0652632 49.5973 -0.00226184 49.1728 5.77967e-05 48.7446ZM5.77967e-05 25.9999C5.77967e-05 25.1365 0.281671 24.3087 0.782588 23.6982C1.2835 23.0877 1.96274 22.7448 2.67114 22.7448H61.3289C62.0359 22.7503 62.7129 23.0949 63.2128 23.7042C63.7127 24.3135 63.9954 25.1382 64 25.9999C63.9954 26.8615 63.7127 27.6863 63.2128 28.2956C62.7129 28.9048 62.0359 29.2497 61.3289 29.2552H2.67114C1.96274 29.2552 1.2835 28.9123 0.782588 28.3018C0.281671 27.6913 5.77967e-05 26.8632 5.77967e-05 25.9999ZM5.77967e-05 3.25543C-0.00226184 2.82715 0.0652632 2.40266 0.198674 2.00643C0.332084 1.6102 0.528555 1.25013 0.777047 0.947279C1.02554 0.644432 1.32099 0.404725 1.6461 0.242132C1.97121 0.079539 2.31973 -0.00275659 2.67114 7.04393e-05H61.3289C61.6797 7.04393e-05 62.0273 0.0842516 62.3514 0.247846C62.6755 0.41144 62.9699 0.65123 63.2179 0.953512C63.4659 1.2558 63.6625 1.61459 63.7967 2.00954C63.9309 2.4045 64 2.82794 64 3.25543C63.9954 4.11707 63.7127 4.94184 63.2128 5.55112C62.7129 6.16041 62.0359 6.50522 61.3289 6.5108H2.67114C1.96274 6.5108 1.2835 6.16784 0.782588 5.55736C0.281671 4.94687 5.77967e-05 4.11879 5.77967e-05 3.25543Z" fill="#FEFEFE"/>
</svg>
