<svg width="464" height="464" viewBox="0 0 464 464" fill="none" xmlns="http://www.w3.org/2000/svg">
<path opacity="0.5" d="M198.083 339.268L358.074 179.277L322.158 143.361L198.083 267.435L137.679 207.031L102.307 242.947L198.083 339.268ZM231.354 463.342C199.378 463.342 169.335 457.341 141.223 445.338C113.111 433.336 88.5473 416.827 67.5312 395.811C46.5151 374.795 30.006 350.256 18.0038 322.194C6.00127 294.132 0 264.114 0 232.138C0 199.8 6.00127 169.575 18.0038 141.463C30.006 113.351 46.4867 88.8688 67.4458 68.0152C88.4049 47.1613 112.929 30.652 141.017 18.4873C169.105 6.3226 199.152 0.240234 231.158 0.240234C263.527 0.240234 293.789 6.30861 321.943 18.4454C350.098 30.5818 374.588 47.0528 395.415 67.8585C416.241 88.6641 432.729 113.13 444.878 141.257C457.027 169.383 463.102 199.651 463.102 232.063C463.102 264.089 457.019 294.154 444.854 322.26C432.69 350.366 416.18 374.905 395.327 395.876C374.473 416.849 350.015 433.336 321.954 445.338C293.892 457.341 263.692 463.342 231.354 463.342ZM231.279 412.188C281.344 412.188 323.881 394.707 358.89 359.744C393.899 324.781 411.404 282.221 411.404 232.063C411.404 181.998 393.899 139.461 358.89 104.452C323.881 69.4424 281.253 51.9378 231.007 51.9378C181.123 51.9378 138.677 69.4424 103.667 104.452C68.658 139.461 51.1534 182.089 51.1534 232.335C51.1534 282.219 68.6348 324.665 103.598 359.675C138.56 394.684 181.121 412.188 231.279 412.188Z" fill="#7AB8AD"/>
</svg>
