<svg width="24" height="24" viewBox="0 0 24 24" fill="none" xmlns="http://www.w3.org/2000/svg">
<mask id="mask0_689_30" style="mask-type:alpha" maskUnits="userSpaceOnUse" x="0" y="0" width="24" height="24">
<rect width="24" height="24" fill="#D9D9D9"/>
</mask>
<g mask="url(#mask0_689_30)">
<path d="M4.55063 19C3.70063 19 3.04229 18.7042 2.57563 18.1125C2.10896 17.5208 1.93396 16.8 2.05062 15.95L3.10063 8.45C3.25063 7.45 3.69646 6.625 4.43813 5.975C5.17979 5.325 6.05062 5 7.05062 5H16.9506C17.9506 5 18.8215 5.325 19.5631 5.975C20.3048 6.625 20.7506 7.45 20.9006 8.45L21.9506 15.95C22.0673 16.8 21.8923 17.5208 21.4256 18.1125C20.959 18.7042 20.3006 19 19.4506 19C19.1006 19 18.7756 18.9375 18.4756 18.8125C18.1756 18.6875 17.9006 18.5 17.6506 18.25L15.4006 16H8.60063L6.35063 18.25C6.10063 18.5 5.82563 18.6875 5.52562 18.8125C5.22562 18.9375 4.90063 19 4.55063 19ZM17.0006 13C17.284 13 17.5215 12.9042 17.7131 12.7125C17.9048 12.5208 18.0006 12.2833 18.0006 12C18.0006 11.7167 17.9048 11.4792 17.7131 11.2875C17.5215 11.0958 17.284 11 17.0006 11C16.7173 11 16.4798 11.0958 16.2881 11.2875C16.0965 11.4792 16.0006 11.7167 16.0006 12C16.0006 12.2833 16.0965 12.5208 16.2881 12.7125C16.4798 12.9042 16.7173 13 17.0006 13ZM15.0006 10C15.284 10 15.5215 9.90417 15.7131 9.7125C15.9048 9.52083 16.0006 9.28333 16.0006 9C16.0006 8.71667 15.9048 8.47917 15.7131 8.2875C15.5215 8.09583 15.284 8 15.0006 8C14.7173 8 14.4798 8.09583 14.2881 8.2875C14.0965 8.47917 14.0006 8.71667 14.0006 9C14.0006 9.28333 14.0965 9.52083 14.2881 9.7125C14.4798 9.90417 14.7173 10 15.0006 10ZM7.75063 13H9.25063V11.25H11.0006V9.75H9.25063V8H7.75063V9.75H6.00062V11.25H7.75063V13Z" fill="#7AB8AD"/>
</g>
</svg>
