<svg width="74" height="65" viewBox="0 0 74 65" fill="none" xmlns="http://www.w3.org/2000/svg">
<path d="M37.2138 64.1866L33.4864 60.9662C27.0619 55.3378 21.7586 50.4782 17.5766 46.3874C13.3946 42.2967 10.0611 38.6411 7.57619 35.4207C5.09123 32.2003 3.34874 29.2846 2.3487 26.6734C1.34865 24.0623 0.848633 21.4222 0.848633 18.753C0.848633 13.5308 2.68204 9.16438 6.34886 5.65386C10.0157 2.14335 14.5462 0.388092 19.9403 0.388092C23.395 0.388092 26.5921 1.17143 29.5317 2.73811C32.4712 4.30478 35.0319 6.56776 37.2138 9.52703C39.7594 6.39368 42.4564 4.08719 45.305 2.60755C48.1536 1.12791 51.2144 0.388092 54.4872 0.388092C59.8814 0.388092 64.4119 2.14335 68.0787 5.65386C71.7455 9.16438 73.5789 13.5308 73.5789 18.753C73.5789 21.4222 73.0789 24.0623 72.0789 26.6734C71.0788 29.2846 69.3363 32.2003 66.8514 35.4207C64.3664 38.6411 61.033 42.2967 56.851 46.3874C52.669 50.4782 47.3657 55.3378 40.9412 60.9662L37.2138 64.1866Z" fill="#F98577"/>
</svg>
