<svg width="37" height="55" viewBox="0 0 37 55" fill="none" xmlns="http://www.w3.org/2000/svg">
<path d="M18.3714 54.8634C16.4634 54.8634 14.6121 54.6604 12.8177 54.2544C11.0232 53.8483 9.39911 53.3295 7.94537 52.6979C5.85562 51.7956 4.15202 50.7016 2.83457 49.4159C1.51712 48.1301 0.858398 46.6978 0.858398 45.1188V29.4869C0.858398 28.0883 1.39219 26.8026 2.45978 25.6296C3.52737 24.4567 4.90161 23.4191 6.58249 22.5168C8.3088 21.6145 10.2055 20.9152 12.2725 20.419C14.3395 19.9227 16.4406 19.6746 18.5758 19.6746C20.711 19.6746 22.8121 19.9227 24.8791 20.419C26.9462 20.9152 28.8428 21.6145 30.5692 22.5168C32.2955 23.4191 33.6811 24.4567 34.7259 25.6296C35.7708 26.8026 36.2933 28.0883 36.2933 29.4869V45.1188C36.2933 45.8857 36.1229 46.6301 35.7822 47.3519C35.4415 48.0738 34.9531 48.7505 34.3171 49.3821C33.6811 50.0137 32.9428 50.6114 32.1024 51.1753C31.262 51.7393 30.3193 52.2468 29.2744 52.6979C29.3199 52.4724 29.388 51.8408 29.4789 50.8031C29.4789 48.1865 28.5476 45.9534 26.685 44.1037C24.8224 42.2541 22.5736 41.3292 19.9387 41.3292C17.9852 41.3292 16.2589 41.8481 14.7598 42.8857C13.2606 43.9233 12.1249 45.2541 11.3526 46.8782C12.8063 47.2392 14.1351 47.4873 15.339 47.6226C16.5429 47.758 17.5991 47.8256 18.5077 47.8256C19.28 47.8256 19.9046 47.8031 20.3816 47.758C20.8586 47.7128 21.1653 47.6903 21.3016 47.6903V54.728C20.8019 54.7732 20.3135 54.807 19.8365 54.8296C19.3595 54.8521 18.8711 54.8634 18.3714 54.8634ZM26.7531 39.9758C28.2523 39.9758 29.5356 39.4457 30.6032 38.3856C31.6708 37.3254 32.2046 36.0509 32.2046 34.5622C32.2046 33.0734 31.6708 31.7989 30.6032 30.7388C29.5356 29.6786 28.2523 29.1485 26.7531 29.1485C25.2539 29.1485 23.9706 29.6786 22.903 30.7388C21.8354 31.7989 21.3016 33.0734 21.3016 34.5622C21.3016 36.0509 21.8354 37.3254 22.903 38.3856C23.9706 39.4457 25.2539 39.9758 26.7531 39.9758ZM18.5758 16.9678C20.8473 16.9678 22.778 16.1896 24.3681 14.6331C25.9581 13.0767 26.7531 11.1481 26.7531 8.84729C26.7531 6.5916 25.9581 4.67427 24.3681 3.09528C22.778 1.5163 20.8473 0.726807 18.5758 0.726807C16.2589 0.726807 14.3168 1.5163 12.7495 3.09528C11.1822 4.67427 10.3986 6.5916 10.3986 8.84729C10.3986 11.1481 11.1822 13.0767 12.7495 14.6331C14.3168 16.1896 16.2589 16.9678 18.5758 16.9678Z" fill="#F98577"/>
</svg>
