<svg width="25" height="24" viewBox="0 0 25 24" fill="none" xmlns="http://www.w3.org/2000/svg">
<mask id="mask0_9_25" style="mask-type:alpha" maskUnits="userSpaceOnUse" x="0" y="0" width="25" height="24">
<rect x="0.173584" width="24" height="24" fill="#D9D9D9"/>
</mask>
<g mask="url(#mask0_9_25)">
<path d="M12.1736 21L10.7236 19.7C9.04025 18.1834 7.64858 16.875 6.54858 15.775C5.44858 14.675 4.57358 13.6875 3.92358 12.8125C3.27358 11.9375 2.81942 11.1334 2.56108 10.4C2.30275 9.66669 2.17358 8.91669 2.17358 8.15002C2.17358 6.58336 2.69858 5.27502 3.74858 4.22502C4.79858 3.17502 6.10692 2.65002 7.67358 2.65002C8.54025 2.65002 9.36525 2.83336 10.1486 3.20002C10.9319 3.56669 11.6069 4.08336 12.1736 4.75002C12.7403 4.08336 13.4153 3.56669 14.1986 3.20002C14.9819 2.83336 15.8069 2.65002 16.6736 2.65002C18.2403 2.65002 19.5486 3.17502 20.5986 4.22502C21.6486 5.27502 22.1736 6.58336 22.1736 8.15002C22.1736 8.91669 22.0444 9.66669 21.7861 10.4C21.5278 11.1334 21.0736 11.9375 20.4236 12.8125C19.7736 13.6875 18.8986 14.675 17.7986 15.775C16.6986 16.875 15.3069 18.1834 13.6236 19.7L12.1736 21ZM12.1736 18.3C13.7736 16.8667 15.0903 15.6375 16.1236 14.6125C17.1569 13.5875 17.9736 12.6959 18.5736 11.9375C19.1736 11.1792 19.5903 10.5042 19.8236 9.91252C20.0569 9.32086 20.1736 8.73336 20.1736 8.15002C20.1736 7.15002 19.8403 6.31669 19.1736 5.65002C18.5069 4.98336 17.6736 4.65002 16.6736 4.65002C15.8903 4.65002 15.1653 4.87086 14.4986 5.31252C13.8319 5.75419 13.3736 6.31669 13.1236 7.00002H11.2236C10.9736 6.31669 10.5153 5.75419 9.84858 5.31252C9.18192 4.87086 8.45692 4.65002 7.67358 4.65002C6.67358 4.65002 5.84025 4.98336 5.17358 5.65002C4.50692 6.31669 4.17358 7.15002 4.17358 8.15002C4.17358 8.73336 4.29025 9.32086 4.52358 9.91252C4.75692 10.5042 5.17358 11.1792 5.77358 11.9375C6.37358 12.6959 7.19025 13.5875 8.22358 14.6125C9.25692 15.6375 10.5736 16.8667 12.1736 18.3Z" fill="#58BBB4"/>
</g>
</svg>
