<svg width="311" height="311" viewBox="0 0 311 311" fill="none" xmlns="http://www.w3.org/2000/svg">
<path d="M311 155.5C311 241.38 241.38 311 155.5 311C69.6197 311 0 241.38 0 155.5C0 69.6197 69.6197 0 155.5 0C241.38 0 311 69.6197 311 155.5ZM25.1552 155.5C25.1552 227.487 83.5125 285.845 155.5 285.845C227.487 285.845 285.845 227.487 285.845 155.5C285.845 83.5125 227.487 25.1552 155.5 25.1552C83.5125 25.1552 25.1552 83.5125 25.1552 155.5Z" fill="#6ABCA5"/>
<path d="M311 155.5C311 175.921 306.978 196.141 299.163 215.007C291.349 233.873 279.895 251.016 265.455 265.455C251.016 279.895 233.873 291.349 215.007 299.163C196.141 306.978 175.921 311 155.5 311L155.5 285.845C172.617 285.845 189.567 282.473 205.381 275.923C221.195 269.372 235.564 259.771 247.668 247.668C259.771 235.564 269.372 221.195 275.923 205.381C282.473 189.567 285.845 172.617 285.845 155.5H311Z" fill="white"/>
</svg>
