<svg width="541" height="142" viewBox="0 0 541 142" fill="none" xmlns="http://www.w3.org/2000/svg">
<g clip-path="url(#clip0_55_3)">
<mask id="mask0_55_3" style="mask-type:luminance" maskUnits="userSpaceOnUse" x="0" y="0" width="541" height="142">
<path d="M540.333 0H0V141.973H540.333V0Z" fill="white"/>
</mask>
<g mask="url(#mask0_55_3)">
<path d="M186.907 29.3571C188.968 28.1524 190.587 26.5055 191.766 24.4153C192.943 22.3284 193.531 19.9935 193.531 17.4144C193.531 14.8633 192.943 12.5431 191.766 10.4544C190.587 8.36574 188.968 6.71908 186.907 5.51374C184.847 4.30841 182.542 3.70574 179.991 3.70574C177.41 3.70574 175.091 4.30841 173.031 5.51374C170.97 6.71908 169.351 8.36574 168.174 10.4544C166.996 12.5431 166.407 14.8633 166.407 17.4144C166.407 19.9935 166.996 22.3284 168.174 24.4153C169.351 26.5055 170.97 28.1524 173.031 29.3571C175.091 30.5628 177.41 31.1653 179.991 31.1653C182.542 31.1653 184.847 30.5628 186.907 29.3571ZM171.37 32.0915C168.818 30.6331 166.82 28.6211 165.378 26.056C163.932 23.4909 163.211 20.6107 163.211 17.4144C163.211 14.2191 163.932 11.3451 165.378 8.79308C166.82 6.24308 168.818 4.23775 171.37 2.78042C173.92 1.32308 176.794 0.59375 179.991 0.59375C183.158 0.59375 186.024 1.32308 188.59 2.78042C191.155 4.23775 193.159 6.24308 194.603 8.79308C196.047 11.3451 196.77 14.2191 196.77 17.4144C196.77 20.6107 196.047 23.4909 194.603 26.056C193.159 28.6211 191.155 30.6331 188.59 32.0915C186.024 33.5483 183.158 34.2773 179.991 34.2773C176.794 34.2773 173.92 33.5483 171.37 32.0915Z" fill="white"/>
<path d="M222.168 28.8531C223.456 27.6203 224.102 25.9936 224.102 23.9744C224.102 21.9562 223.463 20.352 222.188 19.1594C220.912 17.9692 219.251 17.3728 217.206 17.3728H206.819V30.7036H217.206C219.224 30.7036 220.878 30.0864 222.168 28.8531ZM222.442 15.7114C223.968 16.5395 225.167 17.6812 226.036 19.1384C226.904 20.5968 227.34 22.2504 227.34 24.1004C227.34 25.9796 226.904 27.6619 226.036 29.1474C225.167 30.6332 223.968 31.7895 222.442 32.616C220.912 33.4442 219.168 33.8572 217.206 33.8572H205.39C204.828 33.8572 204.38 33.7099 204.043 33.4155C203.707 33.1212 203.539 32.7218 203.539 32.2166V2.65391C203.539 2.17791 203.692 1.78591 204.002 1.47658C204.31 1.16858 204.702 1.01392 205.178 1.01392H223.092C223.512 1.01392 223.871 1.16191 224.166 1.45658C224.459 1.74991 224.607 2.13525 224.607 2.61258C224.607 3.08858 224.459 3.46725 224.166 3.74725C223.871 4.02725 223.512 4.16857 223.092 4.16857H206.819V14.4703H217.206C219.168 14.4703 220.912 14.8843 222.442 15.7114Z" fill="white"/>
<path d="M274.25 31.3759C274.545 31.6847 274.691 32.0763 274.691 32.553V39.4071C274.691 39.9123 274.545 40.3107 274.25 40.6065C273.955 40.9008 273.557 41.0478 273.053 41.0478C272.574 41.0478 272.182 40.9008 271.874 40.6065C271.565 40.3107 271.411 39.9123 271.411 39.4071V33.8565H235.499C235.051 33.8565 234.665 33.6951 234.342 33.3732C234.019 33.0503 233.859 32.6648 233.859 32.2159V2.65317C233.859 2.17717 234.019 1.78518 234.342 1.47584C234.665 1.16784 235.051 1.01318 235.499 1.01318C235.975 1.01318 236.367 1.16784 236.675 1.47584C236.985 1.78518 237.139 2.17717 237.139 2.65317V30.9123H250.511V2.65317C250.511 2.17717 250.666 1.78518 250.974 1.47584C251.283 1.16784 251.674 1.01318 252.151 1.01318C252.627 1.01318 253.021 1.16784 253.33 1.47584C253.637 1.78518 253.791 2.17717 253.791 2.65317V30.9123H267.122V2.65317C267.122 2.17717 267.285 1.78518 267.606 1.47584C267.929 1.16784 268.314 1.01318 268.762 1.01318C269.238 1.01318 269.631 1.16784 269.941 1.47584C270.247 1.78518 270.402 2.17717 270.402 2.65317V30.9123H273.053C273.557 30.9123 273.955 31.0675 274.25 31.3759Z" fill="white"/>
<path d="M280.85 33.3739C280.527 33.051 280.367 32.6655 280.367 32.2166V2.65391C280.367 2.17791 280.527 1.78591 280.85 1.47658C281.173 1.16858 281.559 1.01392 282.006 1.01392H301.729C302.206 1.01392 302.598 1.16858 302.906 1.47658C303.215 1.78591 303.37 2.16458 303.37 2.61258C303.37 3.06192 303.215 3.43258 302.906 3.72725C302.598 4.02191 302.206 4.16857 301.729 4.16857H283.647V15.775H296.809C297.285 15.775 297.678 15.9286 297.987 16.2375C298.294 16.5458 298.45 16.925 298.45 17.3728C298.45 17.8218 298.287 18.1994 297.966 18.5083C297.643 18.8166 297.258 18.9703 296.809 18.9703H283.647V30.7036H301.729C302.206 30.7036 302.598 30.8504 302.906 31.1447C303.215 31.439 303.37 31.8114 303.37 32.2594C303.37 32.7072 303.215 33.0864 302.906 33.3947C302.598 33.7036 302.206 33.8572 301.729 33.8572H282.006C281.559 33.8572 281.173 33.6958 280.85 33.3739Z" fill="white"/>
<path d="M316.03 32.0065C313.534 30.4925 311.551 28.4467 310.079 25.8675C308.608 23.2877 307.871 20.4701 307.871 17.4144C307.871 14.3868 308.6 11.5836 310.059 9.00401C311.515 6.42441 313.492 4.37775 315.988 2.86442C318.483 1.34975 321.23 0.59375 324.231 0.59375C326.248 0.59375 328.084 0.888416 329.738 1.47641C331.394 2.06575 332.991 3.00575 334.532 4.29508C334.842 4.51908 334.995 4.84175 334.995 5.26175C334.995 5.48575 334.939 5.68841 334.827 5.87108C334.715 6.05374 334.56 6.18574 334.364 6.27108C334.308 6.46708 334.182 6.62175 333.986 6.73375C333.788 6.84575 333.579 6.90175 333.355 6.90175C332.935 6.90175 332.583 6.77508 332.303 6.52174C331.211 5.54174 330.018 4.82708 328.73 4.37775C327.44 3.92975 325.94 3.70574 324.231 3.70574C321.875 3.70574 319.688 4.32975 317.67 5.57641C315.651 6.82441 314.046 8.49908 312.854 10.6019C311.663 12.7044 311.067 14.9753 311.067 17.4144C311.067 19.9101 311.656 22.2087 312.834 24.3112C314.011 26.4144 315.61 28.082 317.627 29.3153C319.646 30.5497 321.846 31.1653 324.231 31.1653C327.286 31.1653 330.047 30.1852 332.514 28.2216C332.823 27.9977 333.13 27.8857 333.439 27.8857C333.859 27.8857 334.224 28.0325 334.532 28.3268C334.842 28.6211 334.995 29.0065 334.995 29.4831C334.995 29.9325 334.842 30.3243 334.532 30.6601C331.898 33.0716 328.462 34.2773 324.231 34.2773C321.258 34.2773 318.524 33.5211 316.03 32.0065Z" fill="white"/>
<path d="M364.179 1.43524C364.459 1.71524 364.6 2.07925 364.6 2.52725C364.6 2.94858 364.459 3.30058 364.179 3.57925C363.898 3.85925 363.534 4.00057 363.086 4.00057H353.076V32.2166C353.076 32.6655 352.923 33.051 352.615 33.3739C352.306 33.6958 351.914 33.8572 351.438 33.8572C350.988 33.8572 350.603 33.6958 350.282 33.3739C349.958 33.051 349.796 32.6655 349.796 32.2166V4.00057H339.831C339.382 4.00057 339.016 3.85925 338.736 3.57925C338.456 3.30058 338.316 2.94858 338.316 2.52725C338.316 2.07925 338.456 1.71524 338.736 1.43524C339.016 1.15524 339.382 1.01392 339.831 1.01392H363.086C363.534 1.01392 363.898 1.15524 364.179 1.43524Z" fill="white"/>
<path d="M382.006 30.7036C384.054 30.7036 385.714 30.1083 386.99 28.9155C388.266 27.7244 388.903 26.1343 388.903 24.1436C388.903 22.2375 388.266 20.7151 386.99 19.5796C385.714 18.4442 384.054 17.8766 382.006 17.8766H372.714V30.7036H382.006ZM381.291 14.7228C383.002 14.7228 384.396 14.24 385.476 13.2723C386.555 12.3051 387.095 10.9807 387.095 9.29845C387.095 7.67391 386.562 6.41258 385.498 5.51391C384.431 4.61791 383.03 4.16857 381.291 4.16857H372.714V14.7228H381.291ZM369.938 33.4155C369.602 33.1212 369.434 32.7218 369.434 32.2166V2.65391C369.434 2.17791 369.587 1.78591 369.895 1.47658C370.204 1.16858 370.596 1.01392 371.072 1.01392H381.291C382.974 1.01392 384.495 1.37124 385.854 2.08591C387.214 2.80057 388.292 3.7899 389.092 5.05124C389.892 6.31257 390.291 7.72858 390.291 9.29845C390.291 10.7843 389.892 12.116 389.092 13.2932C388.292 14.4703 387.222 15.3818 385.875 16.0266C387.81 16.5603 389.338 17.5198 390.459 18.9078C391.58 20.2947 392.142 22.0406 392.142 24.1436C392.142 26.0212 391.707 27.6968 390.838 29.1682C389.968 30.6395 388.77 31.7895 387.242 32.616C385.714 33.4442 383.968 33.8572 382.006 33.8572H371.284C370.723 33.8572 370.275 33.7099 369.938 33.4155Z" fill="white"/>
<path d="M419.919 29.3571C421.98 28.1524 423.599 26.5055 424.777 24.4153C425.953 22.3284 426.543 19.9935 426.543 17.4144C426.543 14.8633 425.953 12.5431 424.777 10.4544C423.599 8.36574 421.98 6.71908 419.919 5.51374C417.859 4.30841 415.553 3.70574 413.003 3.70574C410.421 3.70574 408.103 4.30841 406.043 5.51374C403.981 6.71908 402.363 8.36574 401.184 10.4544C400.008 12.5431 399.419 14.8633 399.419 17.4144C399.419 19.9935 400.008 22.3284 401.184 24.4153C402.363 26.5055 403.981 28.1524 406.043 29.3571C408.103 30.5628 410.421 31.1653 413.003 31.1653C415.553 31.1653 417.859 30.5628 419.919 29.3571ZM404.381 32.0915C401.829 30.6331 399.832 28.6211 398.389 26.056C396.944 23.4909 396.223 20.6107 396.223 17.4144C396.223 14.2191 396.944 11.3451 398.389 8.79308C399.832 6.24308 401.829 4.23775 404.381 2.78042C406.932 1.32308 409.805 0.59375 413.003 0.59375C416.169 0.59375 419.036 1.32308 421.601 2.78042C424.167 4.23775 426.171 6.24308 427.615 8.79308C429.059 11.3451 429.781 14.2191 429.781 17.4144C429.781 20.6107 429.059 23.4909 427.615 26.056C426.171 28.6211 424.167 30.6331 421.601 32.0915C419.036 33.5483 416.169 34.2773 413.003 34.2773C409.805 34.2773 406.932 33.5483 404.381 32.0915Z" fill="white"/>
<path d="M168.091 81.2486H188.234L178.099 56.3961L168.091 81.2486ZM194.268 81.6904C194.563 81.9857 194.71 82.3841 194.71 82.8893V89.8701C194.71 90.3753 194.563 90.7737 194.268 91.069C193.974 91.3633 193.574 91.5106 193.07 91.5106C192.564 91.5106 192.166 91.3633 191.871 91.069C191.576 90.7737 191.43 90.3753 191.43 89.8701V84.319H164.938V89.8701C164.938 90.3753 164.788 90.7737 164.495 91.069C164.2 91.3633 163.802 91.5106 163.296 91.5106C162.791 91.5106 162.394 91.3633 162.099 91.069C161.803 90.7737 161.656 90.3753 161.656 89.8701V82.8893C161.656 82.3841 161.803 81.9857 162.099 81.6904C162.394 81.3961 162.791 81.2486 163.296 81.2486H164.727L176.543 52.6122C176.88 51.8544 177.398 51.4768 178.099 51.4768C178.884 51.4768 179.416 51.8544 179.696 52.6122L191.514 81.2486H193.07C193.574 81.2486 193.974 81.3961 194.268 81.6904Z" fill="white"/>
<path d="M200.449 83.8365C200.125 83.5136 199.965 83.1281 199.965 82.6787V53.1161C199.965 52.6396 200.125 52.2479 200.449 51.939C200.77 51.6307 201.157 51.4771 201.605 51.4771H221.328C221.804 51.4771 222.196 51.6307 222.505 51.939C222.813 52.2479 222.968 52.6267 222.968 53.0745C222.968 53.524 222.813 53.8947 222.505 54.189C222.196 54.4832 221.804 54.6307 221.328 54.6307H203.245V66.2376H216.406C216.884 66.2376 217.277 66.3912 217.585 66.6995C217.893 67.0084 218.048 67.3871 218.048 67.8349C218.048 68.2844 217.886 68.6619 217.564 68.9703C217.241 69.2791 216.856 69.4328 216.406 69.4328H203.245V81.1656H221.328C221.804 81.1656 222.196 81.3131 222.505 81.6073C222.813 81.9016 222.968 82.274 222.968 82.7219C222.968 83.1699 222.813 83.5485 222.505 83.8573C222.196 84.1656 221.804 84.3192 221.328 84.3192H201.605C201.157 84.3192 200.77 84.1579 200.449 83.8365Z" fill="white"/>
<path d="M251.351 51.8974C251.631 52.1775 251.772 52.5423 251.772 52.9901C251.772 53.4104 251.631 53.762 251.351 54.0423C251.07 54.3219 250.706 54.4625 250.258 54.4625H240.248V82.6787C240.248 83.1281 240.095 83.5136 239.786 83.8365C239.478 84.1579 239.086 84.3192 238.61 84.3192C238.16 84.3192 237.775 84.1579 237.452 83.8365C237.13 83.5136 236.968 83.1281 236.968 82.6787V54.4625H227.003C226.554 54.4625 226.188 54.3219 225.908 54.0423C225.628 53.762 225.488 53.4104 225.488 52.9901C225.488 52.5423 225.628 52.1775 225.908 51.8974C226.188 51.6176 226.554 51.4771 227.003 51.4771H250.258C250.706 51.4771 251.07 51.6176 251.351 51.8974Z" fill="white"/>
<path d="M261.065 82.4694C258.569 80.9548 256.586 78.9096 255.116 76.3298C253.644 73.7506 252.906 70.9329 252.906 67.8768C252.906 64.8496 253.636 62.046 255.094 59.4668C256.552 56.8872 258.528 54.8402 261.024 53.3272C263.518 51.8132 266.265 51.0564 269.266 51.0564C271.284 51.0564 273.12 51.3506 274.774 51.9392C276.429 52.5277 278.026 53.4678 279.568 54.7569C279.877 54.9809 280.03 55.3038 280.03 55.7246C280.03 55.9486 279.974 56.1517 279.862 56.334C279.75 56.5162 279.596 56.649 279.4 56.7334C279.344 56.9304 279.218 57.084 279.021 57.196C278.825 57.308 278.616 57.3637 278.392 57.3637C277.97 57.3637 277.618 57.2377 277.338 56.985C276.246 56.0044 275.054 55.2897 273.765 54.8402C272.476 54.3924 270.976 54.1684 269.266 54.1684C266.91 54.1684 264.725 54.7924 262.705 56.0397C260.686 57.2872 259.081 58.9616 257.89 61.0642C256.698 63.1673 256.104 65.4381 256.104 67.8768C256.104 70.373 256.692 72.671 257.869 74.7741C259.048 76.8768 260.645 78.5449 262.664 79.7777C264.681 81.0121 266.882 81.6282 269.266 81.6282C272.321 81.6282 275.082 80.6476 277.55 78.684C277.858 78.4601 278.166 78.3481 278.474 78.3481C278.894 78.3481 279.26 78.4954 279.568 78.7897C279.877 79.084 280.03 79.4694 280.03 79.946C280.03 80.3949 279.877 80.7872 279.568 81.123C276.933 83.5345 273.498 84.7402 269.266 84.7402C266.293 84.7402 263.561 83.9834 261.065 82.4694Z" fill="white"/>
<path d="M310.31 82.7219C310.31 83.1423 310.127 83.5344 309.763 83.8989C309.483 84.1803 309.119 84.3192 308.671 84.3192C308.192 84.3192 307.8 84.1516 307.492 83.8141L295.172 69.1802H290.21V82.6787C290.21 83.1281 290.055 83.5136 289.746 83.8365C289.438 84.1579 289.046 84.3192 288.568 84.3192C288.12 84.3192 287.734 84.1579 287.412 83.8365C287.09 83.5136 286.93 83.1281 286.93 82.6787V53.1161C286.93 52.6396 287.09 52.2479 287.412 51.939C287.734 51.6307 288.12 51.4771 288.568 51.4771C289.046 51.4771 289.438 51.6307 289.746 51.939C290.055 52.2479 290.21 52.6396 290.21 53.1161V66.2376H294.96L306.399 51.9808C306.707 51.6448 307.1 51.4771 307.576 51.4771C308.024 51.4771 308.39 51.6176 308.671 51.8974C309.007 52.1775 309.174 52.5276 309.174 52.9485C309.174 53.2844 309.02 53.6489 308.712 54.0423L297.82 67.4562L309.932 81.7125C310.183 82.0485 310.31 82.3844 310.31 82.7219Z" fill="white"/>
<path d="M340.188 83.8365C339.867 83.5136 339.706 83.1281 339.706 82.6787V56.9016L318.722 83.7724C318.61 83.9407 318.434 84.0745 318.195 84.1724C317.956 84.2713 317.727 84.3192 317.502 84.3192C317.024 84.3192 316.624 84.1579 316.303 83.8365C315.98 83.5136 315.82 83.1281 315.82 82.6787V53.1161C315.82 52.6683 315.98 52.2827 316.303 51.9599C316.624 51.6384 317.024 51.4771 317.502 51.4771C317.951 51.4771 318.328 51.6307 318.636 51.939C318.946 52.2479 319.1 52.6396 319.1 53.1161V78.9365L340.084 52.0656C340.392 51.6735 340.812 51.4771 341.344 51.4771C341.822 51.4771 342.215 51.6307 342.523 51.939C342.831 52.2479 342.986 52.6396 342.986 53.1161V82.6787C342.986 83.1281 342.831 83.5136 342.523 83.8365C342.215 84.1579 341.822 84.3192 341.344 84.3192C340.898 84.3192 340.511 84.1579 340.188 83.8365Z" fill="white"/>
<path d="M375.029 82.7219C375.029 83.1699 374.889 83.5485 374.609 83.8573C374.329 84.1656 373.951 84.3192 373.473 84.3192C372.912 84.3192 372.492 84.1239 372.212 83.7307L362.161 69.8115L351.9 83.8141C351.62 84.1516 351.228 84.3192 350.724 84.3192C350.247 84.3192 349.868 84.1723 349.588 83.878C349.307 83.5838 349.168 83.2255 349.168 82.8051C349.168 82.3843 349.293 82.0067 349.547 81.6698L359.933 67.5407L350.219 54.0423C349.995 53.6776 349.883 53.3416 349.883 53.0327C349.883 52.6124 350.021 52.2479 350.303 51.939C350.583 51.6307 350.948 51.4771 351.397 51.4771C351.956 51.4771 352.377 51.6735 352.659 52.0656L362.204 65.2698L371.876 52.0656C372.184 51.6735 372.605 51.4771 373.137 51.4771C373.585 51.4771 373.951 51.6384 374.231 51.9599C374.509 52.2827 374.651 52.6543 374.651 53.0745C374.651 53.4391 374.553 53.762 374.356 54.0423L364.432 67.4989L374.651 81.6698C374.903 82.0067 375.029 82.3573 375.029 82.7219Z" fill="white"/>
<path d="M168.091 131.712H188.234L178.099 106.86L168.091 131.712ZM194.268 132.154C194.563 132.449 194.71 132.848 194.71 133.352V140.334C194.71 140.839 194.563 141.238 194.268 141.532C193.974 141.827 193.574 141.974 193.07 141.974C192.564 141.974 192.166 141.827 191.871 141.532C191.576 141.238 191.43 140.839 191.43 140.334V134.783H164.938V140.334C164.938 140.839 164.788 141.238 164.495 141.532C164.2 141.827 163.802 141.974 163.296 141.974C162.791 141.974 162.394 141.827 162.099 141.532C161.803 141.238 161.656 140.839 161.656 140.334V133.352C161.656 132.848 161.803 132.449 162.099 132.154C162.394 131.86 162.791 131.712 163.296 131.712H164.727L176.543 103.076C176.88 102.318 177.398 101.94 178.099 101.94C178.884 101.94 179.416 102.318 179.696 103.076L191.514 131.712H193.07C193.574 131.712 193.974 131.86 194.268 132.154Z" fill="white"/>
<path d="M200.449 134.299C200.125 133.976 199.965 133.591 199.965 133.142V103.58C199.965 103.103 200.125 102.711 200.449 102.402C200.77 102.094 201.157 101.94 201.605 101.94H221.328C221.804 101.94 222.196 102.094 222.505 102.402C222.813 102.711 222.968 103.09 222.968 103.538C222.968 103.987 222.813 104.358 222.505 104.652C222.196 104.947 221.804 105.094 221.328 105.094H203.245V116.701H216.406C216.884 116.701 217.277 116.854 217.585 117.163C217.893 117.472 218.048 117.85 218.048 118.298C218.048 118.748 217.886 119.125 217.564 119.434C217.241 119.743 216.856 119.896 216.406 119.896H203.245V131.629H221.328C221.804 131.629 222.196 131.776 222.505 132.071C222.813 132.365 222.968 132.737 222.968 133.185C222.968 133.633 222.813 134.012 222.505 134.321C222.196 134.629 221.804 134.783 221.328 134.783H201.605C201.157 134.783 200.77 134.622 200.449 134.299Z" fill="white"/>
<path d="M239.114 120.022C240.544 120.022 241.82 119.707 242.941 119.076C244.062 118.446 244.937 117.569 245.568 116.448C246.199 115.327 246.516 114.051 246.516 112.621C246.516 111.164 246.199 109.866 245.568 108.731C244.937 107.595 244.062 106.706 242.941 106.061C241.82 105.417 240.544 105.094 239.114 105.094H232.342V120.022H239.114ZM229.525 134.321C229.217 134.012 229.062 133.621 229.062 133.142V103.58C229.062 103.103 229.217 102.711 229.525 102.402C229.834 102.094 230.228 101.94 230.704 101.94H239.114C241.161 101.94 242.99 102.396 244.602 103.306C246.214 104.218 247.468 105.48 248.366 107.092C249.262 108.704 249.711 110.547 249.711 112.621C249.711 114.668 249.262 116.49 248.366 118.087C247.468 119.686 246.214 120.934 244.602 121.831C242.99 122.728 241.161 123.176 239.114 123.176H232.342V133.142C232.342 133.621 232.189 134.012 231.881 134.321C231.572 134.629 231.18 134.783 230.704 134.783C230.228 134.783 229.834 134.629 229.525 134.321Z" fill="white"/>
<path d="M287.181 102.402C287.489 102.711 287.643 103.103 287.643 103.58V133.142C287.643 133.591 287.489 133.976 287.181 134.299C286.873 134.622 286.494 134.783 286.046 134.783C285.567 134.783 285.17 134.622 284.846 134.299C284.525 133.976 284.363 133.591 284.363 133.142V109.342L272.674 133.227C272.337 133.759 271.859 134.026 271.242 134.026C270.542 134.026 270.037 133.688 269.73 133.017L258.081 109.719V133.142C258.081 133.591 257.926 133.976 257.618 134.299C257.309 134.622 256.917 134.783 256.441 134.783C255.993 134.783 255.606 134.622 255.285 134.299C254.961 133.976 254.801 133.591 254.801 133.142V103.58C254.801 103.103 254.961 102.711 255.285 102.402C255.606 102.094 255.993 101.94 256.441 101.94C257.085 101.94 257.575 102.22 257.913 102.782L271.369 129.526L284.573 102.782C284.91 102.22 285.399 101.94 286.046 101.94C286.494 101.94 286.873 102.094 287.181 102.402Z" fill="white"/>
<path d="M313.716 124.144L306.735 107.28L299.755 124.144H313.716ZM320.864 133.142C320.864 133.591 320.703 133.976 320.382 134.299C320.059 134.622 319.674 134.783 319.226 134.783C318.496 134.783 317.978 134.447 317.67 133.774L314.851 126.961H298.576L295.76 133.774C295.535 134.447 295.03 134.783 294.246 134.783C293.77 134.783 293.384 134.622 293.09 134.299C292.795 133.976 292.648 133.591 292.648 133.142C292.648 132.862 292.69 132.624 292.775 132.427L305.138 103.076C305.446 102.318 305.979 101.94 306.735 101.94C307.492 101.94 308.01 102.318 308.291 103.076L320.696 132.47C320.808 132.667 320.864 132.891 320.864 133.142Z" fill="white"/>
<path d="M344.54 102.361C344.82 102.641 344.96 103.006 344.96 103.454C344.96 103.874 344.82 104.225 344.54 104.506C344.258 104.785 343.894 104.926 343.446 104.926H333.437V133.142C333.437 133.591 333.284 133.976 332.974 134.299C332.666 134.622 332.274 134.783 331.797 134.783C331.348 134.783 330.962 134.622 330.641 134.299C330.318 133.976 330.157 133.591 330.157 133.142V104.926H320.19C319.741 104.926 319.377 104.785 319.097 104.506C318.817 104.225 318.676 103.874 318.676 103.454C318.676 103.006 318.817 102.641 319.097 102.361C319.377 102.081 319.741 101.94 320.19 101.94H343.446C343.894 101.94 344.258 102.081 344.54 102.361Z" fill="white"/>
<path d="M369.794 130.283C371.855 129.079 373.474 127.431 374.652 125.342C375.83 123.254 376.418 120.92 376.418 118.34C376.418 115.79 375.83 113.469 374.652 111.381C373.474 109.292 371.855 107.645 369.794 106.439C367.734 105.235 365.428 104.632 362.878 104.632C360.296 104.632 357.978 105.235 355.918 106.439C353.856 107.645 352.238 109.292 351.06 111.381C349.883 113.469 349.294 115.79 349.294 118.34C349.294 120.92 349.883 123.254 351.06 125.342C352.238 127.431 353.856 129.079 355.918 130.283C357.978 131.489 360.296 132.092 362.878 132.092C365.428 132.092 367.734 131.489 369.794 130.283ZM354.256 133.017C351.704 131.559 349.707 129.547 348.264 126.982C346.819 124.417 346.098 121.537 346.098 118.34C346.098 115.145 346.819 112.271 348.264 109.719C349.707 107.168 351.704 105.165 354.256 103.706C356.807 102.249 359.68 101.52 362.878 101.52C366.044 101.52 368.911 102.249 371.476 103.706C374.042 105.165 376.046 107.168 377.49 109.719C378.934 112.271 379.656 115.145 379.656 118.34C379.656 121.537 378.934 124.417 377.49 126.982C376.046 129.547 374.042 131.559 371.476 133.017C368.911 134.474 366.044 135.203 362.878 135.203C359.68 135.203 356.807 134.474 354.256 133.017Z" fill="white"/>
<path d="M410.436 133.185C410.436 133.606 410.281 133.976 409.972 134.299C409.664 134.622 409.272 134.783 408.794 134.783C408.094 134.783 407.589 134.447 407.281 133.774L396.346 107.365L385.33 133.774C385.218 134.11 385.021 134.362 384.741 134.53C384.46 134.698 384.153 134.783 383.816 134.783C383.338 134.783 382.948 134.622 382.638 134.299C382.33 133.976 382.176 133.591 382.176 133.142C382.176 132.891 382.232 132.652 382.344 132.427L394.708 103.076C395.016 102.318 395.534 101.94 396.264 101.94C396.992 101.94 397.525 102.318 397.861 103.076L410.268 132.47C410.378 132.694 410.436 132.933 410.436 133.185Z" fill="white"/>
<path d="M436.528 130.283C438.589 129.079 440.208 127.431 441.387 125.342C442.563 123.254 443.152 120.92 443.152 118.34C443.152 115.79 442.563 113.469 441.387 111.381C440.208 109.292 438.589 107.645 436.528 106.439C434.468 105.235 432.163 104.632 429.612 104.632C427.031 104.632 424.712 105.235 422.652 106.439C420.591 107.645 418.972 109.292 417.793 111.381C416.617 113.469 416.028 115.79 416.028 118.34C416.028 120.92 416.617 123.254 417.793 125.342C418.972 127.431 420.591 129.079 422.652 130.283C424.712 131.489 427.031 132.092 429.612 132.092C432.163 132.092 434.468 131.489 436.528 130.283ZM420.991 133.017C418.439 131.559 416.441 129.547 414.999 126.982C413.553 124.417 412.832 121.537 412.832 118.34C412.832 115.145 413.553 112.271 414.999 109.719C416.441 107.168 418.439 105.165 420.991 103.706C423.541 102.249 426.415 101.52 429.612 101.52C432.779 101.52 435.645 102.249 438.211 103.706C440.776 105.165 442.78 107.168 444.224 109.719C445.668 112.271 446.391 115.145 446.391 118.34C446.391 121.537 445.668 124.417 444.224 126.982C442.78 129.547 440.776 131.559 438.211 133.017C435.645 134.474 432.779 135.203 429.612 135.203C426.415 135.203 423.541 134.474 420.991 133.017Z" fill="white"/>
<path d="M453.647 134.299C453.324 133.976 453.164 133.591 453.164 133.142V103.58C453.164 103.103 453.324 102.711 453.647 102.402C453.968 102.094 454.355 101.94 454.803 101.94H472.423C472.899 101.94 473.291 102.094 473.601 102.402C473.908 102.711 474.064 103.09 474.064 103.538C474.064 103.987 473.908 104.358 473.601 104.652C473.291 104.947 472.899 105.094 472.423 105.094H456.444V133.142C456.444 133.591 456.288 133.976 455.98 134.299C455.672 134.622 455.28 134.783 454.803 134.783C454.355 134.783 453.968 134.622 453.647 134.299Z" fill="white"/>
<path d="M500.994 130.283C503.056 129.079 504.673 127.431 505.852 125.342C507.029 123.254 507.617 120.92 507.617 118.34C507.617 115.79 507.029 113.469 505.852 111.381C504.673 109.292 503.056 107.645 500.994 106.439C498.934 105.235 496.628 104.632 494.077 104.632C491.497 104.632 489.177 105.235 487.117 106.439C485.057 107.645 483.438 109.292 482.26 111.381C481.082 113.469 480.494 115.79 480.494 118.34C480.494 120.92 481.082 123.254 482.26 125.342C483.438 127.431 485.057 129.079 487.117 130.283C489.177 131.489 491.497 132.092 494.077 132.092C496.628 132.092 498.934 131.489 500.994 130.283ZM485.456 133.017C482.904 131.559 480.906 129.547 479.464 126.982C478.018 124.417 477.297 121.537 477.297 118.34C477.297 115.145 478.018 112.271 479.464 109.719C480.906 107.168 482.904 105.165 485.456 103.706C488.006 102.249 490.881 101.52 494.077 101.52C497.244 101.52 500.112 102.249 502.676 103.706C505.241 105.165 507.245 107.168 508.689 109.719C510.133 112.271 510.856 115.145 510.856 118.34C510.856 121.537 510.133 124.417 508.689 126.982C507.245 129.547 505.241 131.559 502.676 133.017C500.112 134.474 497.244 135.203 494.077 135.203C490.881 135.203 488.006 134.474 485.456 133.017Z" fill="white"/>
<path d="M530.198 131.629C532.245 131.629 533.905 131.034 535.181 129.842C536.457 128.65 537.096 127.06 537.096 125.069C537.096 123.163 536.457 121.641 535.181 120.506C533.905 119.37 532.245 118.802 530.198 118.802H520.905V131.629H530.198ZM529.484 115.649C531.193 115.649 532.589 115.165 533.669 114.198C534.746 113.231 535.286 111.907 535.286 110.224C535.286 108.599 534.754 107.337 533.689 106.439C532.622 105.543 531.222 105.094 529.484 105.094H520.905V115.649H529.484ZM518.129 134.342C517.793 134.047 517.625 133.647 517.625 133.142V103.58C517.625 103.103 517.78 102.711 518.088 102.402C518.396 102.094 518.788 101.94 519.265 101.94H529.484C531.166 101.94 532.686 102.297 534.046 103.012C535.405 103.727 536.485 104.715 537.284 105.977C538.084 107.238 538.484 108.654 538.484 110.224C538.484 111.71 538.084 113.042 537.284 114.219C536.485 115.396 535.413 116.308 534.066 116.952C536.002 117.486 537.529 118.446 538.652 119.834C539.773 121.22 540.334 122.966 540.334 125.069C540.334 126.947 539.898 128.623 539.029 130.094C538.161 131.565 536.961 132.715 535.434 133.542C533.905 134.37 532.161 134.783 530.198 134.783H519.476C518.914 134.783 518.466 134.635 518.129 134.342Z" fill="white"/>
<path d="M89.8317 2.08553C89.9984 7.26153 90.1615 12.4366 90.2511 17.6131C90.2927 20.0694 91.0765 22.0981 92.6145 23.9386C96.9292 29.099 99.5047 35.0897 100.735 41.6443C101.484 45.6355 103.129 49.1069 105.741 52.1875C110.086 57.3099 113.88 62.8475 117.723 68.3449C118.411 69.3293 119.112 70.3074 119.782 71.3047C120.022 71.6615 120.22 72.0547 120.382 72.4533C121.001 73.9699 120.707 75.2173 119.557 76.073C118.608 76.7771 117.006 76.7251 115.953 75.7527C114.65 74.5481 113.396 73.2709 112.263 71.9074C109.666 68.7839 107.174 65.573 104.602 62.4282C103.553 61.1459 102.434 59.9167 101.292 58.7162C100.768 58.1642 100.137 57.7006 99.5047 57.2683C98.9792 56.9115 98.6708 57.1053 98.7271 57.7449C98.7849 58.3881 98.8292 59.0678 99.0697 59.6538C100.416 62.9194 101.768 66.185 103.219 69.4047C104.622 72.5183 106.145 75.5782 107.619 78.6599C108.687 80.8933 109.782 83.1157 110.822 85.3631C111.429 86.6746 111.879 88.0626 111.058 89.435C110.431 90.4855 109.492 91.2162 108.192 91.2318C106.996 91.2459 106.242 90.5533 105.724 89.5339C103.752 85.6547 101.815 81.7563 99.7864 77.9063C97.4573 73.4845 95.2568 68.9871 92.4188 64.8527C92.0703 64.3465 91.6407 63.8673 91.1631 63.4829C90.5276 62.9725 89.8473 63.1626 89.6421 63.949C89.4735 64.5975 89.3901 65.3527 89.5531 65.9871C91.0907 72.0001 92.8156 77.9585 94.7959 83.8449C96.1213 87.7866 97.2787 91.785 98.5161 95.7563C98.7573 96.5287 98.6792 97.2485 98.1287 97.8501C97.6787 98.3413 97.2183 98.8569 96.6677 99.2147C95.0693 100.255 93.2151 99.6235 92.5479 97.8475C90.8812 93.4115 89.1869 88.9845 87.5849 84.5246C85.8672 79.7475 84.2323 74.9386 82.5833 70.1366C82.1303 68.8178 81.7943 67.4621 80.8979 66.3386C79.6693 64.797 78.1161 64.8933 77.1099 66.573C76.5771 67.4637 76.512 68.4257 76.5161 69.4246C76.5469 76.0574 76.5688 82.6902 76.5797 89.323C76.5828 90.8866 76.5588 92.4506 76.5036 94.0115C76.4844 94.5585 76.4136 95.1277 76.2303 95.6381C75.8167 96.7814 75.0771 97.9011 73.2541 97.6938C72.9917 97.6642 72.7271 97.6485 72.4651 97.6183C71.1349 97.4662 70.5901 96.9741 70.4432 95.6199C70.1172 92.6095 69.7437 89.6001 69.5568 86.5809C69.1943 80.7042 68.9479 74.823 68.6521 68.9429C68.5765 67.4298 68.5145 65.9167 68.4052 64.4063C68.3713 63.935 68.4907 63.6511 68.7969 63.4829C68.426 62.4271 68.1421 61.3438 67.9255 60.2433C66.7969 57.8959 64.5667 55.1277 63.5027 53.6626C63.1875 53.2293 62.7989 52.7605 62.4109 52.2709C61.7016 51.8397 60.9844 51.4194 60.2459 51.0637C60.2 51.0418 60.2041 51.0418 60.176 51.0287C60.0667 50.9985 59.9573 50.9689 59.8479 50.9386C60.2932 50.9465 59.8297 50.9375 59.7229 50.9375L59.7203 50.9386C59.7344 50.9402 59.7547 50.9402 59.7989 50.9413C60.0869 50.9517 59.6891 51.0271 59.5807 51.0142C59.4031 51.1069 59.1536 51.2293 59.1068 51.259C58.5959 51.5782 58.026 51.7293 57.45 51.7605C57.1448 52.2823 56.8541 52.8151 56.5328 53.3266C55.7459 54.5793 54.7197 55.6875 53.7541 56.8205C52.2213 58.6173 51.0995 60.6651 50.1921 62.8137C49.3177 64.8855 45.5063 67.1929 43.1339 66.9793C42.5584 66.9271 41.9432 66.7318 41.4541 66.4298C40.2964 65.7147 40.1355 64.6495 40.9104 63.5271C41.9484 62.0235 43.038 60.5522 44.0088 59.0053C44.5131 58.2006 44.9677 57.3006 45.1713 56.3829C45.6667 54.1485 46.7464 52.2459 48.2369 50.5766C50.2979 48.2683 51.3156 45.5157 51.5869 42.5219C51.9672 38.3214 53.5364 34.7709 56.4697 31.7137C59.1031 28.9689 61.3484 25.885 63.3421 22.6407C64.1437 21.3345 64.7875 19.9251 65.4328 18.5303C66.2235 16.8241 65.9891 15.0501 65.6197 13.2875C64.762 9.19326 63.9125 5.09753 63.0339 1.00686C62.962 0.668202 62.8839 0.332206 62.8093 -0.00512695C27.4625 4.0242 0 34.0209 0 70.4454C0 93.949 11.4396 114.772 29.0464 127.677C28.9937 127.071 29.0021 126.574 29.0776 126.282C29.8547 123.271 26.5297 123.21 27.236 114.409C27.374 113.826 27.4547 113.124 27.5 112.376C27.6527 112.4 27.8047 112.421 27.9573 112.443C28.0021 112.448 28.0531 112.438 28.0959 112.421C28.6521 112.203 29.1536 112.357 29.5599 112.729C30.0125 113.143 30.5317 113.184 31.0875 113.158C31.1541 113.154 31.2235 113.138 31.2849 113.111C31.7057 112.931 32.1208 112.736 32.5459 112.566C32.9255 112.417 33.3172 112.297 33.7005 112.156C33.8609 112.099 34.0172 112.026 34.1713 111.953C34.3563 111.866 34.4823 111.732 34.5645 111.532C34.6355 111.361 34.764 111.212 34.8693 111.055C34.9 111.009 34.9516 110.975 34.9719 110.927C35.1869 110.426 35.6369 110.402 36.0855 110.374C36.2281 110.365 36.3724 110.37 36.5131 110.349C37.0563 110.266 37.5145 110.496 37.9729 110.73C38.9751 111.241 39.9781 111.749 40.9765 112.266C41.1693 112.366 41.3369 112.514 41.5255 112.624C41.676 112.71 41.8412 112.768 42.0088 112.844C42.0063 112.878 41.974 112.961 42.0011 113.016C42.1636 113.361 42.3396 113.698 42.5104 114.038C42.5208 113.97 42.5307 113.902 42.5412 113.835C42.4937 113.696 42.4396 113.559 42.3984 113.417C42.2265 112.826 41.8271 112.391 41.3927 111.991C40.8792 111.52 40.3536 111.06 39.8047 110.632C39.1208 110.097 38.3984 109.617 37.5667 109.329C37.4344 109.282 37.3104 109.197 37.2016 109.107C37.1636 109.077 37.1521 108.962 37.1787 108.913C37.2511 108.782 37.3849 108.676 37.4317 108.539C37.6172 107.996 37.8328 107.436 37.7437 106.862C37.6511 106.268 37.4443 105.69 37.2755 105.11C37.2552 105.039 37.1651 104.99 37.1167 104.94C37.1136 105.123 37.1005 105.29 37.1088 105.457C37.1208 105.681 37.1437 105.904 37.1703 106.126C37.2021 106.404 37.2797 106.681 37.2672 106.956C37.2563 107.199 37.1584 107.443 37.0817 107.68C37.0088 107.906 36.9271 108.132 36.8251 108.345C36.7271 108.551 36.6188 108.758 36.4765 108.934C36.3303 109.115 36.0953 109.134 35.8745 109.193C35.6349 109.256 35.3969 109.4 35.2104 109.566C35.0063 109.751 34.8328 109.986 34.6969 110.228C34.4292 110.704 34.0364 111.025 33.5521 111.243C33.1235 111.438 32.6875 111.616 32.2536 111.797C31.8047 111.985 31.3536 112.164 30.9073 112.355C30.7943 112.404 30.712 112.401 30.6084 112.328C30.3016 112.112 29.9989 111.886 29.6708 111.706C29.2672 111.483 28.8568 111.517 28.4844 111.805C28.3369 111.92 28.1896 111.948 28.0079 111.882C27.8516 111.824 27.6896 111.784 27.5297 111.737C27.6031 109.217 27.2631 106.23 26.7579 104.362C25.6765 100.365 24.8708 96.2929 23.9817 92.2459C23.7708 91.285 24.0995 90.6965 24.8303 90.4063C25.4995 90.1391 26.2563 90.3959 26.7437 91.1485C27.0489 91.6225 27.3052 92.147 27.4771 92.6823C28.5932 96.1651 29.6735 99.6599 30.7901 103.143C30.8921 103.464 31.1656 103.729 31.3593 104.02C31.4912 103.991 31.6235 103.962 31.7547 103.932C31.8427 102.899 32.0417 101.86 31.9995 100.829C31.8479 97.1433 31.5751 93.461 31.4349 89.7746C31.3907 88.5923 31.536 87.3866 31.7417 86.2173C31.8953 85.3465 32.6079 85.0079 33.5797 85.099C34.4073 85.1782 34.7849 85.6757 34.8541 86.4569C34.9855 87.9099 35.1063 89.3631 35.2339 90.8162C35.5276 94.147 35.8021 97.4803 36.1364 100.808C36.1948 101.386 36.4917 101.944 36.7084 102.5C36.8953 102.978 37.2333 102.97 37.4541 102.572C37.712 102.105 37.9703 101.59 38.0297 101.073C38.4151 97.7225 38.7459 94.3647 39.0959 91.009C39.3005 89.0454 39.486 87.0793 39.724 85.1199C39.8407 84.1615 40.5688 83.5714 41.4803 83.5793C42.4855 83.5897 43.0391 84.0782 43.1312 85.1547C43.2084 86.0637 43.2683 86.9855 43.2084 87.8933C42.9005 92.5418 42.5385 97.1875 42.2355 101.836C42.1973 102.418 42.3219 103.038 42.4989 103.599C42.7188 104.297 43.3907 104.514 43.9109 104.006C44.4869 103.444 45.0531 102.785 45.3693 102.058C46.9891 98.3345 48.5235 94.5741 50.0989 90.8318C50.264 90.4413 50.4527 90.0402 50.7177 89.7162C51.3349 88.9585 51.9839 88.8839 52.936 89.3803C53.736 89.797 53.9151 90.2511 53.6421 91.2371C53.5047 91.7329 53.3531 92.2266 53.1823 92.711C51.6849 96.9751 50.2645 101.27 48.6479 105.488C47.7536 107.822 47.2713 110.125 47.764 112.591C47.7755 112.647 47.7631 112.707 47.7735 112.763C47.9448 113.685 48.0011 114.65 48.3203 115.518C48.6828 116.501 49.2735 116.602 50.1489 116.024C52.5328 114.451 54.9131 112.874 57.2891 111.29C58.6401 110.389 60.4964 110.314 61.6656 111.133C62.3719 111.628 62.4995 112.529 61.8068 113.008C59.874 114.344 58.038 115.785 56.3948 117.467C56.3167 117.547 56.2136 117.616 56.1093 117.656C53.9057 118.526 52.5584 120.277 51.3896 122.22C50.6197 123.498 49.5645 124.474 48.2469 125.184C46.6344 126.053 45.0479 126.972 43.4312 127.835C43.0953 127.501 42.8527 127.099 42.7312 126.591C42.7057 126.485 42.6271 126.378 42.5459 126.301C42.0573 125.834 42.1079 125.934 42.4864 125.29C42.9339 124.532 43.7099 124.121 44.3828 123.605C44.4697 123.539 44.5953 123.516 44.7068 123.49C45.2989 123.349 45.8973 123.292 46.3536 122.761C46.5724 122.506 47.0276 122.456 47.3751 122.311C48.1188 122.005 48.8453 121.629 49.6984 121.669C49.4079 121.65 49.1031 121.566 48.8297 121.625C48.3224 121.735 47.8328 121.926 47.3375 122.086C47.1167 122.157 46.8896 122.219 46.6823 122.321C46.3484 122.483 46.0443 122.715 45.7 122.847C45.2984 122.999 44.8547 123.043 44.4505 123.191C43.6921 123.471 43.0797 123.97 42.4995 124.53C42.2568 124.763 41.8875 124.868 41.5693 125.017C41.5229 125.039 41.4317 124.992 41.3735 124.957C40.476 124.423 39.5693 123.904 38.6891 123.344C38.3041 123.099 37.9708 122.774 37.6208 122.477C37.5328 122.402 37.4855 122.274 37.3901 122.216C36.7421 121.829 36.3787 121.182 36.1031 120.551C35.9161 120.123 36.0312 119.539 36.0855 119.032C36.1245 118.668 36.2625 118.306 36.4 117.961C36.5484 117.586 36.7172 117.212 36.9307 116.871C37.1797 116.474 37.1973 116.089 37.0459 115.664C36.9885 115.503 36.9839 115.323 36.9552 115.151C36.9312 115.152 36.9079 115.152 36.8844 115.152C36.8724 115.233 36.8369 115.318 36.8527 115.391C37.0401 116.271 36.5588 116.902 36.0869 117.552C35.9495 117.741 35.9323 118.014 35.8412 118.241C35.6317 118.764 35.4057 119.28 35.1953 119.802C35.0807 120.086 34.9041 119.983 34.6969 119.927C33.8328 119.691 33.4401 118.944 32.9229 118.332C32.5693 117.914 32.2656 117.443 31.8645 117.078C31.4995 116.746 31.0333 116.524 30.6115 116.253C30.5901 116.284 30.5688 116.316 30.5469 116.348C30.8745 116.585 31.1969 116.828 31.5303 117.056C31.9751 117.358 32.2625 117.736 32.438 118.27C32.5672 118.66 32.9584 118.959 33.1943 119.321C33.6011 119.949 34.2604 120.22 34.8588 120.59C35.2057 120.805 35.5125 121.1 35.7984 121.397C36.2979 121.914 36.7593 122.466 37.2536 122.988C37.3688 123.11 37.5645 123.15 37.6973 123.259C37.876 123.404 38.0281 123.581 38.1584 123.808C37.4073 123.697 36.6839 123.469 35.9781 124.026C36.2885 123.938 36.5516 123.793 36.8093 123.803C37.2656 123.821 37.7563 123.848 38.1656 124.024C38.8688 124.327 39.6688 124.388 40.2464 125.038C40.7369 125.591 41.4265 125.964 41.9833 126.465C42.264 126.719 42.4912 127.06 42.6588 127.404C42.7776 127.644 42.8959 127.871 43.0604 128.052C42.424 128.478 42.1823 129.71 42.1953 129.742C42.3145 131.263 42.936 134.166 42.8292 135.578C51.4469 139.3 60.9432 141.372 70.9271 141.372C110.099 141.372 141.855 109.617 141.855 70.4454C141.855 37.823 119.822 10.3626 89.8317 2.08553Z" fill="white"/>
</g>
</g>
<defs>
<clipPath id="clip0_55_3">
<rect width="541" height="142" fill="white"/>
</clipPath>
</defs>
</svg>
