<svg width="45" height="45" viewBox="0 0 45 45" fill="none" xmlns="http://www.w3.org/2000/svg">
<path d="M32.1429 24.1463C38.7643 17.978 45 12.2049 45 7.2439C45 3.18293 41.8929 0 37.9286 0C35.7 0 33.5357 1.07561 32.1429 2.7439C30.7286 1.07561 28.5857 0 26.3572 0C22.3929 0 19.2858 3.18293 19.2858 7.2439C19.2858 12.2049 25.5215 17.978 32.1429 24.1463ZM26.3572 4.39024C27.3 4.39024 28.2643 4.85122 28.8857 5.59756L32.1429 9.52682L35.4 5.59756C36.0214 4.85122 36.9857 4.39024 37.9286 4.39024C39.5143 4.39024 40.7143 5.61951 40.7143 7.2439C40.7143 9.70243 36.3429 14.2024 32.1429 18.1976C27.9429 14.2024 23.5715 9.68048 23.5715 7.2439C23.5715 5.61951 24.7715 4.39024 26.3572 4.39024Z" fill="#FEFEFE"/>
<path d="M38.5714 30.7317H34.2857C34.2857 28.0976 32.6785 25.7268 30.2785 24.8049L17.0785 19.7561H0V43.9024H12.8571V40.7415L27.8571 45L44.9999 39.5122V37.3171C44.9999 33.6732 42.1285 30.7317 38.5714 30.7317ZM4.28571 39.5122V24.1464H8.57141V39.5122H4.28571ZM27.7928 40.4122L12.8571 36.1756V24.1464H16.3071L28.7785 28.9098C29.5071 29.1951 30 29.9195 30 30.7317C30 30.7317 25.7357 30.622 25.0714 30.4024L19.9714 28.6683L18.6214 32.839L23.7214 34.5732C24.8142 34.9463 25.95 35.1439 27.1071 35.1439H38.5714C39.4071 35.1439 40.1571 35.6488 40.4999 36.3732L27.7928 40.4122Z" fill="#FEFEFE"/>
</svg>
