<svg width="35" height="43" viewBox="0 0 35 43" fill="none" xmlns="http://www.w3.org/2000/svg">
<path d="M17.2628 21.15C18.3543 21.15 19.275 20.7791 20.025 20.0372C20.775 19.2953 21.15 18.3786 21.15 17.2871C21.15 16.1957 20.7756 15.275 20.0267 14.525C19.2779 13.775 18.353 13.4 17.2518 13.4C16.1506 13.4 15.2333 13.7744 14.5 14.5233C13.7667 15.2721 13.4 16.1971 13.4 17.2983C13.4 18.3994 13.7709 19.3167 14.5128 20.05C15.2547 20.7833 16.1714 21.15 17.2628 21.15ZM17.25 36.35C21.5167 32.5167 24.675 29.1167 26.725 26.15C28.775 23.1833 29.8 20.3167 29.8 17.55C29.8 13.7995 28.5893 10.7285 26.1679 8.3371C23.7465 5.9457 20.7764 4.75 17.2575 4.75C13.7386 4.75 10.766 5.9457 8.3396 8.3371C5.9132 10.7285 4.7 13.7995 4.7 17.55C4.7 20.3167 5.75 23.175 7.85 26.125C9.95 29.075 13.0833 32.4833 17.25 36.35ZM17.25 42.55C11.4833 37.75 7.16667 33.3583 4.3 29.375C1.43333 25.3917 0 21.45 0 17.55C0 12.226 1.73398 7.97003 5.20195 4.782C8.66992 1.594 12.6859 0 17.25 0C21.7998 0 25.8206 1.594 29.3124 4.782C32.8041 7.97003 34.55 12.226 34.55 17.55C34.55 21.45 33.1083 25.3917 30.225 29.375C27.3417 33.3583 23.0167 37.75 17.25 42.55Z" fill="#7AB8AD"/>
</svg>
