<svg width="34" height="29" viewBox="0 0 34 29" fill="none" xmlns="http://www.w3.org/2000/svg">
<path d="M1.31161 28.8588C0.922648 28.8588 0.606804 28.7316 0.364082 28.4773C0.121361 28.2229 0 27.9078 0 27.5318C0 27.1558 0.121361 26.8428 0.364082 26.5927C0.606804 26.3426 0.922648 26.2176 1.31161 26.2176H32.6572C33.0461 26.2176 33.362 26.3434 33.6047 26.595C33.8474 26.8467 33.9688 27.1585 33.9688 27.5305C33.9688 27.9025 33.8474 28.2169 33.6047 28.4736C33.362 28.7304 33.0461 28.8588 32.6572 28.8588H1.31161ZM4.8422 24.0166C3.88721 24.0166 3.07376 23.6806 2.40184 23.0087C1.72993 22.3368 1.39397 21.5234 1.39397 20.5684V3.62066C1.39397 2.65557 1.72993 1.83348 2.40184 1.1544C3.07376 0.475295 3.88721 0.135742 4.8422 0.135742H29.1266C30.0917 0.135742 30.9138 0.475295 31.5928 1.1544C32.2719 1.83348 32.6115 2.65557 32.6115 3.62066V20.5684C32.6115 21.5234 32.2719 22.3368 31.5928 23.0087C30.9138 23.6806 30.0917 24.0166 29.1266 24.0166H4.8422ZM4.8422 20.5684H29.1266V3.62066H4.8422V20.5684Z" fill="#7AB8AD"/>
</svg>
