<svg width="47" height="40" viewBox="0 0 47 40" fill="none" xmlns="http://www.w3.org/2000/svg">
<path d="M1.78775 39.15C1.25758 39.15 0.827083 38.9767 0.49625 38.63C0.165417 38.2833 0 37.8537 0 37.3413C0 36.8288 0.165417 36.4021 0.49625 36.0612C0.827083 35.7204 1.25758 35.55 1.78775 35.55H44.5122C45.0424 35.55 45.4729 35.7215 45.8038 36.0644C46.1346 36.4074 46.3 36.8325 46.3 37.3395C46.3 37.8465 46.1346 38.275 45.8038 38.625C45.4729 38.975 45.0424 39.15 44.5122 39.15H1.78775ZM6.6 32.55C5.29833 32.55 4.18958 32.0921 3.27375 31.1763C2.35792 30.2604 1.9 29.1517 1.9 27.85V4.75C1.9 3.43457 2.35792 2.31405 3.27375 1.38845C4.18958 0.462816 5.29833 0 6.6 0H39.7C41.0154 0 42.136 0.462816 43.0616 1.38845C43.9872 2.31405 44.45 3.43457 44.45 4.75V27.85C44.45 29.1517 43.9872 30.2604 43.0616 31.1763C42.136 32.0921 41.0154 32.55 39.7 32.55H6.6ZM6.6 27.85H39.7V4.75H6.6V27.85Z" fill="white"/>
</svg>
