<svg width="453" height="452" viewBox="0 0 453 452" fill="none" xmlns="http://www.w3.org/2000/svg">
<path opacity="0.5" d="M173.184 437.453C182.882 447.151 194.571 452 208.253 452C221.934 452 233.623 447.151 243.322 437.453L438.149 242.625C443.345 237.43 446.981 231.888 449.06 226C451.138 220.112 452.177 213.877 452.177 207.297V49.3563C452.177 35.5019 447.501 23.8123 438.149 14.2874C428.797 4.76245 417.194 0 403.34 0H245.4C238.819 0 232.411 1.12567 226.177 3.37701C219.942 5.62835 214.227 9.35172 209.032 14.5471L15.2434 207.816C5.19896 217.861 0.17674 229.81 0.17674 243.664C0.17674 257.519 5.19896 269.468 15.2434 279.513L173.184 437.453ZM206.434 403.683L48.494 245.743L245.4 49.3563H403.34V207.297L206.434 403.683ZM348.788 130.405C341.515 130.405 335.194 127.72 329.825 122.352C324.456 116.983 321.772 110.662 321.772 103.389C321.772 96.1149 324.456 89.7939 329.825 84.4253C335.194 79.0567 341.515 76.3724 348.788 76.3724C356.062 76.3724 362.383 79.0567 367.751 84.4253C373.12 89.7939 375.804 96.1149 375.804 103.389C375.804 110.662 373.12 116.983 367.751 122.352C362.383 127.72 356.062 130.405 348.788 130.405Z" fill="#7AB8AD"/>
</svg>
