<svg width="54" height="41" viewBox="0 0 54 41" fill="none" xmlns="http://www.w3.org/2000/svg">
<path d="M0 41V28.4016C0 24.9021 0.685891 21.3657 2.05767 17.7924C3.46653 14.1824 5.28321 10.8302 7.50772 7.73585C9.76931 4.60467 12.105 2.02606 14.5149 0L26.0824 6.29919C24.0803 9.54088 22.4861 12.9299 21.2997 16.4663C20.1133 19.9659 19.5386 23.9259 19.5757 28.3464V41H0ZM27.9176 41V28.4016C27.9176 24.9021 28.6035 21.3657 29.9753 17.7924C31.3841 14.1824 33.2008 10.8302 35.4253 7.73585C37.6869 4.60467 40.0227 2.02606 42.4325 0L54 6.29919C51.9979 9.54088 50.4037 12.9299 49.2173 16.4663C48.0309 19.9659 47.4562 23.9259 47.4933 28.3464V41H27.9176Z" fill="#FEFEFE"/>
</svg>
