<svg width="2047" height="55" viewBox="0 0 2047 55" fill="none" xmlns="http://www.w3.org/2000/svg">
<g clip-path="url(#clip0_223_1237)">
<path fill-rule="evenodd" clip-rule="evenodd" d="M0 898L2047 898V55H1572.61C1523.1 55.8337 1473.41 55.9069 1421.95 55H0.000242949V33.4301C0.000191523 33.4301 0.000140097 33.4301 8.86713e-05 33.4301L0 898ZM2047 33.4302C2018.68 34.9765 1991.31 36.4994 1964.72 37.9785C1818.49 46.1121 1696.09 52.9209 1572.61 55H1421.95C1311.45 53.0527 1192.77 46.5872 1050.01 33.4302C631.841 -8.39642 402.259 -8.55688 0.000242949 33.4301V-2H2047L2047 33.4302Z" fill="white"/>
</g>
<defs>
<clipPath id="clip0_223_1237">
<rect width="2047" height="55" fill="white" transform="matrix(1 0 0 -1 0 55)"/>
</clipPath>
</defs>
</svg>
