<svg width="25" height="25" viewBox="0 0 25 25" fill="none" xmlns="http://www.w3.org/2000/svg">
<mask id="mask0_401_43" style="mask-type:alpha" maskUnits="userSpaceOnUse" x="0" y="0" width="25" height="25">
<rect x="0.611572" y="0.187927" width="24" height="24" fill="#D9D9D9"/>
</mask>
<g mask="url(#mask0_401_43)">
<path d="M12.6116 23.1879C10.7449 23.1879 9.02824 22.7629 7.46157 21.9129C5.89491 21.0629 4.61157 19.9296 3.61157 18.5129V21.1879H1.61157V15.1879H7.61157V17.1879H5.13657C5.93657 18.3879 6.99074 19.3546 8.29907 20.0879C9.60741 20.8213 11.0449 21.1879 12.6116 21.1879C13.8616 21.1879 15.0324 20.9504 16.1241 20.4754C17.2157 20.0004 18.1657 19.3588 18.9741 18.5504C19.7824 17.7421 20.4241 16.7921 20.8991 15.7004C21.3741 14.6088 21.6116 13.4379 21.6116 12.1879H23.6116C23.6116 13.7046 23.3241 15.1296 22.7491 16.4629C22.1741 17.7963 21.3866 18.9629 20.3866 19.9629C19.3866 20.9629 18.2199 21.7504 16.8866 22.3254C15.5532 22.9004 14.1282 23.1879 12.6116 23.1879ZM11.7116 19.1879V17.8879C10.9282 17.7046 10.2907 17.3671 9.79907 16.8754C9.30741 16.3838 8.94491 15.7379 8.71157 14.9379L10.3616 14.2879C10.5616 14.9713 10.8741 15.4838 11.2991 15.8254C11.7241 16.1671 12.2116 16.3379 12.7616 16.3379C13.3116 16.3379 13.7824 16.2088 14.1741 15.9504C14.5657 15.6921 14.7616 15.2879 14.7616 14.7379C14.7616 14.2546 14.5574 13.8629 14.1491 13.5629C13.7407 13.2629 13.0116 12.9213 11.9616 12.5379C10.9782 12.1879 10.2574 11.7713 9.79907 11.2879C9.34074 10.8046 9.11157 10.1713 9.11157 9.38793C9.11157 8.70459 9.34907 8.08376 9.82407 7.52543C10.2991 6.96709 10.9449 6.60459 11.7616 6.43793V5.18793H13.5116V6.43793C14.1116 6.48793 14.6574 6.72959 15.1491 7.16293C15.6407 7.59626 15.9782 8.10459 16.1616 8.68793L14.5616 9.33793C14.4282 8.95459 14.2116 8.63376 13.9116 8.37543C13.6116 8.11709 13.1949 7.98793 12.6616 7.98793C12.0782 7.98793 11.6324 8.11293 11.3241 8.36293C11.0157 8.61293 10.8616 8.95459 10.8616 9.38793C10.8616 9.82126 11.0532 10.1629 11.4366 10.4129C11.8199 10.6629 12.5116 10.9546 13.5116 11.2879C14.7116 11.7213 15.5116 12.2296 15.9116 12.8129C16.3116 13.3963 16.5116 14.0379 16.5116 14.7379C16.5116 15.2213 16.4282 15.6463 16.2616 16.0129C16.0949 16.3796 15.8741 16.6921 15.5991 16.9504C15.3241 17.2088 15.0032 17.4171 14.6366 17.5754C14.2699 17.7338 13.8782 17.8546 13.4616 17.9379V19.1879H11.7116ZM1.61157 12.1879C1.61157 10.6713 1.89907 9.24626 2.47407 7.91293C3.04907 6.57959 3.83657 5.41293 4.83657 4.41293C5.83657 3.41293 7.00324 2.62543 8.33657 2.05043C9.66991 1.47543 11.0949 1.18793 12.6116 1.18793C14.4782 1.18793 16.1949 1.61293 17.7616 2.46293C19.3282 3.31293 20.6116 4.44626 21.6116 5.86293V3.18793H23.6116V9.18793H17.6116V7.18793H20.0866C19.2866 5.98793 18.2324 5.02126 16.9241 4.28793C15.6157 3.55459 14.1782 3.18793 12.6116 3.18793C11.3616 3.18793 10.1907 3.42543 9.09907 3.90043C8.00741 4.37543 7.05741 5.01709 6.24907 5.82543C5.44074 6.63376 4.79907 7.58376 4.32407 8.67543C3.84907 9.76709 3.61157 10.9379 3.61157 12.1879H1.61157Z" fill="#58BBB4"/>
</g>
</svg>
