<svg width="32" height="31" viewBox="0 0 32 31" fill="none" xmlns="http://www.w3.org/2000/svg">
<path d="M18.4524 30.8647C15.5318 30.8647 13.1066 29.8622 11.1768 27.8571C9.24709 25.852 8.28222 23.4574 8.28222 20.6733V19.3323C6.06564 19.0513 4.20762 18.0844 2.70817 16.4315C1.20871 14.7786 0.458984 12.8337 0.458984 10.5967V1.78459H5.15293V0.252037H7.4999V5.61596H5.15293V4.08341H2.80596V10.5844C2.80596 12.4061 3.45137 13.9492 4.74221 15.2136C6.03304 16.4779 7.60421 17.1101 9.45571 17.1101C11.3072 17.1101 12.8784 16.4779 14.1692 15.2136C15.46 13.9492 16.1055 12.4061 16.1055 10.5844V4.08341H13.7585V5.61596H11.4115V0.252037H13.7585V1.78459H18.4524V10.5967C18.4524 12.8337 17.7027 14.7786 16.2033 16.4315C14.7038 18.0844 12.8458 19.0513 10.6292 19.3323V20.6733C10.6292 22.8444 11.3659 24.7026 12.8393 26.2479C14.3126 27.7932 16.1837 28.5659 18.4524 28.5659C20.5647 28.5659 22.3967 27.7977 23.9483 26.2612C25.4999 24.7248 26.2757 22.8591 26.2757 20.6643V17.7231C25.363 17.4677 24.6132 16.9696 24.0265 16.2289C23.4397 15.4881 23.1464 14.6325 23.1464 13.6618C23.1464 12.4912 23.5652 11.4961 24.4027 10.6766C25.2402 9.85707 26.2573 9.44733 27.4538 9.44733C28.6503 9.44733 29.6657 9.85707 30.5002 10.6766C31.3347 11.4961 31.7519 12.4912 31.7519 13.6618C31.7519 14.6325 31.4586 15.4881 30.8718 16.2289C30.2851 16.9696 29.5354 17.4677 28.6226 17.7231V20.6733C28.6226 23.5085 27.6252 25.9159 25.6303 27.8954C23.6353 29.8749 21.2427 30.8647 18.4524 30.8647ZM27.4423 15.5775C27.9945 15.5775 28.4597 15.3946 28.8378 15.0287C29.2159 14.6628 29.405 14.2094 29.405 13.6686C29.405 13.1277 29.2182 12.6721 28.8446 12.3017C28.4711 11.9313 28.0082 11.7462 27.456 11.7462C26.9038 11.7462 26.4387 11.9291 26.0605 12.295C25.6824 12.6609 25.4934 13.1143 25.4934 13.6551C25.4934 14.196 25.6801 14.6516 26.0537 15.022C26.4272 15.3923 26.8901 15.5775 27.4423 15.5775Z" fill="#FEFEFE"/>
</svg>
