<svg width="754" height="754" viewBox="0 0 754 754" fill="none" xmlns="http://www.w3.org/2000/svg">
<path d="M531.05 226C531.2 226 531.4 226 531.6 226C536.825 226 541.675 227.625 545.65 230.425L545.575 230.375C548.475 232.9 550.425 236.45 550.9 240.45V240.525C551.4 243.575 551.675 247.075 551.675 250.65C551.675 252.275 551.625 253.875 551.5 255.475V255.25C545.875 314.475 521.475 458.1 509.075 524.4C503.825 552.475 493.5 561.875 483.5 562.775C461.775 564.8 445.275 548.425 424.225 534.625C391.275 513 372.65 499.55 340.675 478.475C303.7 454.15 327.675 440.725 348.725 418.875C354.25 413.125 450.025 326 451.9 318.1C452 317.625 452.05 317.1 452.05 316.55C452.05 314.6 451.325 312.825 450.15 311.475C448.85 310.625 447.225 310.15 445.525 310.15C444.4 310.15 443.325 310.375 442.325 310.75L442.375 310.725C439.075 311.475 386.442 346.258 284.475 415.075C273.35 423.85 259.3 429.4 244 430.05H243.85C222.175 427.425 202.5 422.6 183.825 415.725L185.675 416.325C162.225 408.675 143.6 404.65 145.2 391.7C146.05 384.967 155.333 378.075 173.05 371.025C282.183 323.475 354.958 292.133 391.375 277C431.55 255.675 478.125 238.125 527.1 226.75L531.025 225.975L531.05 226ZM376.25 0.625C168.7 1.125 0.625 169.5 0.625 377.125C0.625 585.05 169.175 753.625 377.125 753.625C585.075 753.625 753.625 585.075 753.625 377.125C753.625 169.5 585.55 1.125 378.05 0.625H378C377.417 0.625 376.833 0.625 376.25 0.625Z" fill="white"/>
</svg>
