<svg width="668" height="668" viewBox="0 0 668 668" fill="none" xmlns="http://www.w3.org/2000/svg">
<path d="M436.431 0.666504H231.916C45.1102 0.666504 0.666504 45.1102 0.666504 231.568V436.083C0.666504 622.887 44.7645 667.333 231.568 667.333H436.083C622.889 667.333 667.333 623.235 667.333 436.429V231.916C667.333 45.1102 623.235 0.666504 436.431 0.666504ZM538.86 476.36H490.25C471.848 476.36 466.291 461.429 433.306 428.443C404.485 400.666 392.333 397.193 385.041 397.193C374.973 397.193 372.193 399.971 372.193 413.86V457.61C372.193 469.416 368.375 476.36 337.473 476.36C307.486 474.345 278.406 465.236 252.629 449.782C226.852 434.327 205.115 412.971 189.208 387.471C151.445 340.468 125.17 285.302 112.473 226.36C112.473 219.068 115.25 212.471 129.139 212.471H177.75C190.25 212.471 194.764 218.027 199.625 230.875C223.235 300.318 263.514 360.735 279.833 360.735C286.083 360.735 288.86 357.958 288.86 342.333V270.804C286.777 238.166 269.416 235.387 269.416 223.583C269.645 220.469 271.078 217.566 273.412 215.491C275.746 213.417 278.797 212.333 281.916 212.471H358.306C368.723 212.471 372.193 217.679 372.193 230.179V326.708C372.193 337.125 376.708 340.596 379.833 340.596C386.083 340.596 390.943 337.125 402.402 325.666C427.025 295.639 447.144 262.186 462.125 226.36C463.654 222.049 466.552 218.358 470.377 215.85C474.202 213.342 478.743 212.155 483.306 212.471H531.916C546.5 212.471 549.625 219.762 546.5 230.179C528.812 269.79 506.928 307.389 481.223 342.333C476.015 350.318 473.931 354.485 481.223 363.86C486.083 371.152 503.098 385.387 514.556 398.929C531.222 415.554 545.061 434.789 555.527 455.875C559.693 469.416 552.75 476.36 538.86 476.36Z" fill="white"/>
</svg>
