<svg width="53" height="49" viewBox="0 0 53 49" fill="none" xmlns="http://www.w3.org/2000/svg">
<path d="M13.2658 31.2271C13.9921 31.2271 14.601 30.9814 15.0924 30.49C15.5838 29.9986 15.8295 29.3897 15.8295 28.6633C15.8295 27.937 15.5838 27.3281 15.0924 26.8367C14.601 26.3453 13.9921 26.0996 13.2658 26.0996C12.5394 26.0996 11.9305 26.3453 11.4391 26.8367C10.9477 27.3281 10.702 27.937 10.702 28.6633C10.702 29.3897 10.9477 29.9986 11.4391 30.49C11.9305 30.9814 12.5394 31.2271 13.2658 31.2271ZM13.2658 23.5359C13.9921 23.5359 14.601 23.2903 15.0924 22.7989C15.5838 22.3075 15.8295 21.6986 15.8295 20.9722C15.8295 20.2459 15.5838 19.637 15.0924 19.1456C14.601 18.6542 13.9921 18.4085 13.2658 18.4085C12.5394 18.4085 11.9305 18.6542 11.4391 19.1456C10.9477 19.637 10.702 20.2459 10.702 20.9722C10.702 21.6986 10.9477 22.3075 11.4391 22.7989C11.9305 23.2903 12.5394 23.5359 13.2658 23.5359ZM13.2658 15.8448C13.9921 15.8448 14.601 15.5991 15.0924 15.1078C15.5838 14.6164 15.8295 14.0075 15.8295 13.2811C15.8295 12.5548 15.5838 11.9459 15.0924 11.4545C14.601 10.9631 13.9921 10.7174 13.2658 10.7174C12.5394 10.7174 11.9305 10.9631 11.4391 11.4545C10.9477 11.9459 10.702 12.5548 10.702 13.2811C10.702 14.0075 10.9477 14.6164 11.4391 15.1078C11.9305 15.5991 12.5394 15.8448 13.2658 15.8448ZM22.8155 30.5861H31.7885C32.3333 30.5861 32.79 30.4008 33.1585 30.0301C33.527 29.6594 33.7113 29.2001 33.7113 28.6521C33.7113 28.1041 33.527 27.6485 33.1585 27.2854C32.79 26.9222 32.3333 26.7406 31.7885 26.7406H22.8155C22.2708 26.7406 21.8141 26.9259 21.4456 27.2966C21.077 27.6673 20.8928 28.1266 20.8928 28.6746C20.8928 29.2226 21.077 29.6781 21.4456 30.0413C21.8141 30.4045 22.2708 30.5861 22.8155 30.5861ZM22.8155 22.895H39.5437C40.0885 22.895 40.5452 22.7097 40.9137 22.339C41.2822 21.9683 41.4665 21.509 41.4665 20.961C41.4665 20.413 41.2822 19.9574 40.9137 19.5943C40.5452 19.2311 40.0885 19.0495 39.5437 19.0495H22.8155C22.2708 19.0495 21.8141 19.2348 21.4456 19.6055C21.077 19.9762 20.8928 20.4355 20.8928 20.9835C20.8928 21.5314 21.077 21.987 21.4456 22.3502C21.8141 22.7134 22.2708 22.895 22.8155 22.895ZM22.8155 15.2039H39.5437C40.0885 15.2039 40.5452 15.0186 40.9137 14.6479C41.2822 14.2772 41.4665 13.8179 41.4665 13.2699C41.4665 12.7219 41.2822 12.2663 40.9137 11.9031C40.5452 11.54 40.0885 11.3584 39.5437 11.3584H22.8155C22.2708 11.3584 21.8141 11.5437 21.4456 11.9144C21.077 12.2851 20.8928 12.7444 20.8928 13.2923C20.8928 13.8403 21.077 14.2959 21.4456 14.6591C21.8141 15.0223 22.2708 15.2039 22.8155 15.2039ZM10.2548 41.8009L3.72852 48.3272C3.03833 49.0174 2.24437 49.1766 1.34665 48.8047C0.448883 48.4329 0 47.7689 0 46.8127V4.38201C0 3.19856 0.432945 2.17238 1.29884 1.30345C2.16477 0.434486 3.18737 0 4.36663 0H47.6737C48.8572 0 49.8834 0.434486 50.7523 1.30345C51.6212 2.17238 52.0557 3.19856 52.0557 4.38201V37.4343C52.0557 38.6135 51.6212 39.6361 50.7523 40.5021C49.8834 41.368 48.8572 41.8009 47.6737 41.8009H10.2548ZM4.36663 37.4343H47.6737V4.38201H4.36663V37.4343Z" fill="#FEFEFE"/>
</svg>
