<svg width="49" height="49" viewBox="0 0 49 49" fill="none" xmlns="http://www.w3.org/2000/svg">
<path d="M16.9352 30.3881C16.0096 30.3881 15.2327 30.0695 14.6045 29.4322C13.9763 28.7949 13.6621 28.0135 13.6621 27.0879C13.6621 26.1622 13.9808 25.3853 14.6181 24.7571C15.2554 24.1289 16.0368 23.8148 16.9625 23.8148C17.8881 23.8148 18.665 24.1334 19.2932 24.7707C19.9214 25.408 20.2356 26.1894 20.2356 27.115C20.2356 28.0406 19.9169 28.8176 19.2796 29.4458C18.6423 30.074 17.8609 30.3881 16.9352 30.3881ZM32.0834 30.3881C31.1578 30.3881 30.3809 30.0695 29.7527 29.4322C29.1244 28.7949 28.8103 28.0135 28.8103 27.0879C28.8103 26.1622 29.1289 25.3853 29.7662 24.7571C30.4035 24.1289 31.185 23.8148 32.1106 23.8148C33.0362 23.8148 33.8156 24.1334 34.4486 24.7707C35.0816 25.408 35.3981 26.1894 35.3981 27.115C35.3981 28.0406 35.0771 28.8176 34.4349 29.4458C33.7929 30.074 33.009 30.3881 32.0834 30.3881ZM24.4928 44.8897C30.1806 44.8897 35.0021 42.914 38.9571 38.9625C42.9121 35.011 44.8896 30.1885 44.8896 24.495C44.8896 23.4652 44.8092 22.4533 44.6483 21.4594C44.4874 20.4654 44.2863 19.5499 44.045 18.7129C43.2406 18.9237 42.3765 19.0668 41.4528 19.1424C40.529 19.2181 39.5534 19.2559 38.5259 19.2559C34.6376 19.2559 30.967 18.4587 27.5143 16.8643C24.0616 15.2699 21.1134 12.9894 18.6696 10.0227C17.3117 13.2517 15.3654 16.0732 12.8307 18.4873C10.2959 20.9014 7.39394 22.7721 4.12472 24.0993V24.5217C4.12472 30.2077 6.09921 35.0239 10.0482 38.9702C13.9972 42.9165 18.812 44.8897 24.4928 44.8897ZM24.5052 49C21.1186 49 17.936 48.3569 14.9574 47.0708C11.9789 45.7846 9.38413 44.0377 7.17327 41.8301C4.9624 39.6225 3.21413 37.0297 1.92846 34.0518C0.642819 31.074 0 27.8922 0 24.5064C0 21.1206 0.642819 17.9391 1.92846 14.9619C3.21413 11.9847 4.9624 9.39224 7.17327 7.18455C9.38413 4.97683 11.9794 3.22747 14.9591 1.93648C17.9388 0.645495 21.1226 0 24.5105 0C27.8984 0 31.0793 0.645495 34.0534 1.93648C37.0275 3.22747 39.619 4.97574 41.828 7.18129C44.037 9.38685 45.7845 11.979 47.0707 14.9579C48.3569 17.9367 49 21.1196 49 24.5065C49 27.8934 48.3574 31.0759 47.0721 34.0542C45.7868 37.0325 44.0392 39.6259 41.829 41.8344C39.6188 44.0429 37.0248 45.7893 34.0468 47.0736C31.0689 48.3579 27.8883 49 24.5052 49ZM18.9424 4.77924C22.4817 8.92192 25.7496 11.7574 28.746 13.2858C31.7424 14.8142 35.0304 15.5784 38.61 15.5784C39.5753 15.5784 40.3395 15.5583 40.9026 15.518C41.4657 15.4778 42.0891 15.3571 42.7728 15.156C40.9629 11.8982 38.4994 9.22357 35.3824 7.13212C32.2653 5.04067 28.6354 3.99495 24.4928 3.99495C23.4068 3.99495 22.3812 4.07539 21.4159 4.23627C20.4506 4.39715 19.6261 4.57814 18.9424 4.77924ZM4.52344 19.8015C6.45401 19.0775 8.65606 17.4385 11.1296 14.8846C13.6031 12.3306 15.3628 9.24368 16.4085 5.62387C12.9093 7.19245 10.2649 9.19341 8.47507 11.6267C6.68528 14.06 5.36807 16.785 4.52344 19.8015Z" fill="#FEFEFE"/>
</svg>
