<svg width="56" height="41" viewBox="0 0 56 41" fill="none" xmlns="http://www.w3.org/2000/svg">
<path d="M32.7878 13.2704C32.1114 13.2704 31.5429 13.0326 31.0824 12.5571C30.6219 12.0816 30.3916 11.4946 30.3916 10.7963C30.3916 10.0978 30.6219 9.51505 31.0824 9.04798C31.5429 8.58096 32.1114 8.34744 32.7878 8.34744H53.6039C54.2802 8.34744 54.8487 8.5852 55.3092 9.0607C55.7697 9.5362 56 10.1231 56 10.8215C56 11.52 55.7697 12.1027 55.3092 12.5698C54.8487 13.0368 54.2802 13.2704 53.6039 13.2704H32.7878ZM32.7878 36.3928C32.1114 36.3928 31.5429 36.155 31.0824 35.6795C30.6219 35.204 30.3916 34.6171 30.3916 33.9187C30.3916 33.2202 30.6219 32.6375 31.0824 32.1704C31.5429 31.7034 32.1114 31.4699 32.7878 31.4699H53.6039C54.2802 31.4699 54.8487 31.7076 55.3092 32.1831C55.7697 32.6586 56 33.2456 56 33.944C56 34.6424 55.7697 35.2252 55.3092 35.6922C54.8487 36.1593 54.2802 36.3928 53.6039 36.3928H32.7878ZM7.73446 17.1408L0.717258 9.93241C0.239086 9.44125 0 8.86632 0 8.20762C0 7.54892 0.239062 6.97399 0.717188 6.48284C1.19531 5.99172 1.75499 5.75821 2.39621 5.7823C3.03738 5.80638 3.59703 6.0399 4.07515 6.48284L9.43022 11.9116L20.3253 0.702227C20.8034 0.211116 21.3659 -0.0223968 22.0127 0.00168905C22.6595 0.0257749 23.2312 0.283374 23.7276 0.774485C24.1874 1.26564 24.4173 1.84057 24.4173 2.49927C24.4173 3.15797 24.1782 3.7329 23.7001 4.22406L11.1092 17.1408C10.6311 17.632 10.0686 17.8776 9.42185 17.8776C8.775 17.8776 8.21254 17.632 7.73446 17.1408ZM7.73446 40.2633L0.717258 33.0548C0.239086 32.5637 0 31.9888 0 31.3301C0 30.6714 0.239062 30.0964 0.717188 29.6053C1.19531 29.1142 1.75499 28.8806 2.39621 28.9047C3.03738 28.9288 3.59703 29.1623 4.07515 29.6053L9.43022 35.0341L20.3253 23.8247C20.8034 23.3335 21.3659 23.1 22.0127 23.1241C22.6595 23.1482 23.2312 23.4058 23.7276 23.8969C24.1874 24.3881 24.4173 24.963 24.4173 25.6217C24.4173 26.2804 24.1782 26.8553 23.7001 27.3465L11.1092 40.2633C10.6311 40.7544 10.0686 41 9.42185 41C8.775 41 8.21254 40.7544 7.73446 40.2633Z" fill="#FEFEFE"/>
</svg>
