<svg width="49" height="49" viewBox="0 0 49 49" fill="none" xmlns="http://www.w3.org/2000/svg">
<path d="M35 26.2927C42.21 19.5761 49 13.2897 49 7.8878C49 3.46585 45.6167 0 41.3 0C38.8734 0 36.5167 1.17122 35 2.9878C33.46 1.17122 31.1267 0 28.7 0C24.3834 0 21 3.46585 21 7.8878C21 13.2897 27.79 19.5761 35 26.2927ZM28.7 4.78049C29.7267 4.78049 30.7767 5.28244 31.4534 6.09512L35 10.3737L38.5467 6.09512C39.2234 5.28244 40.2734 4.78049 41.3 4.78049C43.0267 4.78049 44.3333 6.11902 44.3333 7.8878C44.3333 10.5649 39.5734 15.4649 35 19.8151C30.4267 15.4649 25.6667 10.541 25.6667 7.8878C25.6667 6.11902 26.9734 4.78049 28.7 4.78049Z" fill="#FEFEFE"/>
<path d="M41.9999 33.4634H37.3333C37.3333 30.5951 35.5833 28.0137 32.9699 27.0098L18.5966 21.5122H0V47.8049H14V44.3629L30.3333 49L48.9999 43.0244V40.6341C48.9999 36.6663 45.8733 33.4634 41.9999 33.4634ZM4.66666 43.0244V26.2927H9.33332V43.0244H4.66666ZM30.2633 44.0044L14 39.3912V26.2927H17.7566L31.3366 31.4795C32.1299 31.7903 32.6666 32.579 32.6666 33.4634C32.6666 33.4634 28.0233 33.3439 27.3 33.1049L21.7466 31.2166L20.2766 35.7581L25.83 37.6463C27.02 38.0527 28.2566 38.2678 29.5166 38.2678H41.9999C42.9099 38.2678 43.7266 38.8176 44.0999 39.6063L30.2633 44.0044Z" fill="#FEFEFE"/>
</svg>
