<svg width="31" height="29" viewBox="0 0 31 29" fill="none" xmlns="http://www.w3.org/2000/svg">
<path d="M30.4791 14.6375L27.1808 10.8661L27.6404 5.8781L22.7605 4.76965L20.2057 0.45752L15.6097 2.4311L11.0137 0.45752L8.45881 4.76965L3.57894 5.86458L4.03854 10.8661L0.740234 14.6375L4.03854 18.409L3.57894 23.4105L8.45881 24.5189L11.0137 28.8446L15.6097 26.8575L20.2057 28.8311L22.7605 24.5189L27.6404 23.4105L27.1808 18.4225L30.4791 14.6375ZM25.1396 16.6382L24.3826 17.5168L24.4908 18.6658L24.7341 21.3017L22.1657 21.883L21.0302 22.1398L20.4355 23.1401L19.0972 25.4111L16.6911 24.3702L15.6097 23.9106L14.5418 24.3702L12.1356 25.4111L10.7974 23.1537L10.2026 22.1534L9.06711 21.8965L6.49876 21.3153L6.74207 18.6658L6.85021 17.5168L6.09323 16.6382L4.34945 14.6511L6.09323 12.6504L6.85021 11.7718L6.72855 10.6093L6.48524 7.98685L9.05359 7.40559L10.1891 7.14876L10.7839 6.14845L12.1221 3.87749L14.5282 4.91835L15.6097 5.37794L16.6775 4.91835L19.0837 3.87749L20.4219 6.14845L21.0167 7.14876L22.1522 7.40559L24.7206 7.98685L24.4772 10.6228L24.3691 11.7718L25.1261 12.6504L26.8699 14.6375L25.1396 16.6382Z" fill="#FEFEFE"/>
<path d="M13.1367 16.9484L10.0006 13.7988L8 15.8129L13.1367 20.9631L23.0587 11.0141L21.0581 9L13.1367 16.9484Z" fill="#FEFEFE"/>
</svg>
