<svg width="89" height="88" viewBox="0 0 89 88" fill="none" xmlns="http://www.w3.org/2000/svg">
<path d="M63.0682 47.4433C76.059 35.4689 88.293 24.2615 88.293 14.6308C88.293 6.74733 82.197 0.568359 74.4194 0.568359C70.0471 0.568359 65.8009 2.65642 63.0682 5.89505C60.2934 2.65642 56.0893 0.568359 51.717 0.568359C43.9393 0.568359 37.8433 6.74733 37.8433 14.6308C37.8433 24.2615 50.0774 35.4689 63.0682 47.4433ZM51.717 9.09107C53.5668 9.09107 55.4587 9.98596 56.6779 11.4348L63.0682 19.0626L69.4585 11.4348C70.6777 9.98596 72.5695 9.09107 74.4194 9.09107C77.5304 9.09107 79.8847 11.4774 79.8847 14.6308C79.8847 19.4036 71.3083 28.1393 63.0682 35.895C54.828 28.1393 46.2516 19.3609 46.2516 14.6308C46.2516 11.4774 48.6059 9.09107 51.717 9.09107Z" fill="#6ABCA5"/>
<path d="M75.6805 60.2274H67.2722C67.2722 55.1138 64.1191 50.5115 59.4104 48.7217L33.5129 38.9206H0.00585938V85.7955H25.2307V79.6592L54.6597 87.9262L88.2929 77.2728V73.0114C88.2929 65.9376 82.6593 60.2274 75.6805 60.2274ZM8.41415 77.2728V47.4433H16.8224V77.2728H8.41415ZM54.5336 79.02L25.2307 70.7955V47.4433H31.9994L56.4675 56.6905C57.8969 57.2444 58.8639 58.6507 58.8639 60.2274C58.8639 60.2274 50.4976 60.0143 49.1943 59.5882L39.1885 56.2217L36.5399 64.3183L46.5457 67.6847C48.6899 68.4092 50.918 68.7927 53.1883 68.7927H75.6805C77.3201 68.7927 78.7915 69.7728 79.4642 71.1791L54.5336 79.02Z" fill="#6ABCA5"/>
</svg>
