<svg width="41" height="61" viewBox="0 0 41 61" fill="none" xmlns="http://www.w3.org/2000/svg">
<path d="M20.1955 60.407C18.0438 60.407 15.956 60.1805 13.9323 59.7274C11.9086 59.2744 10.0771 58.6955 8.43763 57.9907C6.08092 56.984 4.15969 55.7632 2.67394 54.3286C1.18819 52.8939 0.445312 51.2956 0.445312 49.5338V32.0912C0.445312 30.5307 1.0473 29.096 2.25127 27.7872C3.45524 26.4784 5.00503 25.3206 6.90064 24.3138C8.84749 23.307 10.9865 22.5268 13.3175 21.9731C15.6486 21.4193 18.0182 21.1425 20.4261 21.1425C22.834 21.1425 25.2036 21.4193 27.5346 21.9731C29.8657 22.5268 32.0047 23.307 33.9515 24.3138C35.8984 25.3206 37.461 26.4784 38.6393 27.7872C39.8177 29.096 40.4069 30.5307 40.4069 32.0912V49.5338C40.4069 50.3895 40.2148 51.2201 39.8305 52.0255C39.4463 52.831 38.8955 53.5861 38.1783 54.2908C37.461 54.9956 36.6285 55.6626 35.6807 56.2918C34.7328 56.921 33.6698 57.4873 32.4914 57.9907C32.5426 57.739 32.6195 57.0343 32.722 55.8765C32.722 52.9568 31.6717 50.465 29.5711 48.4011C27.4706 46.3372 24.9346 45.3053 21.9631 45.3053C19.7601 45.3053 17.8132 45.8842 16.1225 47.042C14.4319 48.1998 13.151 49.6848 12.2801 51.497C13.9195 51.8997 15.4181 52.1766 16.7758 52.3276C18.1334 52.4786 19.3246 52.5541 20.3492 52.5541C21.2202 52.5541 21.9247 52.5289 22.4626 52.4786C23.0005 52.4283 23.3464 52.4031 23.5001 52.4031V60.256C22.9365 60.3063 22.3857 60.3441 21.8478 60.3693C21.3099 60.3944 20.7591 60.407 20.1955 60.407ZM29.648 43.7951C31.3387 43.7951 32.786 43.2036 33.99 42.0206C35.1939 40.8377 35.7959 39.4156 35.7959 37.7544C35.7959 36.0932 35.1939 34.6711 33.99 33.4881C32.786 32.3052 31.3387 31.7137 29.648 31.7137C27.9573 31.7137 26.51 32.3052 25.306 33.4881C24.102 34.6711 23.5001 36.0932 23.5001 37.7544C23.5001 39.4156 24.102 40.8377 25.306 42.0206C26.51 43.2036 27.9573 43.7951 29.648 43.7951ZM20.4261 18.1221C22.9877 18.1221 25.1651 17.2538 26.9583 15.5171C28.7514 13.7804 29.648 11.6284 29.648 9.06105C29.648 6.54409 28.7514 4.40468 26.9583 2.64281C25.1651 0.880936 22.9877 0 20.4261 0C17.8132 0 15.623 0.880936 13.8555 2.64281C12.088 4.40468 11.2042 6.54409 11.2042 9.06105C11.2042 11.6284 12.088 13.7804 13.8555 15.5171C15.623 17.2538 17.8132 18.1221 20.4261 18.1221Z" fill="#6ABCA5"/>
</svg>
