<svg width="58" height="54" viewBox="0 0 58 54" fill="none" xmlns="http://www.w3.org/2000/svg">
<path d="M14.6194 34.4135C15.4199 34.4135 16.0909 34.1427 16.6324 33.6012C17.1739 33.0597 17.4447 32.3887 17.4447 31.5882C17.4447 30.7877 17.1739 30.1167 16.6324 29.5752C16.0909 29.0336 15.4199 28.7629 14.6194 28.7629C13.8189 28.7629 13.1479 29.0336 12.6064 29.5752C12.0649 30.1167 11.7941 30.7877 11.7941 31.5882C11.7941 32.3887 12.0649 33.0597 12.6064 33.6012C13.1479 34.1427 13.8189 34.4135 14.6194 34.4135ZM14.6194 25.9376C15.4199 25.9376 16.0909 25.6668 16.6324 25.1253C17.1739 24.5838 17.4447 23.9128 17.4447 23.1123C17.4447 22.3118 17.1739 21.6408 16.6324 21.0992C16.0909 20.5577 15.4199 20.287 14.6194 20.287C13.8189 20.287 13.1479 20.5577 12.6064 21.0992C12.0649 21.6408 11.7941 22.3118 11.7941 23.1123C11.7941 23.9128 12.0649 24.5838 12.6064 25.1253C13.1479 25.6668 13.8189 25.9376 14.6194 25.9376ZM14.6194 17.4617C15.4199 17.4617 16.0909 17.1909 16.6324 16.6494C17.1739 16.1079 17.4447 15.4369 17.4447 14.6364C17.4447 13.8358 17.1739 13.1648 16.6324 12.6233C16.0909 12.0818 15.4199 11.811 14.6194 11.811C13.8189 11.811 13.1479 12.0818 12.6064 12.6233C12.0649 13.1648 11.7941 13.8358 11.7941 14.6364C11.7941 15.4369 12.0649 16.1079 12.6064 16.6494C13.1479 17.1909 13.8189 17.4617 14.6194 17.4617ZM25.1437 33.7072H35.0322C35.6326 33.7072 36.1359 33.5029 36.542 33.0944C36.9481 32.6859 37.1512 32.1797 37.1512 31.5758C37.1512 30.9719 36.9481 30.4698 36.542 30.0696C36.1359 29.6693 35.6326 29.4692 35.0322 29.4692H25.1437C24.5433 29.4692 24.04 29.6734 23.6339 30.0819C23.2277 30.4905 23.0247 30.9967 23.0247 31.6005C23.0247 32.2044 23.2277 32.7065 23.6339 33.1068C24.04 33.507 24.5433 33.7072 25.1437 33.7072ZM25.1437 25.2312H43.5788C44.1792 25.2312 44.6824 25.027 45.0885 24.6185C45.4947 24.21 45.6978 23.7038 45.6978 23.0999C45.6978 22.496 45.4947 21.9939 45.0885 21.5937C44.6824 21.1934 44.1792 20.9933 43.5788 20.9933H25.1437C24.5433 20.9933 24.04 21.1975 23.6339 21.606C23.2277 22.0146 23.0247 22.5208 23.0247 23.1246C23.0247 23.7285 23.2277 24.2306 23.6339 24.6309C24.04 25.0311 24.5433 25.2312 25.1437 25.2312ZM25.1437 16.7553H43.5788C44.1792 16.7553 44.6824 16.5511 45.0885 16.1426C45.4947 15.7341 45.6978 15.2279 45.6978 14.624C45.6978 14.0201 45.4947 13.518 45.0885 13.1178C44.6824 12.7175 44.1792 12.5174 43.5788 12.5174H25.1437C24.5433 12.5174 24.04 12.7216 23.6339 13.1301C23.2277 13.5386 23.0247 14.0448 23.0247 14.6487C23.0247 15.2526 23.2277 15.7547 23.6339 16.155C24.04 16.5552 24.5433 16.7553 25.1437 16.7553ZM11.3012 46.0663L4.10898 53.2586C3.34836 54.0192 2.47339 54.1946 1.48406 53.7848C0.494687 53.375 0 52.6432 0 51.5895V4.82915C0 3.52494 0.477123 2.39405 1.43137 1.43646C2.38566 0.478821 3.51261 0 4.8122 0H52.5384C53.8426 0 54.9735 0.478821 55.9311 1.43646C56.8887 2.39405 57.3675 3.52494 57.3675 4.82915V41.2541C57.3675 42.5537 56.8887 43.6807 55.9311 44.6349C54.9735 45.5892 53.8426 46.0663 52.5384 46.0663H11.3012ZM4.8122 41.2541H52.5384V4.82915H4.8122V41.2541Z" fill="#58BBB4"/>
</svg>
