<svg width="27" height="35" viewBox="0 0 27 35" fill="none" xmlns="http://www.w3.org/2000/svg">
<path d="M13.5084 16.9069C14.3099 16.9069 14.9933 16.6131 15.5585 16.0255C16.1238 15.4379 16.4064 14.7316 16.4064 13.9064C16.4064 13.0813 16.121 12.3778 15.5502 11.7959C14.9793 11.2141 14.2932 10.9231 13.4916 10.9231C12.6901 10.9231 12.0067 11.2169 11.4415 11.8045C10.8762 12.3922 10.5936 13.0985 10.5936 13.9236C10.5936 14.7488 10.879 15.4523 11.4498 16.0341C12.0207 16.616 12.7068 16.9069 13.5084 16.9069ZM13.5 35C8.99887 30.9848 5.62358 27.2482 3.37413 23.7901C1.12471 20.332 0 17.1572 0 14.2656C0 10.0167 1.3351 6.57692 4.0053 3.94616C6.67548 1.31539 9.84038 0 13.5 0C17.1596 0 20.3245 1.31539 22.9947 3.94616C25.6649 6.57692 27 10.0167 27 14.2656C27 17.1572 25.8753 20.332 23.6259 23.7901C21.3764 27.2482 18.0011 30.9848 13.5 35Z" fill="white"/>
</svg>
