<svg width="29" height="29" viewBox="0 0 29 29" fill="none" xmlns="http://www.w3.org/2000/svg">
<path opacity="0.9" d="M20.2266 21.5416L21.5181 20.2501L15.451 14.1445V6.50445H13.7192V14.8551L20.2266 21.5416ZM14.5026 29C12.5127 29 10.6379 28.6194 8.87818 27.8583C7.11844 27.0972 5.57954 26.0579 4.26148 24.7404C2.94341 23.4229 1.90364 21.8847 1.14218 20.1257C0.380728 18.3668 0 16.4924 0 14.5026C0 12.5127 0.380563 10.6379 1.14169 8.87818C1.90281 7.11844 2.94211 5.57954 4.25958 4.26149C5.57707 2.94341 7.11529 1.90364 8.87425 1.14218C10.6332 0.380729 12.5076 0 14.4974 0C16.4873 0 18.3621 0.380564 20.1218 1.14169C21.8816 1.90281 23.4205 2.94211 24.7385 4.25958C26.0566 5.57707 27.0964 7.1153 27.8578 8.87425C28.6193 10.6332 29 12.5076 29 14.4974C29 16.4873 28.6194 18.3621 27.8583 20.1218C27.0972 21.8816 26.0579 23.4205 24.7404 24.7385C23.4229 26.0566 21.8847 27.0964 20.1257 27.8578C18.3668 28.6193 16.4924 29 14.5026 29Z" fill="#69C2BC"/>
</svg>
