<svg width="19" height="25" viewBox="0 0 19 25" fill="none" xmlns="http://www.w3.org/2000/svg">
<g clip-path="url(#clip0_10_34)">
<path d="M9.69141 18.6172C10.9713 18.6172 12.0186 17.57 12.0186 16.29C12.0186 15.0101 10.9713 13.9629 9.69141 13.9629C8.41147 13.9629 7.36426 15.0101 7.36426 16.29C7.36426 17.57 8.41147 18.6172 9.69141 18.6172ZM16.6729 8.14502H15.5093V5.81787C15.5093 2.60641 12.9029 0 9.69141 0C6.47994 0 3.87354 2.60641 3.87354 5.81787V8.14502H2.70996C1.43003 8.14502 0.382812 9.19224 0.382812 10.4722V22.1079C0.382812 23.3878 1.43003 24.4351 2.70996 24.4351H16.6729C17.9528 24.4351 19 23.3878 19 22.1079V10.4722C19 9.19224 17.9528 8.14502 16.6729 8.14502ZM6.08433 5.81787C6.08433 3.82816 7.70169 2.21079 9.69141 2.21079C11.6811 2.21079 13.2985 3.82816 13.2985 5.81787V8.14502H6.08433V5.81787ZM16.6729 22.1079H2.70996V10.4722H16.6729V22.1079Z" fill="white"/>
</g>
<defs>
<clipPath id="clip0_10_34">
<rect width="19" height="25" fill="white"/>
</clipPath>
</defs>
</svg>
