<svg width="25" height="23" viewBox="0 0 25 23" fill="none" xmlns="http://www.w3.org/2000/svg">
<g clip-path="url(#clip0_10_40)">
<path d="M24.4737 0L22.4301 2.04355L20.3988 0L18.3553 2.04355L16.3117 0L14.2804 2.04355L12.2368 0L10.1933 2.04355L8.16197 0L6.11842 2.04355L4.07487 0L2.04355 2.04355L0 0V19.5789C0 20.925 1.10132 22.0263 2.44737 22.0263H22.0263C23.3724 22.0263 24.4737 20.925 24.4737 19.5789V0ZM11.0132 19.5789H2.44737V12.2368H11.0132V19.5789ZM22.0263 19.5789H13.4605V17.1316H22.0263V19.5789ZM22.0263 14.6842H13.4605V12.2368H22.0263V14.6842ZM22.0263 9.78947H2.44737V6.11842H22.0263V9.78947Z" fill="white"/>
</g>
<defs>
<clipPath id="clip0_10_40">
<rect width="25" height="23" fill="white"/>
</clipPath>
</defs>
</svg>
