<svg width="58" height="52" viewBox="0 0 58 52" fill="none" xmlns="http://www.w3.org/2000/svg">
<path d="M23.2 23.1111C29.609 23.1111 34.8 17.94 34.8 11.5556C34.8 5.17111 29.609 0 23.2 0C16.791 0 11.6 5.17111 11.6 11.5556C11.6 17.94 16.791 23.1111 23.2 23.1111ZM23.2 5.77778C26.39 5.77778 29 8.37778 29 11.5556C29 14.7333 26.39 17.3333 23.2 17.3333C20.01 17.3333 17.4 14.7333 17.4 11.5556C17.4 8.37778 20.01 5.77778 23.2 5.77778Z" fill="#FEFEFE"/>
<path d="M5.8 40.4444C6.438 38.3644 15.399 34.6667 23.2 34.6667C23.2 32.6444 23.577 30.7089 24.215 28.9178C16.298 28.6289 0 32.5578 0 40.4444V46.2222H27.666C26.158 44.5467 24.969 42.6111 24.215 40.4444H5.8Z" fill="#FEFEFE"/>
<path d="M50.547 40.5022C51.591 38.7978 52.2 36.8044 52.2 34.6667C52.2 28.2822 47.009 23.1111 40.6 23.1111C34.191 23.1111 29 28.2822 29 34.6667C29 41.0511 34.191 46.2222 40.6 46.2222C42.746 46.2222 44.747 45.5867 46.458 44.5756C49.155 47.2622 51.156 49.2556 53.911 52L58 47.9267C53.65 43.5933 55.709 45.6156 50.547 40.5022ZM40.6 40.4444C37.41 40.4444 34.8 37.8444 34.8 34.6667C34.8 31.4889 37.41 28.8889 40.6 28.8889C43.79 28.8889 46.4 31.4889 46.4 34.6667C46.4 37.8444 43.79 40.4444 40.6 40.4444Z" fill="#FEFEFE"/>
</svg>
