<svg width="58" height="58" viewBox="0 0 58 58" fill="none" xmlns="http://www.w3.org/2000/svg">
<path d="M21.75 28.9855C21.75 30.5797 20.445 31.8841 18.85 31.8841C17.255 31.8841 15.95 30.5797 15.95 28.9855C15.95 27.3913 17.255 26.087 18.85 26.087C20.445 26.087 21.75 27.3913 21.75 28.9855ZM34.075 23.1884C35.67 23.1884 36.975 21.8841 36.975 20.2899C36.975 18.6957 35.67 17.3913 34.075 17.3913C32.48 17.3913 31.175 18.6957 31.175 20.2899C31.175 21.8841 32.48 23.1884 34.075 23.1884ZM23.925 23.1884C25.52 23.1884 26.825 21.8841 26.825 20.2899C26.825 18.6957 25.52 17.3913 23.925 17.3913C22.33 17.3913 21.025 18.6957 21.025 20.2899C21.025 21.8841 22.33 23.1884 23.925 23.1884ZM23.925 34.7826C22.33 34.7826 21.025 36.087 21.025 37.6812C21.025 39.2754 22.33 40.5797 23.925 40.5797C25.52 40.5797 26.825 39.2754 26.825 37.6812C26.825 36.087 25.52 34.7826 23.925 34.7826ZM58 26.8116V31.1594C58 32.3478 57.014 33.3333 55.825 33.3333C54.636 33.3333 53.65 32.3478 53.65 31.1594H49.184C48.749 35.1304 47.183 38.7826 44.776 41.7391L47.937 44.8986L47.966 44.8696C48.807 44.029 50.199 44.029 51.04 44.8696C51.881 45.7101 51.881 47.1015 51.04 47.942L47.966 51.0145C47.125 51.8551 45.733 51.8551 44.892 51.0145C44.051 50.1739 44.051 48.8116 44.863 47.971L41.702 44.8116C38.744 47.1884 35.119 48.7536 31.146 49.1884V53.6522H31.175C32.364 53.6522 33.35 54.6377 33.35 55.8261C33.35 57.0145 32.364 58 31.175 58H26.825C25.636 58 24.65 57.0145 24.65 55.8261C24.65 54.6377 25.607 53.6812 26.796 53.6522V49.1594C22.823 48.7246 19.198 47.1594 16.269 44.7826L13.108 47.942L13.137 47.971C13.978 48.8116 13.978 50.2029 13.137 51.0435C12.296 51.8841 10.904 51.8841 10.063 51.0435L6.96 47.942C6.119 47.1015 6.119 45.7101 6.96 44.8696C7.801 44.029 9.164 44.029 10.005 44.8406L13.166 41.6812C10.788 38.7246 9.222 35.1304 8.816 31.1594H4.35C4.35 32.3478 3.364 33.3333 2.175 33.3333C0.986 33.3333 0 32.3478 0 31.1594V26.8116C0 25.6232 0.986 24.6377 2.175 24.6377C3.364 24.6377 4.35 25.6232 4.35 26.8116H8.816C9.251 22.8406 10.817 19.2464 13.166 16.2899L10.005 13.1304C9.164 13.942 7.801 13.942 6.96 13.1014C6.119 12.2609 6.119 10.8696 6.96 10.029L10.034 6.95652C10.875 6.11594 12.267 6.11594 13.108 6.95652C13.949 7.7971 13.949 9.18841 13.108 10.029L13.079 10.058L16.24 13.2174C19.198 10.8406 22.794 9.27536 26.767 8.84058V4.34783C25.578 4.31884 24.621 3.36232 24.621 2.17391C24.65 0.985507 25.636 0 26.825 0H31.175C32.364 0 33.35 0.985507 33.35 2.17391C33.35 3.36232 32.364 4.34783 31.175 4.34783H31.146V8.81159C35.119 9.21739 38.744 10.8116 41.702 13.1884L44.863 10.029C44.022 9.18841 44.051 7.82609 44.892 6.98551C45.733 6.14493 47.125 6.14493 47.966 6.98551L51.04 10.058C51.881 10.8986 51.881 12.2899 51.04 13.1304C50.199 13.971 48.807 13.971 47.966 13.1304L47.937 13.1014L44.776 16.2319C47.154 19.1884 48.749 22.8116 49.184 26.8116H53.65C53.65 25.6232 54.636 24.6377 55.825 24.6377C57.014 24.6377 58 25.6232 58 26.8116ZM43.5 28.9855C43.5 20.9855 37.004 14.4928 29 14.4928C20.996 14.4928 14.5 20.9855 14.5 28.9855C14.5 36.9855 20.996 43.4783 29 43.4783C37.004 43.4783 43.5 36.9855 43.5 28.9855ZM29 26.087C27.405 26.087 26.1 27.3913 26.1 28.9855C26.1 30.5797 27.405 31.8841 29 31.8841C30.595 31.8841 31.9 30.5797 31.9 28.9855C31.9 27.3913 30.595 26.087 29 26.087ZM39.15 26.087C37.555 26.087 36.25 27.3913 36.25 28.9855C36.25 30.5797 37.555 31.8841 39.15 31.8841C40.745 31.8841 42.05 30.5797 42.05 28.9855C42.05 27.3913 40.745 26.087 39.15 26.087ZM34.075 34.7826C32.48 34.7826 31.175 36.087 31.175 37.6812C31.175 39.2754 32.48 40.5797 34.075 40.5797C35.67 40.5797 36.975 39.2754 36.975 37.6812C36.975 36.087 35.67 34.7826 34.075 34.7826Z" fill="#FEFEFE"/>
</svg>
