<svg width="45" height="46" viewBox="0 0 45 46" fill="none" xmlns="http://www.w3.org/2000/svg">
<path d="M16.875 23C13.7812 23 11.25 25.5875 11.25 28.75C11.25 31.9125 13.7812 34.5 16.875 34.5C19.9688 34.5 22.5 31.9125 22.5 28.75C22.5 25.5875 19.9688 23 16.875 23ZM5.625 11.5C2.53125 11.5 0 14.0875 0 17.25C0 20.4125 2.53125 23 5.625 23C8.71875 23 11.25 20.4125 11.25 17.25C11.25 14.0875 8.71875 11.5 5.625 11.5ZM5.625 34.5C2.53125 34.5 0 37.0875 0 40.25C0 43.4125 2.53125 46 5.625 46C8.71875 46 11.25 43.4125 11.25 40.25C11.25 37.0875 8.71875 34.5 5.625 34.5ZM39.375 11.5C42.4688 11.5 45 8.9125 45 5.75C45 2.5875 42.4688 0 39.375 0C36.2812 0 33.75 2.5875 33.75 5.75C33.75 8.9125 36.2812 11.5 39.375 11.5ZM28.125 34.5C25.0312 34.5 22.5 37.0875 22.5 40.25C22.5 43.4125 25.0312 46 28.125 46C31.2188 46 33.75 43.4125 33.75 40.25C33.75 37.0875 31.2188 34.5 28.125 34.5ZM39.375 23C36.2812 23 33.75 25.5875 33.75 28.75C33.75 31.9125 36.2812 34.5 39.375 34.5C42.4688 34.5 45 31.9125 45 28.75C45 25.5875 42.4688 23 39.375 23ZM28.125 11.5C25.0312 11.5 22.5 14.0875 22.5 17.25C22.5 20.4125 25.0312 23 28.125 23C31.2188 23 33.75 20.4125 33.75 17.25C33.75 14.0875 31.2188 11.5 28.125 11.5ZM16.875 0C13.7812 0 11.25 2.5875 11.25 5.75C11.25 8.9125 13.7812 11.5 16.875 11.5C19.9688 11.5 22.5 8.9125 22.5 5.75C22.5 2.5875 19.9688 0 16.875 0Z" fill="#FEFEFE"/>
</svg>
