<svg width="99" height="84" viewBox="0 0 99 84" fill="none" xmlns="http://www.w3.org/2000/svg">
<path d="M44.775 49.8167L68.625 25.0833L63.7875 20.1833L44.7375 40.0167L35.2125 30.1L30.375 35L44.775 49.8167ZM0 84V77H99V84H0ZM11.25 70C9.45 70 7.875 69.3 6.525 67.9C5.175 66.5 4.5 64.8667 4.5 63V7C4.5 5.13333 5.175 3.5 6.525 2.1C7.875 0.7 9.45 0 11.25 0H87.75C89.55 0 91.125 0.7 92.475 2.1C93.825 3.5 94.5 5.13333 94.5 7V63C94.5 64.8667 93.825 66.5 92.475 67.9C91.125 69.3 89.55 70 87.75 70H11.25ZM11.25 63H87.75V7H11.25V63Z" fill="#FEFEFE"/>
</svg>
