<svg width="68" height="62" viewBox="0 0 68 62" fill="none" xmlns="http://www.w3.org/2000/svg">
<path opacity="0.5" d="M34.6861 55.3627C34.1298 55.921 33.1409 56.014 32.4919 55.3627C31.9356 54.8044 31.8429 53.8119 32.4919 53.1606L42.9682 42.6463L38.6108 38.2731L28.1345 48.7874C27.5474 49.4077 26.5584 49.3767 25.9404 48.7874C25.2914 48.1361 25.3841 47.1436 25.9404 46.5853L36.4166 36.071L32.0593 31.6978L21.583 42.2121C21.0267 42.7704 20.0378 42.8634 19.3888 42.2121C18.8017 41.6228 18.8017 40.6303 19.3888 40.01L29.8651 29.4957L25.4768 25.1226L15.0005 35.6368C14.4443 36.1951 13.4554 36.2881 12.8064 35.6368C12.2192 35.0165 12.2192 34.055 12.8064 33.4347L26.3421 19.8499L32.1211 25.6188C35.0569 28.5653 40.1251 28.5343 43.0609 25.6188C46.0894 22.5793 46.0894 17.6788 43.0609 14.6393L37.3128 8.87044L38.1781 8.002C40.5886 5.58279 44.5134 5.58279 46.9238 8.002L60.0269 21.1526C62.4374 23.5718 62.4374 27.5108 60.0269 29.93L34.6861 55.3627ZM64.3843 34.3342C69.2052 29.4957 69.2052 21.6488 64.3843 16.7794L51.2812 3.62881C46.4603 -1.2096 38.6417 -1.2096 33.7899 3.62881L32.9246 4.49725L32.0593 3.62881C27.2383 -1.2096 19.4197 -1.2096 14.5679 3.62881L3.62806 14.6083C-0.760231 19.0125 -1.16198 25.8669 2.39192 30.7054L6.87293 26.2081C5.66769 23.8819 6.06944 20.9355 8.01636 18.9815L18.9562 8.002C21.3667 5.58279 25.2914 5.58279 27.7019 8.002L38.7035 19.0435C39.2598 19.6018 39.3525 20.5943 38.7035 21.2456C38.0545 21.8969 37.0656 21.8039 36.5094 21.2456L26.3421 11.0725L8.4181 29.0305C5.38956 32.039 5.38956 36.9705 8.4181 40.01C9.62334 41.2196 11.1685 41.964 12.8064 42.1811C13.0227 43.7939 13.7335 45.3447 14.9696 46.5853C16.2058 47.8259 17.751 48.5393 19.3579 48.7564C19.5743 50.3692 20.285 51.92 21.5212 53.1606C22.7573 54.4012 24.3025 55.1146 25.9095 55.3317C26.1258 57.0065 26.8675 58.5263 28.0727 59.7359C29.5252 61.1936 31.4721 62 33.5426 62C35.6132 62 37.5601 61.1936 39.0125 59.7359L64.3843 34.3342Z" fill="#7AB8AD"/>
</svg>
