<svg width="87" height="86" viewBox="0 0 87 86" fill="none" xmlns="http://www.w3.org/2000/svg">
<path d="M62.1429 46.1463C74.9443 34.358 87 23.3249 87 13.8439C87 6.08292 80.9929 0 73.3286 0C69.02 0 64.8358 2.05561 62.1429 5.2439C59.4086 2.05561 55.2658 0 50.9572 0C43.2929 0 37.2858 6.08292 37.2858 13.8439C37.2858 23.3249 49.3415 34.358 62.1429 46.1463ZM50.9572 8.39024C52.7801 8.39024 54.6443 9.27122 55.8458 10.6976L62.1429 18.2068L68.44 10.6976C69.6415 9.27122 71.5057 8.39024 73.3286 8.39024C76.3943 8.39024 78.7143 10.7395 78.7143 13.8439C78.7143 18.5424 70.2629 27.1424 62.1429 34.7775C54.0229 27.1424 45.5715 18.5005 45.5715 13.8439C45.5715 10.7395 47.8915 8.39024 50.9572 8.39024Z" fill="#FEFEFE"/>
<path d="M74.5713 58.7317H66.2856C66.2856 53.6976 63.1785 49.1668 58.5385 47.4049L33.0185 37.7561H0V83.9024H24.8571V77.8615L53.8571 86L86.9999 75.5122V71.3171C86.9999 64.3532 81.4484 58.7317 74.5713 58.7317ZM8.2857 75.5122V46.1464H16.5714V75.5122H8.2857ZM53.7328 77.2322L24.8571 69.1356V46.1464H31.5271L55.6385 55.2498C57.047 55.7951 57.9999 57.1795 57.9999 58.7317C57.9999 58.7317 49.7556 58.522 48.4713 58.1025L38.6114 54.7883L36.0014 62.759L45.8614 66.0732C47.9742 66.7863 50.1699 67.1639 52.4071 67.1639H74.5713C76.187 67.1639 77.637 68.1288 78.2999 69.5132L53.7328 77.2322Z" fill="#FEFEFE"/>
</svg>
