<svg width="25" height="19" viewBox="0 0 25 19" fill="none" xmlns="http://www.w3.org/2000/svg">
<path d="M1.875 19C1.375 19 0.9375 18.8219 0.5625 18.4656C0.1875 18.1094 0 17.6937 0 17.2187V1.78125C0 1.30625 0.1875 0.890625 0.5625 0.534375C0.9375 0.178125 1.375 0 1.875 0H23.125C23.625 0 24.0625 0.178125 24.4375 0.534375C24.8125 0.890625 25 1.30625 25 1.78125V17.2187C25 17.6937 24.8125 18.1094 24.4375 18.4656C24.0625 18.8219 23.625 19 23.125 19H1.875ZM12.5 10.0344L1.875 3.41406V17.2187H23.125V3.41406L12.5 10.0344ZM12.5 8.25312L23 1.78125H2.03125L12.5 8.25312ZM1.875 3.41406V1.78125V17.2187V3.41406Z" fill="white"/>
</svg>
