<svg width="99" height="86" viewBox="0 0 99 86" fill="none" xmlns="http://www.w3.org/2000/svg">
<path d="M85.6125 64.9828L79.9875 59.3025C83.5875 55.4399 86.3438 51.4826 88.2562 47.4306C90.1687 43.3787 91.125 38.3989 91.125 32.4914C91.125 26.5839 90.1687 21.6041 88.2562 17.5522C86.3438 13.5002 83.5875 9.54293 79.9875 5.68032L85.6125 0C89.8125 4.39278 93.0938 9.18318 95.4562 14.3712C97.8187 19.5592 99 25.5993 99 32.4914C99 39.3835 97.8187 45.4236 95.4562 50.6116C93.0938 55.7996 89.8125 60.59 85.6125 64.9828ZM69.975 48.8507L64.35 43.1704C65.7 41.6557 66.75 40.0462 67.5 38.3421C68.25 36.638 68.625 34.6878 68.625 32.4914C68.625 30.295 68.25 28.3448 67.5 26.6407C66.75 24.9366 65.7 23.3272 64.35 21.8124L69.975 16.1321C71.925 18.2528 73.5 20.7332 74.7 23.5733C75.9 26.4135 76.5 29.3862 76.5 32.4914C76.5 35.5967 75.9 38.5694 74.7 41.4095C73.5 44.2497 71.925 46.7301 69.975 48.8507ZM36 49.5324C31.05 49.5324 27 47.9419 23.85 44.7609C20.7 41.5799 19.125 37.4901 19.125 32.4914C19.125 27.4927 20.7 23.4029 23.85 20.2219C27 17.041 31.05 15.4505 36 15.4505C40.95 15.4505 45 17.041 48.15 20.2219C51.3 23.4029 52.875 27.4927 52.875 32.4914C52.875 37.4901 51.3 41.5799 48.15 44.7609C45 47.9419 40.95 49.5324 36 49.5324ZM0 86V75.321C0 72.443 0.7125 70.0004 2.1375 67.9934C3.5625 65.9864 5.4 64.4148 7.65 63.2787C11.475 61.3096 15.9937 59.6812 21.2062 58.3937C26.4187 57.1061 31.35 56.4624 36 56.4624C40.65 56.4624 45.5625 57.1061 50.7375 58.3937C55.9125 59.6812 60.4125 61.3096 64.2375 63.2787C66.4875 64.4148 68.3438 65.9864 69.8063 67.9934C71.2687 70.0004 72 72.443 72 75.321V86H0ZM6.75 79.1836H65.25V75.321C65.25 74.1092 64.9313 72.9921 64.2937 71.9696C63.6562 70.9472 62.7375 70.0951 61.5375 69.4135C57.9375 67.3686 53.85 65.8349 49.275 64.8124C44.7 63.79 40.275 63.2787 36 63.2787C31.725 63.2787 27.2812 63.8278 22.6687 64.926C18.0562 66.0242 13.95 67.52 10.35 69.4135C9.3 69.9436 8.4375 70.7578 7.7625 71.856C7.0875 72.9542 6.75 74.1092 6.75 75.321V79.1836ZM36 42.716C38.925 42.716 41.3438 41.7503 43.2562 39.819C45.1687 37.8877 46.125 35.4452 46.125 32.4914C46.125 29.5376 45.1687 27.0951 43.2562 25.1638C41.3438 23.2325 38.925 22.2668 36 22.2668C33.075 22.2668 30.6562 23.2325 28.7437 25.1638C26.8312 27.0951 25.875 29.5376 25.875 32.4914C25.875 35.4452 26.8312 37.8877 28.7437 39.819C30.6562 41.7503 33.075 42.716 36 42.716Z" fill="#FEFEFE"/>
</svg>
