<svg width="23" height="23" viewBox="0 0 23 23" fill="none" xmlns="http://www.w3.org/2000/svg">
<path d="M11.5 11.1111C9.91875 11.1111 8.625 10.5926 7.61875 9.55556C6.6125 8.51852 6.10937 7.18519 6.10937 5.55556C6.10937 3.92593 6.6125 2.59259 7.61875 1.55556C8.625 0.518519 9.91875 0 11.5 0C13.0812 0 14.375 0.518519 15.3812 1.55556C16.3875 2.59259 16.8906 3.92593 16.8906 5.55556C16.8906 7.18519 16.3875 8.51852 15.3812 9.55556C14.375 10.5926 13.0812 11.1111 11.5 11.1111ZM0 23V19.5185C0 18.5802 0.227604 17.7778 0.682812 17.1111C1.13802 16.4444 1.725 15.9383 2.44375 15.5926C4.04896 14.8519 5.58828 14.2963 7.06172 13.9259C8.53516 13.5556 10.0146 13.3704 11.5 13.3704C12.9854 13.3704 14.4589 13.5617 15.9203 13.9444C17.3818 14.3272 18.9151 14.8765 20.5203 15.5926C21.263 15.9383 21.862 16.4444 22.3172 17.1111C22.7724 17.7778 23 18.5802 23 19.5185V23H0Z" fill="#7AB8AD"/>
</svg>
