<svg width="23" height="25" viewBox="0 0 23 25" fill="none" xmlns="http://www.w3.org/2000/svg">
<path d="M19.5789 2.44737H18.3553V0H15.9079V2.44737H6.11842V0H3.67105V2.44737H2.44737C1.08908 2.44737 0.0122368 3.54868 0.0122368 4.89474L0 22.0263C0 23.3724 1.08908 24.4737 2.44737 24.4737H19.5789C20.925 24.4737 22.0263 23.3724 22.0263 22.0263V4.89474C22.0263 3.54868 20.925 2.44737 19.5789 2.44737ZM19.5789 22.0263H2.44737V9.78947H19.5789V22.0263ZM7.34211 14.6842H4.89474V12.2368H7.34211V14.6842ZM12.2368 14.6842H9.78947V12.2368H12.2368V14.6842ZM17.1316 14.6842H14.6842V12.2368H17.1316V14.6842ZM7.34211 19.5789H4.89474V17.1316H7.34211V19.5789ZM12.2368 19.5789H9.78947V17.1316H12.2368V19.5789ZM17.1316 19.5789H14.6842V17.1316H17.1316V19.5789Z" fill="#7AB8AD"/>
</svg>
