<svg width="27" height="27" viewBox="0 0 27 27" fill="none" xmlns="http://www.w3.org/2000/svg">
<path d="M2.025 27C1.485 27 1.0125 26.7975 0.6075 26.3925C0.2025 25.9875 0 25.515 0 24.975V8.775C0 8.235 0.2025 7.7625 0.6075 7.3575C1.0125 6.9525 1.485 6.75 2.025 6.75H10.4625V2.025C10.4625 1.485 10.665 1.0125 11.07 0.6075C11.475 0.2025 11.9475 0 12.4875 0H14.5125C15.0525 0 15.525 0.2025 15.93 0.6075C16.335 1.0125 16.5375 1.485 16.5375 2.025V6.75H24.975C25.515 6.75 25.9875 6.9525 26.3925 7.3575C26.7975 7.7625 27 8.235 27 8.775V24.975C27 25.515 26.7975 25.9875 26.3925 26.3925C25.9875 26.7975 25.515 27 24.975 27H2.025ZM5.13 21.3638H13.1963V20.8913C13.1963 20.4863 13.095 20.1263 12.8925 19.8113C12.69 19.4963 12.4313 19.2825 12.1163 19.17C11.3963 18.9225 10.8338 18.7594 10.4288 18.6806C10.0238 18.6019 9.63 18.5625 9.2475 18.5625C8.82 18.5625 8.36438 18.6131 7.88063 18.7144C7.39688 18.8156 6.85125 18.9675 6.24375 19.17C5.90625 19.2825 5.63625 19.4963 5.43375 19.8113C5.23125 20.1263 5.13 20.4863 5.13 20.8913V21.3638ZM16.47 19.1025H22.2075V17.415H16.47V19.1025ZM9.2475 17.415C9.765 17.415 10.1981 17.2406 10.5469 16.8919C10.8956 16.5431 11.07 16.11 11.07 15.5925C11.07 15.075 10.8956 14.6419 10.5469 14.2931C10.1981 13.9444 9.765 13.77 9.2475 13.77C8.73 13.77 8.29688 13.9444 7.94813 14.2931C7.59938 14.6419 7.425 15.075 7.425 15.5925C7.425 16.11 7.59938 16.5431 7.94813 16.8919C8.29688 17.2406 8.73 17.415 9.2475 17.415ZM16.47 15.2888H22.2075V13.6013H16.47V15.2888ZM12.4875 9.7875H14.5125V2.025H12.4875V9.7875Z" fill="#7AB8AD"/>
</svg>
