<svg width="25" height="25" viewBox="0 0 25 25" fill="none" xmlns="http://www.w3.org/2000/svg">
<mask id="mask0_19_55" style="mask-type:alpha" maskUnits="userSpaceOnUse" x="0" y="0" width="25" height="25">
<rect x="0.591797" y="0.350159" width="24" height="24" fill="#D9D9D9"/>
</mask>
<g mask="url(#mask0_19_55)">
<path d="M5.5918 22.3502C5.0418 22.3502 4.57096 22.1543 4.1793 21.7627C3.78763 21.371 3.5918 20.9002 3.5918 20.3502V6.35016C3.5918 5.80016 3.78763 5.32933 4.1793 4.93766C4.57096 4.54599 5.0418 4.35016 5.5918 4.35016H6.5918V2.35016H8.5918V4.35016H16.5918V2.35016H18.5918V4.35016H19.5918C20.1418 4.35016 20.6126 4.54599 21.0043 4.93766C21.396 5.32933 21.5918 5.80016 21.5918 6.35016V11.3502H19.5918V10.3502H5.5918V20.3502H12.5918V22.3502H5.5918ZM5.5918 8.35016H19.5918V6.35016H5.5918V8.35016ZM14.5918 22.3502V19.2752L20.1168 13.7752C20.2668 13.6252 20.4335 13.5168 20.6168 13.4502C20.8001 13.3835 20.9835 13.3502 21.1668 13.3502C21.3668 13.3502 21.5585 13.3877 21.7418 13.4627C21.9251 13.5377 22.0918 13.6502 22.2418 13.8002L23.1668 14.7252C23.3001 14.8752 23.4043 15.0418 23.4793 15.2252C23.5543 15.4085 23.5918 15.5918 23.5918 15.7752C23.5918 15.9585 23.5585 16.146 23.4918 16.3377C23.4251 16.5293 23.3168 16.7002 23.1668 16.8502L17.6668 22.3502H14.5918ZM16.0918 20.8502H17.0418L20.0668 17.8002L19.6168 17.3252L19.1418 16.8752L16.0918 19.9002V20.8502ZM19.6168 17.3252L19.1418 16.8752L20.0668 17.8002L19.6168 17.3252Z" fill="#58BBB4"/>
</g>
</svg>
